Bellota-Bold Italic.ufo
<glyph name="exclam" format="1">
  <advance width="273"/>
  <unicode hex="0021"/>
  <outline>
    <contour>
      <point x="152" y="134" type="line"/>
      <point x="241" y="706" type="line"/>
      <point x="150" y="706" type="line"/>
      <point x="79" y="134" type="line"/>
    </contour>
    <component base="period" xOffset="26" yOffset="-20"/>
  </outline>
</glyph>
<glyph name="quotedbl" format="1">
  <advance width="335"/>
  <unicode hex="0022"/>
  <outline>
    <contour>
      <point x="168" y="477" type="line"/>
      <point x="208" y="686" type="line"/>
      <point x="113" y="686" type="line"/>
      <point x="95" y="477" type="line"/>
    </contour>
    <contour>
      <point x="301" y="478" type="line"/>
      <point x="341" y="687" type="line"/>
      <point x="247" y="687" type="line"/>
      <point x="229" y="478" type="line"/>
    </contour>
  </outline>
</glyph>
<glyph name="numbersign" format="1">
  <advance width="608"/>
  <unicode hex="0023"/>
  <outline>
    <contour>
      <point x="189" y="29" type="line"/>
      <point x="210" y="178" type="line"/>
      <point x="350" y="178" type="line"/>
      <point x="329" y="29" type="line"/>
      <point x="405" y="29" type="line"/>
      <point x="426" y="178" type="line"/>
      <point x="537" y="178" type="line"/>
      <point x="547" y="252" type="line"/>
      <point x="436" y="252" type="line"/>
      <point x="460" y="419" type="line"/>
      <point x="571" y="419" type="line"/>
      <point x="581" y="492" type="line"/>
      <point x="470" y="492" type="line"/>
      <point x="491" y="641" type="line"/>
      <point x="413" y="641" type="line"/>
      <point x="392" y="492" type="line"/>
      <point x="254" y="492" type="line"/>
      <point x="275" y="641" type="line"/>
      <point x="197" y="641" type="line"/>
      <point x="176" y="492" type="line"/>
      <point x="65" y="492" type="line"/>
      <point x="55" y="419" type="line"/>
      <point x="166" y="419" type="line"/>
      <point x="142" y="252" type="line"/>
      <point x="31" y="252" type="line"/>
      <point x="21" y="178" type="line"/>
      <point x="134" y="178" type="line"/>
      <point x="113" y="29" type="line"/>
    </contour>
    <contour>
      <point x="244" y="419" type="line"/>
      <point x="382" y="419" type="line"/>
      <point x="358" y="252" type="line"/>
      <point x="220" y="252" type="line"/>
    </contour>
  </outline>
</glyph>
<glyph name="dollar" format="1">
  <advance width="556"/>
  <unicode hex="0024"/>
  <outline>
    <contour>
      <point x="259" y="-68" type="line"/>
      <point x="270" y="-7" type="line"/>
      <point x="318" y="-2"/>
      <point x="365" y="11"/>
      <point x="406" y="38" type="curve" smooth="yes"/>
      <point x="451" y="72"/>
      <point x="476" y="117"/>
      <point x="484" y="173" type="curve" smooth="yes"/>
      <point x="486" y="183"/>
      <point x="486" y="193"/>
      <point x="486" y="202" type="curve" smooth="yes"/>
      <point x="486" y="248"/>
      <point x="468" y="285"/>
      <point x="435" y="313" type="curve" smooth="yes"/>
      <point x="406" y="341"/>
      <point x="374" y="354"/>
      <point x="319" y="372" type="curve"/>
      <point x="353" y="585" type="line"/>
      <point x="382" y="580"/>
      <point x="398" y="576"/>
      <point x="424" y="565" type="curve" smooth="yes"/>
      <point x="450" y="551"/>
      <point x="472" y="537"/>
      <point x="493" y="522" type="curve"/>
      <point x="543" y="585" type="line"/>
      <point x="520" y="605"/>
      <point x="485" y="625"/>
      <point x="452" y="638" type="curve"/>
      <point x="426" y="650"/>
      <point x="398" y="659"/>
      <point x="360" y="664" type="curve"/>
      <point x="374" y="750" type="line"/>
      <point x="295" y="750" type="line"/>
      <point x="281" y="663" type="line"/>
      <point x="239" y="657"/>
      <point x="195" y="643"/>
      <point x="158" y="614" type="curve" smooth="yes"/>
      <point x="120" y="581"/>
      <point x="97" y="535"/>
      <point x="97" y="476" type="curve" smooth="yes"/>
      <point x="97" y="438"/>
      <point x="109" y="403"/>
      <point x="137" y="376" type="curve" smooth="yes"/>
      <point x="160" y="346"/>
      <point x="195" y="330"/>
      <point x="236" y="316" type="curve"/>
      <point x="198" y="70" type="line"/>
      <point x="142" y="79"/>
      <point x="96" y="102"/>
      <point x="51" y="135" type="curve"/>
      <point x="0" y="72" type="line"/>
      <point x="50" y="27"/>
      <point x="117" y="0"/>
      <point x="191" y="-8" type="curve"/>
      <point x="180" y="-68" type="line"/>
    </contour>
    <contour>
      <point x="312" y="290" type="line"/>
      <point x="336" y="280"/>
      <point x="364" y="266"/>
      <point x="381" y="253" type="curve"/>
      <point x="397" y="238"/>
      <point x="404" y="221"/>
      <point x="404" y="198" type="curve" smooth="yes"/>
      <point x="404" y="162"/>
      <point x="392" y="123"/>
      <point x="351" y="97" type="curve" smooth="yes"/>
      <point x="332" y="81"/>
      <point x="306" y="72"/>
      <point x="276" y="68" type="curve"/>
    </contour>
    <contour>
      <point x="224" y="410"/>
      <point x="209" y="421"/>
      <point x="196" y="433" type="curve" smooth="yes"/>
      <point x="184" y="449"/>
      <point x="180" y="465"/>
      <point x="180" y="483" type="curve" smooth="yes"/>
      <point x="180" y="531"/>
      <point x="208" y="576"/>
      <point x="275" y="588" type="curve"/>
      <point x="244" y="401" type="line"/>
    </contour>
  </outline>
</glyph>
<glyph name="ampersand" format="1">
  <advance width="647"/>
  <unicode hex="0026"/>
  <outline>
    <contour>
      <point x="289" y="-10"/>
      <point x="368" y="17"/>
      <point x="429" y="70" type="curve"/>
      <point x="506" y="-8" type="line"/>
      <point x="562" y="49" type="line"/>
      <point x="483" y="131" type="line"/>
      <point x="523" y="183"/>
      <point x="549" y="251"/>
      <point x="558" y="315" type="curve" smooth="yes"/>
      <point x="566" y="369" type="line"/>
      <point x="491" y="369" type="line"/>
      <point x="484" y="321" type="line" smooth="yes"/>
      <point x="478" y="278"/>
      <point x="458" y="225"/>
      <point x="434" y="186" type="curve"/>
      <point x="243" y="388" type="line"/>
      <point x="230" y="408"/>
      <point x="218" y="429"/>
      <point x="218" y="458" type="curve" smooth="yes"/>
      <point x="218" y="527"/>
      <point x="264" y="561"/>
      <point x="320" y="561" type="curve" smooth="yes"/>
      <point x="354" y="561"/>
      <point x="387" y="549"/>
      <point x="404" y="493" type="curve"/>
      <point x="464" y="537" type="line"/>
      <point x="457" y="585"/>
      <point x="404" y="638"/>
      <point x="326" y="638" type="curve" smooth="yes"/>
      <point x="253" y="638"/>
      <point x="148" y="589"/>
      <point x="132" y="476" type="curve" smooth="yes"/>
      <point x="131" y="467"/>
      <point x="130" y="458"/>
      <point x="130" y="450" type="curve" smooth="yes"/>
      <point x="130" y="416"/>
      <point x="141" y="389"/>
      <point x="157" y="359" type="curve"/>
      <point x="100" y="325"/>
      <point x="44" y="264"/>
      <point x="32" y="179" type="curve" smooth="yes"/>
      <point x="31" y="168"/>
      <point x="30" y="158"/>
      <point x="30" y="148" type="curve" smooth="yes"/>
      <point x="30" y="51"/>
      <point x="100" y="-10"/>
      <point x="214" y="-10" type="curve" smooth="yes"/>
    </contour>
    <contour>
      <point x="149" y="64"/>
      <point x="109" y="96"/>
      <point x="109" y="152" type="curve" smooth="yes"/>
      <point x="109" y="216"/>
      <point x="148" y="273"/>
      <point x="207" y="301" type="curve"/>
      <point x="380" y="122" type="line"/>
      <point x="334" y="83"/>
      <point x="274" y="64"/>
      <point x="219" y="64" type="curve" smooth="yes"/>
    </contour>
  </outline>
</glyph>
<glyph name="quotesingle" format="1">
  <advance width="217"/>
  <unicode hex="0027"/>
  <outline>
    <contour>
      <point x="162" y="477" type="line"/>
      <point x="202" y="686" type="line"/>
      <point x="107" y="686" type="line"/>
      <point x="89" y="477" type="line"/>
    </contour>
  </outline>
</glyph>
<glyph name="parenleft" format="1">
  <advance width="367"/>
  <unicode hex="0028"/>
  <outline>
    <contour>
      <point x="290" y="-100" type="line"/>
      <point x="224" y="-62"/>
      <point x="179" y="1"/>
      <point x="151" y="66" type="curve" smooth="yes"/>
      <point x="133" y="114"/>
      <point x="122" y="171"/>
      <point x="122" y="231" type="curve" smooth="yes"/>
      <point x="122" y="251"/>
      <point x="123" y="272"/>
      <point x="126" y="292" type="curve" smooth="yes"/>
      <point x="137" y="372"/>
      <point x="173" y="454"/>
      <point x="219" y="520" type="curve" smooth="yes"/>
      <point x="265" y="591"/>
      <point x="332" y="657"/>
      <point x="404" y="691" type="curve"/>
      <point x="372" y="755" type="line"/>
      <point x="276" y="709"/>
      <point x="196" y="636"/>
      <point x="141" y="558" type="curve" smooth="yes"/>
      <point x="89" y="477"/>
      <point x="57" y="387"/>
      <point x="45" y="299" type="curve" smooth="yes"/>
      <point x="41" y="272"/>
      <point x="39" y="246"/>
      <point x="39" y="220" type="curve" smooth="yes"/>
      <point x="39" y="158"/>
      <point x="50" y="99"/>
      <point x="73" y="45" type="curve" smooth="yes"/>
      <point x="104" y="-39"/>
      <point x="162" y="-111"/>
      <point x="248" y="-160" type="curve"/>
    </contour>
  </outline>
</glyph>
<glyph name="asterisk" format="1">
  <advance width="397"/>
  <unicode hex="002A"/>
  <outline>
    <contour>
      <point x="220" y="486" type="line"/>
      <point x="264" y="400" type="line"/>
      <point x="336" y="447" type="line"/>
      <point x="284" y="522" type="line"/>
      <point x="383" y="548" type="line"/>
      <point x="370" y="627" type="line"/>
      <point x="268" y="588" type="line"/>
      <point x="289" y="696" type="line"/>
      <point x="206" y="696" type="line"/>
      <point x="197" y="589" type="line"/>
      <point x="104" y="627" type="line"/>
      <point x="67" y="548" type="line"/>
      <point x="160" y="523" type="line"/>
      <point x="89" y="448" type="line"/>
      <point x="151" y="398" type="line"/>
    </contour>
  </outline>
</glyph>
<glyph name="plus" format="1">
  <advance width="449"/>
  <unicode hex="002B"/>
  <outline>
    <contour>
      <point x="228" y="103" type="line"/>
      <point x="250" y="259" type="line"/>
      <point x="403" y="259" type="line"/>
      <point x="414" y="332" type="line"/>
      <point x="261" y="332" type="line"/>
      <point x="282" y="487" type="line"/>
      <point x="204" y="487" type="line"/>
      <point x="183" y="332" type="line"/>
      <point x="30" y="332" type="line"/>
      <point x="19" y="259" type="line"/>
      <point x="172" y="259" type="line"/>
      <point x="150" y="103" type="line"/>
    </contour>
  </outline>
</glyph>
<glyph name="comma" format="2">
	<advance width="248"/>
	<unicode hex="002C"/>
	<outline>
		<contour>
			<point x="62" y="-102" type="line"/>
			<point x="93" y="-82"/>
			<point x="116" y="-60"/>
			<point x="131" y="-38" type="curve"/>
			<point x="141" y="-14"/>
			<point x="148" y="12"/>
			<point x="151" y="40" type="curve" smooth="yes"/>
			<point x="154" y="60" type="line" smooth="yes"/>
			<point x="157" y="78"/>
			<point x="144" y="105"/>
			<point x="114" y="105" type="curve" smooth="yes"/>
			<point x="92" y="105"/>
			<point x="72" y="88"/>
			<point x="69" y="64" type="curve" smooth="yes"/>
			<point x="69" y="63" type="line"/>
			<point x="68" y="50"/>
			<point x="66" y="39"/>
			<point x="66" y="33" type="curve" smooth="yes"/>
			<point x="62" y="11"/>
			<point x="58" y="1"/>
			<point x="53" y="-8" type="curve"/>
			<point x="47" y="-23"/>
			<point x="35" y="-38"/>
			<point x="14" y="-53" type="curve"/>
		</contour>
	</outline>
</glyph>
<glyph name="hyphen" format="1">
  <advance width="453"/>
  <unicode hex="002D"/>
  <outline>
    <contour>
      <point x="370" y="268" type="line"/>
      <point x="381" y="347" type="line"/>
      <point x="70" y="347" type="line"/>
      <point x="59" y="268" type="line"/>
    </contour>
  </outline>
</glyph>
<glyph name="period" format="2">
	<advance width="236"/>
	<unicode hex="002E"/>
	<outline>
		<contour>
			<point x="87" y="-4" type="curve" smooth="yes"/>
			<point x="115" y="-4"/>
			<point x="144" y="23"/>
			<point x="144" y="51" type="curve" smooth="yes"/>
			<point x="144" y="78"/>
			<point x="122" y="101"/>
			<point x="94" y="101" type="curve" smooth="yes"/>
			<point x="67" y="101"/>
			<point x="39" y="74"/>
			<point x="39" y="45" type="curve" smooth="yes"/>
			<point x="39" y="19"/>
			<point x="60" y="-4"/>
		</contour>
	</outline>
</glyph>
<glyph name="slash" format="2">
	<advance width="327"/>
	<unicode hex="002F"/>
	<outline>
		<contour>
			<point x="-34" y="-68" type="line"/>
			<point x="53" y="-68" type="line"/>
			<point x="385" y="750" type="line"/>
			<point x="300" y="750" type="line"/>
		</contour>
	</outline>
</glyph>
<glyph name="zero" format="1">
  <advance width="664"/>
  <unicode hex="0030"/>
  <outline>
    <contour>
      <point x="456" y="-10"/>
      <point x="577" y="145"/>
      <point x="602" y="321" type="curve" smooth="yes"/>
      <point x="605" y="343"/>
      <point x="607" y="364"/>
      <point x="607" y="386" type="curve" smooth="yes"/>
      <point x="607" y="537"/>
      <point x="528" y="666"/>
      <point x="372" y="666" type="curve" smooth="yes"/>
      <point x="198" y="666"/>
      <point x="79" y="506"/>
      <point x="55" y="332" type="curve" smooth="yes"/>
      <point x="52" y="310"/>
      <point x="50" y="288"/>
      <point x="50" y="267" type="curve" smooth="yes"/>
      <point x="50" y="117"/>
      <point x="127" y="-10"/>
      <point x="285" y="-10" type="curve" smooth="yes"/>
    </contour>
    <contour>
      <point x="183" y="66"/>
      <point x="134" y="158"/>
      <point x="134" y="269" type="curve" smooth="yes"/>
      <point x="134" y="287"/>
      <point x="136" y="305"/>
      <point x="138" y="324" type="curve" smooth="yes"/>
      <point x="158" y="462"/>
      <point x="243" y="589"/>
      <point x="371" y="589" type="curve" smooth="yes"/>
      <point x="476" y="589"/>
      <point x="525" y="502"/>
      <point x="525" y="390" type="curve" smooth="yes"/>
      <point x="525" y="372"/>
      <point x="524" y="353"/>
      <point x="521" y="333" type="curve" smooth="yes"/>
      <point x="502" y="199"/>
      <point x="421" y="66"/>
      <point x="290" y="66" type="curve" smooth="yes"/>
    </contour>
  </outline>
</glyph>
<glyph name="one" format="1">
  <advance width="382"/>
  <unicode hex="0031"/>
  <outline>
    <contour>
      <point x="261" y="-1" type="line"/>
      <point x="355" y="672" type="line"/>
      <point x="330" y="673" type="line"/>
      <point x="228" y="610"/>
      <point x="166" y="567"/>
      <point x="105" y="567" type="curve" smooth="yes"/>
      <point x="102" y="567"/>
      <point x="97" y="567"/>
      <point x="92" y="568" type="curve"/>
      <point x="105" y="493" type="line"/>
      <point x="161" y="491"/>
      <point x="209" y="509"/>
      <point x="257" y="542" type="curve"/>
      <point x="179" y="-1" type="line"/>
    </contour>
  </outline>
</glyph>
<glyph name="two" format="1">
  <advance width="552"/>
  <unicode hex="0032"/>
  <outline>
    <contour>
      <point x="457" y="-1" type="line"/>
      <point x="468" y="78" type="line"/>
      <point x="112" y="76" type="line"/>
      <point x="133" y="119"/>
      <point x="171" y="154"/>
      <point x="226" y="192" type="curve" smooth="yes"/>
      <point x="346" y="283"/>
      <point x="472" y="337"/>
      <point x="493" y="482" type="curve" smooth="yes"/>
      <point x="494" y="493"/>
      <point x="495" y="503"/>
      <point x="495" y="513" type="curve" smooth="yes"/>
      <point x="495" y="608"/>
      <point x="432" y="668"/>
      <point x="317" y="668" type="curve" smooth="yes"/>
      <point x="208" y="668"/>
      <point x="128" y="613"/>
      <point x="79" y="509" type="curve"/>
      <point x="143" y="470" type="line"/>
      <point x="171" y="549"/>
      <point x="236" y="596"/>
      <point x="314" y="596" type="curve" smooth="yes"/>
      <point x="380" y="596"/>
      <point x="418" y="562"/>
      <point x="418" y="508" type="curve" smooth="yes"/>
      <point x="418" y="405"/>
      <point x="308" y="345"/>
      <point x="219" y="287" type="curve" smooth="yes"/>
      <point x="114" y="213"/>
      <point x="30" y="136"/>
      <point x="15" y="26" type="curve" smooth="yes"/>
      <point x="11" y="-1" type="line"/>
    </contour>
  </outline>
</glyph>
<glyph name="three" format="1">
  <advance width="572"/>
  <unicode hex="0033"/>
  <outline>
    <contour>
      <point x="363" y="-12"/>
      <point x="494" y="67"/>
      <point x="494" y="210" type="curve" smooth="yes"/>
      <point x="494" y="272"/>
      <point x="467" y="328"/>
      <point x="424" y="356" type="curve"/>
      <point x="419" y="363"/>
      <point x="410" y="369"/>
      <point x="403" y="372" type="curve"/>
      <point x="465" y="405"/>
      <point x="505" y="472"/>
      <point x="505" y="531" type="curve" smooth="yes"/>
      <point x="505" y="618"/>
      <point x="424" y="675"/>
      <point x="320" y="675" type="curve" smooth="yes"/>
      <point x="256" y="675"/>
      <point x="212" y="663"/>
      <point x="134" y="610" type="curve"/>
      <point x="169" y="543" type="line"/>
      <point x="225" y="585"/>
      <point x="270" y="597"/>
      <point x="318" y="597" type="curve" smooth="yes"/>
      <point x="372" y="597"/>
      <point x="419" y="570"/>
      <point x="419" y="523" type="curve" smooth="yes"/>
      <point x="419" y="460"/>
      <point x="347" y="403"/>
      <point x="289" y="403" type="curve" smooth="yes"/>
      <point x="174" y="403" type="line"/>
      <point x="163" y="325" type="line"/>
      <point x="283" y="325" type="line"/>
      <point x="349" y="322"/>
      <point x="411" y="287"/>
      <point x="411" y="215" type="curve" smooth="yes"/>
      <point x="411" y="209"/>
      <point x="411" y="203"/>
      <point x="410" y="197" type="curve" smooth="yes"/>
      <point x="398" y="113"/>
      <point x="318" y="66"/>
      <point x="226" y="66" type="curve" smooth="yes"/>
      <point x="148" y="66"/>
      <point x="108" y="100"/>
      <point x="62" y="152" type="curve"/>
      <point x="7" y="93" type="line"/>
      <point x="47" y="41"/>
      <point x="120" y="-12"/>
      <point x="235" y="-12" type="curve" smooth="yes"/>
    </contour>
  </outline>
</glyph>
<glyph name="four" format="1">
  <advance width="551"/>
  <unicode hex="0034"/>
  <outline>
    <contour>
      <point x="379" y="-3" type="line"/>
      <point x="397" y="122" type="line"/>
      <point x="478" y="122" type="line"/>
      <point x="489" y="200" type="line"/>
      <point x="408" y="200" type="line"/>
      <point x="438" y="416" type="line"/>
      <point x="354" y="416" type="line"/>
      <point x="324" y="200" type="line"/>
      <point x="115" y="200" type="line"/>
      <point x="374" y="663" type="line"/>
      <point x="282" y="663" type="line"/>
      <point x="13" y="184" type="line"/>
      <point x="5" y="122" type="line"/>
      <point x="313" y="122" type="line"/>
      <point x="295" y="-3" type="line"/>
    </contour>
  </outline>
</glyph>
<glyph name="five" format="1">
  <advance width="509"/>
  <unicode hex="0035"/>
  <outline>
    <contour>
      <point x="337" y="-6"/>
      <point x="451" y="88"/>
      <point x="470" y="223" type="curve" smooth="yes"/>
      <point x="472" y="235"/>
      <point x="473" y="248"/>
      <point x="473" y="259" type="curve" smooth="yes"/>
      <point x="473" y="377"/>
      <point x="383" y="450"/>
      <point x="247" y="450" type="curve" smooth="yes"/>
      <point x="228" y="450"/>
      <point x="209" y="448"/>
      <point x="174" y="443" type="curve"/>
      <point x="195" y="574" type="line"/>
      <point x="460" y="578" type="line"/>
      <point x="471" y="656" type="line"/>
      <point x="122" y="649" type="line"/>
      <point x="83" y="362" type="line"/>
      <point x="98" y="350" type="line"/>
      <point x="136" y="366"/>
      <point x="180" y="372"/>
      <point x="228" y="372" type="curve" smooth="yes"/>
      <point x="328" y="372"/>
      <point x="393" y="348"/>
      <point x="393" y="265" type="curve" smooth="yes"/>
      <point x="393" y="257"/>
      <point x="392" y="248"/>
      <point x="391" y="238" type="curve" smooth="yes"/>
      <point x="378" y="144"/>
      <point x="313" y="71"/>
      <point x="206" y="71" type="curve" smooth="yes"/>
      <point x="145" y="71"/>
      <point x="107" y="95"/>
      <point x="46" y="145" type="curve"/>
      <point x="22" y="74" type="line"/>
      <point x="41" y="49"/>
      <point x="115" y="-6"/>
      <point x="212" y="-6" type="curve" smooth="yes"/>
    </contour>
  </outline>
</glyph>
<glyph name="six" format="1">
  <advance width="584"/>
  <unicode hex="0036"/>
  <outline>
    <contour>
      <point x="376" y="-36"/>
      <point x="492" y="67"/>
      <point x="510" y="191" type="curve" smooth="yes"/>
      <point x="512" y="202"/>
      <point x="512" y="213"/>
      <point x="512" y="223" type="curve" smooth="yes"/>
      <point x="512" y="338"/>
      <point x="425" y="429"/>
      <point x="307" y="429" type="curve" smooth="yes"/>
      <point x="263" y="429"/>
      <point x="214" y="416"/>
      <point x="168" y="386" type="curve"/>
      <point x="169" y="391" type="line"/>
      <point x="204" y="446"/>
      <point x="243" y="488"/>
      <point x="290" y="517" type="curve" smooth="yes"/>
      <point x="355" y="564"/>
      <point x="424" y="579"/>
      <point x="491" y="577" type="curve"/>
      <point x="498" y="652" type="line"/>
      <point x="383" y="656"/>
      <point x="273" y="610"/>
      <point x="186" y="531" type="curve" smooth="yes"/>
      <point x="106" y="452"/>
      <point x="51" y="347"/>
      <point x="37" y="249" type="curve" smooth="yes"/>
      <point x="35" y="232"/>
      <point x="34" y="216"/>
      <point x="34" y="200" type="curve" smooth="yes"/>
      <point x="34" y="65"/>
      <point x="115" y="-36"/>
      <point x="246" y="-36" type="curve" smooth="yes"/>
    </contour>
    <contour>
      <point x="167" y="38"/>
      <point x="114" y="100"/>
      <point x="114" y="170" type="curve" smooth="yes"/>
      <point x="114" y="261"/>
      <point x="203" y="355"/>
      <point x="304" y="355" type="curve" smooth="yes"/>
      <point x="382" y="355"/>
      <point x="439" y="297"/>
      <point x="439" y="222" type="curve" smooth="yes"/>
      <point x="439" y="122"/>
      <point x="346" y="38"/>
      <point x="249" y="38" type="curve" smooth="yes"/>
    </contour>
  </outline>
</glyph>
<glyph name="seven" format="1">
  <advance width="476"/>
  <unicode hex="0037"/>
  <outline>
    <contour>
      <point x="164" y="-1" type="line"/>
      <point x="504" y="635" type="line"/>
      <point x="506" y="656" type="line"/>
      <point x="77" y="651" type="line"/>
      <point x="67" y="574" type="line"/>
      <point x="388" y="577" type="line"/>
      <point x="75" y="-1" type="line"/>
    </contour>
  </outline>
</glyph>
<glyph name="eight" format="1">
  <advance width="569"/>
  <unicode hex="0038"/>
  <outline>
    <contour>
      <point x="365" y="-16"/>
      <point x="472" y="57"/>
      <point x="489" y="179" type="curve" smooth="yes"/>
      <point x="491" y="190"/>
      <point x="491" y="201"/>
      <point x="491" y="211" type="curve" smooth="yes"/>
      <point x="491" y="283"/>
      <point x="453" y="333"/>
      <point x="402" y="361" type="curve"/>
      <point x="450" y="393"/>
      <point x="499" y="445"/>
      <point x="499" y="519" type="curve" smooth="yes"/>
      <point x="499" y="604"/>
      <point x="424" y="669"/>
      <point x="323" y="669" type="curve" smooth="yes"/>
      <point x="219" y="669"/>
      <point x="126" y="600"/>
      <point x="112" y="502" type="curve" smooth="yes"/>
      <point x="111" y="495"/>
      <point x="111" y="488"/>
      <point x="111" y="481" type="curve" smooth="yes"/>
      <point x="111" y="436"/>
      <point x="130" y="399"/>
      <point x="164" y="373" type="curve"/>
      <point x="99" y="328"/>
      <point x="45" y="273"/>
      <point x="33" y="189" type="curve" smooth="yes"/>
      <point x="32" y="179"/>
      <point x="31" y="169"/>
      <point x="31" y="159" type="curve" smooth="yes"/>
      <point x="31" y="51"/>
      <point x="115" y="-16"/>
      <point x="238" y="-16" type="curve" smooth="yes"/>
    </contour>
    <contour>
      <point x="160" y="60"/>
      <point x="115" y="97"/>
      <point x="115" y="162" type="curve" smooth="yes"/>
      <point x="115" y="169"/>
      <point x="116" y="176"/>
      <point x="117" y="184" type="curve" smooth="yes"/>
      <point x="125" y="241"/>
      <point x="154" y="272"/>
      <point x="238" y="335" type="curve"/>
      <point x="254" y="333" type="line" smooth="yes"/>
      <point x="342" y="308"/>
      <point x="409" y="285"/>
      <point x="409" y="210" type="curve" smooth="yes"/>
      <point x="409" y="204"/>
      <point x="409" y="198"/>
      <point x="408" y="191" type="curve" smooth="yes"/>
      <point x="397" y="112"/>
      <point x="334" y="60"/>
      <point x="240" y="60" type="curve" smooth="yes"/>
    </contour>
    <contour>
      <point x="320" y="396" type="line"/>
      <point x="256" y="416" type="line" smooth="yes"/>
      <point x="218" y="429"/>
      <point x="194" y="445"/>
      <point x="194" y="481" type="curve" smooth="yes"/>
      <point x="194" y="544"/>
      <point x="250" y="592"/>
      <point x="322" y="592" type="curve" smooth="yes"/>
      <point x="379" y="592"/>
      <point x="416" y="560"/>
      <point x="416" y="515" type="curve" smooth="yes"/>
      <point x="416" y="459"/>
      <point x="376" y="429"/>
      <point x="325" y="395" type="curve"/>
    </contour>
  </outline>
</glyph>
<glyph name="nine" format="1">
  <advance width="583"/>
  <unicode hex="0039"/>
  <outline>
    <contour>
      <point x="192" y="-40"/>
      <point x="302" y="7"/>
      <point x="387" y="86" type="curve" smooth="yes"/>
      <point x="460" y="159"/>
      <point x="517" y="260"/>
      <point x="532" y="365" type="curve" smooth="yes"/>
      <point x="535" y="383"/>
      <point x="536" y="400"/>
      <point x="536" y="417" type="curve" smooth="yes"/>
      <point x="536" y="551"/>
      <point x="457" y="652"/>
      <point x="326" y="652" type="curve" smooth="yes"/>
      <point x="195" y="652"/>
      <point x="78" y="547"/>
      <point x="61" y="425" type="curve" smooth="yes"/>
      <point x="60" y="414"/>
      <point x="59" y="404"/>
      <point x="59" y="394" type="curve" smooth="yes"/>
      <point x="59" y="280"/>
      <point x="147" y="187"/>
      <point x="259" y="187" type="curve" smooth="yes"/>
      <point x="312" y="187"/>
      <point x="368" y="209"/>
      <point x="419" y="245" type="curve"/>
      <point x="416" y="249" type="line"/>
      <point x="385" y="194"/>
      <point x="343" y="143"/>
      <point x="287" y="106" type="curve" smooth="yes"/>
      <point x="222" y="57"/>
      <point x="150" y="36"/>
      <point x="80" y="38" type="curve"/>
      <point x="73" y="-36" type="line"/>
    </contour>
    <contour>
      <point x="188" y="261"/>
      <point x="133" y="321"/>
      <point x="133" y="396" type="curve" smooth="yes"/>
      <point x="133" y="500"/>
      <point x="228" y="578"/>
      <point x="321" y="578" type="curve" smooth="yes"/>
      <point x="400" y="578"/>
      <point x="458" y="521"/>
      <point x="458" y="447" type="curve" smooth="yes"/>
      <point x="458" y="355"/>
      <point x="370" y="261"/>
      <point x="268" y="261" type="curve" smooth="yes"/>
    </contour>
  </outline>
</glyph>
<glyph name="less" format="2">
	<advance width="425"/>
	<unicode hex="003C"/>
	<outline>
		<contour>
			<point x="298" y="73" type="line"/>
			<point x="351" y="139" type="line"/>
			<point x="182" y="270" type="line"/>
			<point x="386" y="399" type="line"/>
			<point x="349" y="464" type="line"/>
			<point x="42" y="268" type="line"/>
		</contour>
	</outline>
</glyph>
<glyph name="equal" format="1">
  <advance width="475"/>
  <unicode hex="003D"/>
  <outline>
    <contour>
      <point x="410" y="181" type="line"/>
      <point x="421" y="255" type="line"/>
      <point x="57" y="255" type="line"/>
      <point x="46" y="181" type="line"/>
    </contour>
    <contour>
      <point x="432" y="336" type="line"/>
      <point x="442" y="410" type="line"/>
      <point x="78" y="410" type="line"/>
      <point x="68" y="336" type="line"/>
    </contour>
  </outline>
</glyph>
<glyph name="greater" format="1">
  <advance width="407"/>
  <unicode hex="003E"/>
  <outline>
    <contour>
      <point x="375" y="268" type="line"/>
      <point x="119" y="464" type="line"/>
      <point x="65" y="397" type="line"/>
      <point x="234" y="266" type="line"/>
      <point x="30" y="137" type="line"/>
      <point x="68" y="72" type="line"/>
    </contour>
  </outline>
</glyph>
<glyph name="question" format="1">
  <advance width="479"/>
  <unicode hex="003F"/>
  <outline>
    <contour>
      <point x="186" y="146" type="line"/>
      <point x="185" y="155"/>
      <point x="185" y="163"/>
      <point x="185" y="171" type="curve" smooth="yes"/>
      <point x="185" y="178"/>
      <point x="185" y="186"/>
      <point x="186" y="192" type="curve" smooth="yes"/>
      <point x="193" y="246"/>
      <point x="238" y="264"/>
      <point x="317" y="307" type="curve" smooth="yes"/>
      <point x="354" y="330"/>
      <point x="401" y="357"/>
      <point x="433" y="408" type="curve" smooth="yes"/>
      <point x="450" y="439"/>
      <point x="457" y="469"/>
      <point x="460" y="491" type="curve" smooth="yes"/>
      <point x="461" y="502"/>
      <point x="462" y="512"/>
      <point x="462" y="522" type="curve" smooth="yes"/>
      <point x="462" y="623"/>
      <point x="393" y="705"/>
      <point x="285" y="705" type="curve" smooth="yes"/>
      <point x="208" y="705"/>
      <point x="76" y="661"/>
      <point x="76" y="558" type="curve" smooth="yes"/>
      <point x="76" y="514"/>
      <point x="105" y="480"/>
      <point x="162" y="480" type="curve" smooth="yes"/>
      <point x="170" y="480"/>
      <point x="171" y="481"/>
      <point x="176" y="481" type="curve"/>
      <point x="169" y="554" type="line"/>
      <point x="161" y="554"/>
      <point x="149" y="553"/>
      <point x="149" y="565" type="curve" smooth="yes"/>
      <point x="154" y="601"/>
      <point x="224" y="630"/>
      <point x="276" y="630" type="curve" smooth="yes"/>
      <point x="346" y="630"/>
      <point x="390" y="575"/>
      <point x="390" y="518" type="curve" smooth="yes"/>
      <point x="390" y="490"/>
      <point x="378" y="463"/>
      <point x="361" y="441" type="curve" smooth="yes"/>
      <point x="335" y="401"/>
      <point x="295" y="379"/>
      <point x="253" y="359" type="curve" smooth="yes"/>
      <point x="186" y="322"/>
      <point x="126" y="290"/>
      <point x="113" y="199" type="curve" smooth="yes"/>
      <point x="112" y="189"/>
      <point x="111" y="180"/>
      <point x="111" y="172" type="curve" smooth="yes"/>
      <point x="111" y="159"/>
      <point x="112" y="147"/>
      <point x="114" y="134" type="curve"/>
    </contour>
    <contour>
      <point x="181" y="-15"/>
      <point x="211" y="16"/>
      <point x="211" y="47" type="curve" smooth="yes"/>
      <point x="211" y="75"/>
      <point x="187" y="101"/>
      <point x="158" y="101" type="curve" smooth="yes"/>
      <point x="128" y="101"/>
      <point x="96" y="71"/>
      <point x="96" y="40" type="curve" smooth="yes"/>
      <point x="96" y="10"/>
      <point x="120" y="-15"/>
      <point x="150" y="-15" type="curve" smooth="yes"/>
    </contour>
  </outline>
</glyph>
<glyph name="at" format="1">
  <advance width="712"/>
  <unicode hex="0040"/>
  <outline>
    <contour>
      <point x="358" y="-59"/>
      <point x="441" y="-51"/>
      <point x="527" y="-9" type="curve"/>
      <point x="510" y="60" type="line"/>
      <point x="465" y="30"/>
      <point x="389" y="11"/>
      <point x="318" y="11" type="curve" smooth="yes"/>
      <point x="185" y="11"/>
      <point x="114" y="78"/>
      <point x="114" y="192" type="curve" smooth="yes"/>
      <point x="114" y="206"/>
      <point x="115" y="221"/>
      <point x="117" y="236" type="curve" smooth="yes"/>
      <point x="137" y="379"/>
      <point x="237" y="485"/>
      <point x="382" y="485" type="curve" smooth="yes"/>
      <point x="499" y="485"/>
      <point x="574" y="415"/>
      <point x="574" y="308" type="curve" smooth="yes"/>
      <point x="574" y="296"/>
      <point x="573" y="284"/>
      <point x="571" y="272" type="curve" smooth="yes"/>
      <point x="561" y="202"/>
      <point x="527" y="151"/>
      <point x="479" y="151" type="curve" smooth="yes"/>
      <point x="455" y="151"/>
      <point x="441" y="165"/>
      <point x="440" y="198" type="curve"/>
      <point x="470" y="412" type="line"/>
      <point x="415" y="412" type="line"/>
      <point x="383" y="414" type="line"/>
      <point x="376" y="415"/>
      <point x="363" y="417"/>
      <point x="348" y="417" type="curve" smooth="yes"/>
      <point x="276" y="417"/>
      <point x="183" y="350"/>
      <point x="183" y="234" type="curve" smooth="yes"/>
      <point x="183" y="158"/>
      <point x="230" y="97"/>
      <point x="298" y="97" type="curve" smooth="yes"/>
      <point x="328" y="97"/>
      <point x="360" y="110"/>
      <point x="388" y="134" type="curve"/>
      <point x="401" y="101"/>
      <point x="436" y="84"/>
      <point x="479" y="84" type="curve" smooth="yes"/>
      <point x="567" y="84"/>
      <point x="630" y="154"/>
      <point x="645" y="263" type="curve" smooth="yes"/>
      <point x="647" y="278"/>
      <point x="648" y="293"/>
      <point x="648" y="307" type="curve" smooth="yes"/>
      <point x="648" y="452"/>
      <point x="546" y="554"/>
      <point x="383" y="554" type="curve" smooth="yes"/>
      <point x="204" y="554"/>
      <point x="68" y="428"/>
      <point x="42" y="245" type="curve" smooth="yes"/>
      <point x="39" y="226"/>
      <point x="38" y="208"/>
      <point x="38" y="191" type="curve" smooth="yes"/>
      <point x="38" y="30"/>
      <point x="150" y="-59"/>
      <point x="309" y="-59" type="curve" smooth="yes"/>
    </contour>
    <contour>
      <point x="263" y="169"/>
      <point x="254" y="203"/>
      <point x="254" y="234" type="curve" smooth="yes"/>
      <point x="254" y="299"/>
      <point x="294" y="345"/>
      <point x="346" y="345" type="curve" smooth="yes"/>
      <point x="388" y="345" type="line"/>
      <point x="370" y="223" type="line"/>
      <point x="363" y="212" type="line" smooth="yes"/>
      <point x="352" y="194"/>
      <point x="333" y="169"/>
      <point x="300" y="169" type="curve" smooth="yes"/>
    </contour>
  </outline>
</glyph>
<glyph name="A" format="2">
	<advance width="753"/>
	<unicode hex="0041"/>
	<anchor x="696" y="-1" name="ogonek"/>
	<anchor x="384" y="11" name="bottom"/>
	<anchor x="478" y="684" name="top"/>
	<outline>
		<contour>
			<point x="92" y="-4" type="curve" smooth="yes"/>
			<point x="126" y="-4"/>
			<point x="167" y="16"/>
			<point x="187" y="53" type="curve" smooth="yes"/>
			<point x="279" y="220" type="line"/>
			<point x="550" y="220" type="line"/>
			<point x="611" y="-1" type="line"/>
			<point x="696" y="-1" type="line"/>
			<point x="495" y="688" type="line"/>
			<point x="461" y="688" type="line"/>
			<point x="117" y="90" type="line" smooth="yes"/>
			<point x="112" y="81"/>
			<point x="108" y="76"/>
			<point x="96" y="76" type="curve" smooth="yes"/>
			<point x="82" y="76"/>
			<point x="79" y="85"/>
			<point x="79" y="102" type="curve"/>
			<point x="1" y="91" type="line"/>
			<point x="-5" y="39"/>
			<point x="40" y="-4"/>
		</contour>
		<contour>
			<point x="323" y="298" type="line"/>
			<point x="459" y="543" type="line"/>
			<point x="457" y="540" type="line"/>
			<point x="458" y="543" type="line"/>
			<point x="459" y="542" type="line"/>
			<point x="527" y="298" type="line"/>
		</contour>
	</outline>
</glyph>
<glyph name="B" format="2">
	<advance width="629"/>
	<unicode hex="0042"/>
	<outline>
		<contour>
			<point x="285" y="-10" type="curve" smooth="yes"/>
			<point x="436" y="-10"/>
			<point x="557" y="48"/>
			<point x="576" y="184" type="curve" smooth="yes"/>
			<point x="577" y="195"/>
			<point x="578" y="205"/>
			<point x="578" y="215" type="curve" smooth="yes"/>
			<point x="578" y="283"/>
			<point x="547" y="337"/>
			<point x="491" y="368" type="curve"/>
			<point x="462" y="379" type="line"/>
			<point x="461" y="356" type="line"/>
			<point x="486" y="363"/>
			<point x="493" y="368"/>
			<point x="495" y="367" type="curve"/>
			<point x="552" y="396"/>
			<point x="593" y="459"/>
			<point x="593" y="534" type="curve" smooth="yes"/>
			<point x="593" y="631"/>
			<point x="516" y="697"/>
			<point x="409" y="697" type="curve" smooth="yes"/>
			<point x="193" y="697" type="line" smooth="yes"/>
			<point x="163" y="697"/>
			<point x="134" y="684"/>
			<point x="109" y="665" type="curve" smooth="yes"/>
			<point x="89" y="645"/>
			<point x="73" y="617"/>
			<point x="69" y="589" type="curve" smooth="yes"/>
			<point x="68" y="582"/>
			<point x="68" y="578"/>
			<point x="68" y="574" type="curve"/>
			<point x="133" y="572" type="line"/>
			<point x="147" y="581" type="line"/>
			<point x="147" y="589"/>
			<point x="152" y="601"/>
			<point x="162" y="607" type="curve"/>
			<point x="167" y="614"/>
			<point x="176" y="618"/>
			<point x="195" y="619" type="curve"/>
			<point x="106" y="2" type="line"/>
			<point x="169" y="-5" type="line" smooth="yes"/>
			<point x="209" y="-9"/>
			<point x="263" y="-10"/>
		</contour>
		<contour>
			<point x="292" y="66" type="curve" smooth="yes"/>
			<point x="276" y="66"/>
			<point x="272" y="67"/>
			<point x="197" y="71" type="curve"/>
			<point x="276" y="619" type="line"/>
			<point x="415" y="619" type="line"/>
			<point x="474" y="616"/>
			<point x="513" y="589"/>
			<point x="513" y="535" type="curve" smooth="yes"/>
			<point x="513" y="486"/>
			<point x="493" y="454"/>
			<point x="463" y="432" type="curve" smooth="yes"/>
			<point x="440" y="412"/>
			<point x="405" y="401"/>
			<point x="366" y="401" type="curve" smooth="yes"/>
			<point x="271" y="401" type="line"/>
			<point x="260" y="324" type="line"/>
			<point x="366" y="324" type="line" smooth="yes"/>
			<point x="442" y="324"/>
			<point x="499" y="286"/>
			<point x="499" y="214" type="curve" smooth="yes"/>
			<point x="499" y="207"/>
			<point x="498" y="200"/>
			<point x="497" y="193" type="curve" smooth="yes"/>
			<point x="484" y="101"/>
			<point x="406" y="66"/>
		</contour>
	</outline>
</glyph>
<glyph name="C" format="1">
  <advance width="748"/>
  <unicode hex="0043"/>
  <outline>
    <contour>
      <point x="465" y="-22"/>
      <point x="585" y="28"/>
      <point x="666" y="133" type="curve"/>
      <point x="606" y="180" type="line"/>
      <point x="549" y="103"/>
      <point x="458" y="55"/>
      <point x="361" y="55" type="curve" smooth="yes"/>
      <point x="221" y="55"/>
      <point x="127" y="159"/>
      <point x="127" y="291" type="curve" smooth="yes"/>
      <point x="127" y="305"/>
      <point x="128" y="319"/>
      <point x="130" y="333" type="curve" smooth="yes"/>
      <point x="152" y="493"/>
      <point x="300" y="635"/>
      <point x="456" y="635" type="curve" smooth="yes"/>
      <point x="502" y="635"/>
      <point x="564" y="624"/>
      <point x="593" y="591" type="curve" smooth="yes"/>
      <point x="598" y="581"/>
      <point x="601" y="574"/>
      <point x="601" y="566" type="curve" smooth="yes"/>
      <point x="600" y="559" type="line" smooth="yes"/>
      <point x="598" y="542"/>
      <point x="585" y="528"/>
      <point x="573" y="528" type="curve" smooth="yes"/>
      <point x="568" y="528"/>
      <point x="563" y="530"/>
      <point x="552" y="539" type="curve"/>
      <point x="501" y="482" type="line"/>
      <point x="516" y="465"/>
      <point x="541" y="452"/>
      <point x="569" y="452" type="curve" smooth="yes"/>
      <point x="626" y="452"/>
      <point x="676" y="506"/>
      <point x="676" y="566" type="curve" smooth="yes"/>
      <point x="676" y="586"/>
      <point x="671" y="605"/>
      <point x="662" y="620" type="curve" smooth="yes"/>
      <point x="629" y="687"/>
      <point x="528" y="711"/>
      <point x="458" y="711" type="curve" smooth="yes"/>
      <point x="268" y="711"/>
      <point x="83" y="540"/>
      <point x="55" y="341" type="curve" smooth="yes"/>
      <point x="52" y="323"/>
      <point x="51" y="306"/>
      <point x="51" y="289" type="curve" smooth="yes"/>
      <point x="51" y="116"/>
      <point x="177" y="-22"/>
      <point x="357" y="-22" type="curve" smooth="yes"/>
    </contour>
    <contour>
      <point x="439" y="703" type="move" name="top"/>
    </contour>
    <contour>
      <point x="339" y="-9" type="move" name="bottom"/>
    </contour>
  </outline>
</glyph>
<glyph name="D" format="2">
	<advance width="785"/>
	<unicode hex="0044"/>
	<anchor x="236" y="361" name="center"/>
	<anchor x="467" y="675" name="top"/>
	<outline>
		<contour>
			<point x="275" y="-9" type="curve" smooth="yes"/>
			<point x="552" y="-9"/>
			<point x="718" y="93"/>
			<point x="751" y="326" type="curve" smooth="yes"/>
			<point x="754" y="349"/>
			<point x="756" y="372"/>
			<point x="756" y="393" type="curve" smooth="yes"/>
			<point x="756" y="565"/>
			<point x="654" y="676"/>
			<point x="481" y="691" type="curve"/>
			<point x="190" y="692" type="line" smooth="yes"/>
			<point x="159" y="692"/>
			<point x="128" y="678"/>
			<point x="106" y="662" type="curve" smooth="yes"/>
			<point x="77" y="634"/>
			<point x="65" y="600"/>
			<point x="63" y="569" type="curve"/>
			<point x="130" y="567" type="line"/>
			<point x="143" y="577" type="line"/>
			<point x="143" y="582"/>
			<point x="146" y="593"/>
			<point x="157" y="599" type="curve"/>
			<point x="163" y="608"/>
			<point x="177" y="613"/>
			<point x="192" y="614" type="curve"/>
			<point x="104" y="1" type="line"/>
			<point x="132" y="-3" type="line"/>
			<point x="133" y="-3" type="line"/>
			<point x="162" y="-5" type="line" smooth="yes"/>
			<point x="172" y="-6"/>
			<point x="225" y="-9"/>
		</contour>
		<contour>
			<point x="346" y="66" type="curve" smooth="yes"/>
			<point x="318" y="66"/>
			<point x="231" y="69"/>
			<point x="195" y="71" type="curve"/>
			<point x="273" y="614" type="line"/>
			<point x="463" y="614" type="line"/>
			<point x="597" y="608"/>
			<point x="675" y="525"/>
			<point x="675" y="395" type="curve" smooth="yes"/>
			<point x="675" y="379"/>
			<point x="674" y="361"/>
			<point x="671" y="343" type="curve" smooth="yes"/>
			<point x="646" y="165"/>
			<point x="517" y="66"/>
		</contour>
	</outline>
</glyph>
<glyph name="E" format="2">
	<advance width="630"/>
	<unicode hex="0045"/>
	<anchor x="552" y="-1" name="ogonek"/>
	<anchor x="330" y="11" name="bottom"/>
	<anchor x="414" y="675" name="top"/>
	<outline>
		<contour>
			<point x="94" y="-1" type="line"/>
			<point x="552" y="-1" type="line"/>
			<point x="563" y="78" type="line"/>
			<point x="188" y="78" type="line"/>
			<point x="222" y="322" type="line"/>
			<point x="481" y="322" type="line"/>
			<point x="492" y="401" type="line"/>
			<point x="233" y="401" type="line"/>
			<point x="262" y="609" type="line"/>
			<point x="637" y="609" type="line"/>
			<point x="648" y="686" type="line"/>
			<point x="187" y="686" type="line" smooth="yes"/>
			<point x="155" y="686"/>
			<point x="127" y="672"/>
			<point x="104" y="655" type="curve"/>
			<point x="81" y="632"/>
			<point x="63" y="600"/>
			<point x="63" y="569" type="curve" smooth="yes"/>
			<point x="63" y="567"/>
			<point x="63" y="565"/>
			<point x="62" y="563" type="curve"/>
			<point x="138" y="559" type="line"/>
			<point x="138" y="563"/>
			<point x="139" y="567"/>
			<point x="139" y="569" type="curve" smooth="yes"/>
			<point x="141" y="581"/>
			<point x="148" y="591"/>
			<point x="156" y="595" type="curve"/>
			<point x="162" y="603"/>
			<point x="168" y="608"/>
			<point x="181" y="608" type="curve"/>
		</contour>
	</outline>
</glyph>
<glyph name="F" format="1">
  <advance width="620"/>
  <unicode hex="0046"/>
  <outline>
    <contour>
      <point x="177" y="-1" type="line"/>
      <point x="222" y="322" type="line"/>
      <point x="481" y="322" type="line"/>
      <point x="492" y="400" type="line"/>
      <point x="233" y="400" type="line"/>
      <point x="262" y="608" type="line"/>
      <point x="637" y="608" type="line"/>
      <point x="648" y="685" type="line"/>
      <point x="187" y="685" type="line" smooth="yes"/>
      <point x="157" y="685"/>
      <point x="128" y="673"/>
      <point x="104" y="654" type="curve" smooth="yes"/>
      <point x="83" y="633"/>
      <point x="67" y="605"/>
      <point x="63" y="577" type="curve" smooth="yes"/>
      <point x="62" y="570"/>
      <point x="62" y="566"/>
      <point x="62" y="562" type="curve"/>
      <point x="138" y="558" type="line"/>
      <point x="138" y="562"/>
      <point x="138" y="566"/>
      <point x="139" y="568" type="curve" smooth="yes"/>
      <point x="140" y="580"/>
      <point x="148" y="590"/>
      <point x="156" y="594" type="curve"/>
      <point x="161" y="602"/>
      <point x="168" y="607"/>
      <point x="181" y="607" type="curve"/>
      <point x="94" y="-1" type="line"/>
    </contour>
  </outline>
</glyph>
<glyph name="G" format="1">
  <advance width="758"/>
  <unicode hex="0047"/>
  <outline>
    <contour>
      <point x="548" y="-263"/>
      <point x="609" y="-230"/>
      <point x="618" y="-164" type="curve" smooth="yes"/>
      <point x="685" y="317" type="line"/>
      <point x="606" y="317" type="line"/>
      <point x="594" y="231" type="line"/>
      <point x="565" y="128"/>
      <point x="469" y="45"/>
      <point x="352" y="45" type="curve" smooth="yes"/>
      <point x="220" y="45"/>
      <point x="126" y="151"/>
      <point x="126" y="284" type="curve" smooth="yes"/>
      <point x="126" y="297"/>
      <point x="127" y="311"/>
      <point x="129" y="325" type="curve" smooth="yes"/>
      <point x="151" y="485"/>
      <point x="298" y="627"/>
      <point x="451" y="627" type="curve" smooth="yes"/>
      <point x="504" y="627"/>
      <point x="595" y="609"/>
      <point x="595" y="561" type="curve" smooth="yes"/>
      <point x="595" y="541"/>
      <point x="581" y="524"/>
      <point x="567" y="524" type="curve" smooth="yes"/>
      <point x="563" y="524"/>
      <point x="559" y="525"/>
      <point x="547" y="534" type="curve"/>
      <point x="495" y="477" type="line"/>
      <point x="510" y="459"/>
      <point x="537" y="449"/>
      <point x="563" y="449" type="curve" smooth="yes"/>
      <point x="619" y="449"/>
      <point x="671" y="500"/>
      <point x="671" y="565" type="curve" smooth="yes"/>
      <point x="671" y="669"/>
      <point x="534" y="704"/>
      <point x="453" y="704" type="curve" smooth="yes"/>
      <point x="269" y="704"/>
      <point x="81" y="531"/>
      <point x="54" y="334" type="curve" smooth="yes"/>
      <point x="52" y="317"/>
      <point x="50" y="300"/>
      <point x="50" y="284" type="curve" smooth="yes"/>
      <point x="50" y="114"/>
      <point x="172" y="-31"/>
      <point x="350" y="-31" type="curve" smooth="yes"/>
      <point x="427" y="-31"/>
      <point x="506" y="-3"/>
      <point x="571" y="57" type="curve"/>
      <point x="540" y="-159" type="line"/>
      <point x="536" y="-170"/>
      <point x="524" y="-183"/>
      <point x="509" y="-183" type="curve" smooth="yes"/>
      <point x="498" y="-183"/>
      <point x="498" y="-180"/>
      <point x="491" y="-165" type="curve"/>
      <point x="421" y="-206" type="line"/>
      <point x="432" y="-238"/>
      <point x="466" y="-263"/>
      <point x="505" y="-263" type="curve" smooth="yes"/>
    </contour>
    <contour>
      <point x="450" y="689" type="move" name="top"/>
    </contour>
    <contour>
      <point x="348" y="-16" type="move" name="bottom"/>
    </contour>
  </outline>
</glyph>
<glyph name="H" format="1">
  <advance width="709"/>
  <unicode hex="0048"/>
  <outline>
    <contour>
      <point x="171" y="-1" type="line"/>
      <point x="215" y="317" type="line"/>
      <point x="550" y="317" type="line"/>
      <point x="506" y="-1" type="line"/>
      <point x="588" y="-1" type="line"/>
      <point x="684" y="686" type="line"/>
      <point x="602" y="686" type="line"/>
      <point x="561" y="395" type="line"/>
      <point x="226" y="395" type="line"/>
      <point x="253" y="587" type="line" smooth="yes"/>
      <point x="254" y="592"/>
      <point x="254" y="597"/>
      <point x="254" y="602" type="curve" smooth="yes"/>
      <point x="254" y="655"/>
      <point x="210" y="691"/>
      <point x="161" y="691" type="curve" smooth="yes"/>
      <point x="125" y="691"/>
      <point x="89" y="671"/>
      <point x="67" y="638" type="curve"/>
      <point x="132" y="587" type="line"/>
      <point x="142" y="603"/>
      <point x="147" y="608"/>
      <point x="158" y="608" type="curve" smooth="yes"/>
      <point x="166" y="608"/>
      <point x="171" y="603"/>
      <point x="171" y="594" type="curve" smooth="yes"/>
      <point x="171" y="591" type="line"/>
      <point x="88" y="-1" type="line"/>
    </contour>
    <contour>
      <point x="399" y="355" type="move" name="center"/>
    </contour>
    <contour>
      <point x="442" y="675" type="move" name="top"/>
    </contour>
  </outline>
</glyph>
<glyph name="I" format="1">
  <advance width="228"/>
  <unicode hex="0049"/>
  <outline>
    <contour>
      <point x="103" y="-1" type="line"/>
      <point x="199" y="686" type="line"/>
      <point x="117" y="686" type="line"/>
      <point x="21" y="-1" type="line"/>
    </contour>
    <contour>
      <point x="92" y="10" type="move" name="ogonek"/>
    </contour>
    <contour>
      <point x="63" y="10" type="move" name="bottom"/>
    </contour>
    <contour>
      <point x="155" y="675" type="move" name="top"/>
    </contour>
  </outline>
</glyph>
<glyph name="J" format="1">
  <advance width="484"/>
  <unicode hex="004A"/>
  <outline>
    <contour>
      <point x="313" y="-4"/>
      <point x="381" y="95"/>
      <point x="395" y="194" type="curve" smooth="yes"/>
      <point x="465" y="689" type="line"/>
      <point x="398" y="689" type="line"/>
      <point x="384" y="676" type="line"/>
      <point x="386" y="684"/>
      <point x="386" y="682"/>
      <point x="371" y="674" type="curve"/>
      <point x="372" y="674" type="line"/>
      <point x="358" y="667"/>
      <point x="350" y="663"/>
      <point x="339" y="663" type="curve" smooth="yes"/>
      <point x="329" y="663"/>
      <point x="315" y="666"/>
      <point x="292" y="673" type="curve" smooth="yes"/>
      <point x="234" y="695"/>
      <point x="224" y="698"/>
      <point x="205" y="698" type="curve" smooth="yes"/>
      <point x="179" y="698"/>
      <point x="156" y="693"/>
      <point x="85" y="665" type="curve"/>
      <point x="114" y="594" type="line"/>
      <point x="143" y="601"/>
      <point x="175" y="620"/>
      <point x="202" y="620" type="curve" smooth="yes"/>
      <point x="227" y="620"/>
      <point x="248" y="601"/>
      <point x="287" y="593" type="curve" smooth="yes"/>
      <point x="296" y="590"/>
      <point x="313" y="585"/>
      <point x="334" y="585" type="curve" smooth="yes"/>
      <point x="345" y="585"/>
      <point x="360" y="586"/>
      <point x="374" y="591" type="curve"/>
      <point x="317" y="201" type="line" smooth="yes"/>
      <point x="309" y="143"/>
      <point x="274" y="74"/>
      <point x="188" y="74" type="curve" smooth="yes"/>
      <point x="129" y="74"/>
      <point x="98" y="106"/>
      <point x="98" y="159" type="curve" smooth="yes"/>
      <point x="98" y="168"/>
      <point x="99" y="178"/>
      <point x="101" y="189" type="curve"/>
      <point x="25" y="199" type="line"/>
      <point x="23" y="185"/>
      <point x="21" y="171"/>
      <point x="21" y="157" type="curve" smooth="yes"/>
      <point x="21" y="77"/>
      <point x="63" y="-4"/>
      <point x="182" y="-4" type="curve" smooth="yes"/>
    </contour>
    <contour>
      <point x="292" y="673" type="move" name="top"/>
    </contour>
  </outline>
</glyph>
<glyph name="K" format="1">
  <advance width="654"/>
  <unicode hex="004B"/>
  <outline>
    <contour>
      <point x="517" y="-8"/>
      <point x="583" y="26"/>
      <point x="586" y="102" type="curve"/>
      <point x="508" y="105" type="line"/>
      <point x="509" y="101"/>
      <point x="507" y="97"/>
      <point x="507" y="96" type="curve" smooth="yes"/>
      <point x="505" y="81"/>
      <point x="493" y="70"/>
      <point x="479" y="70" type="curve" smooth="yes"/>
      <point x="472" y="70"/>
      <point x="469" y="71"/>
      <point x="465" y="78" type="curve" smooth="yes"/>
      <point x="316" y="345" type="line"/>
      <point x="334" y="358"/>
      <point x="348" y="372"/>
      <point x="371" y="396" type="curve" smooth="yes"/>
      <point x="390" y="421"/>
      <point x="416" y="457"/>
      <point x="434" y="480" type="curve" smooth="yes"/>
      <point x="461" y="521"/>
      <point x="471" y="536"/>
      <point x="571" y="684" type="curve"/>
      <point x="470" y="688" type="line"/>
      <point x="420" y="608"/>
      <point x="396" y="568"/>
      <point x="370" y="534" type="curve" smooth="yes"/>
      <point x="347" y="499"/>
      <point x="317" y="459"/>
      <point x="291" y="434" type="curve" smooth="yes"/>
      <point x="276" y="416"/>
      <point x="267" y="407"/>
      <point x="243" y="398" type="curve" smooth="yes"/>
      <point x="231" y="391"/>
      <point x="213" y="385"/>
      <point x="185" y="384" type="curve" smooth="yes"/>
      <point x="157" y="383" type="line"/>
      <point x="199" y="686" type="line"/>
      <point x="117" y="686" type="line"/>
      <point x="21" y="0" type="line"/>
      <point x="105" y="0" type="line"/>
      <point x="149" y="303" type="line"/>
      <point x="194" y="302"/>
      <point x="213" y="304"/>
      <point x="241" y="311" type="curve"/>
      <point x="398" y="36" type="line" smooth="yes"/>
      <point x="411" y="10"/>
      <point x="442" y="-8"/>
      <point x="474" y="-8" type="curve" smooth="yes"/>
    </contour>
    <contour>
      <point x="387" y="675" type="move" name="top"/>
    </contour>
    <contour>
      <point x="293" y="11" type="move" name="bottom"/>
    </contour>
  </outline>
</glyph>
<glyph name="L" format="2">
	<advance width="510"/>
	<unicode hex="004C"/>
	<anchor x="353" y="675" name="top"/>
	<anchor x="259" y="11" name="bottom"/>
	<outline>
		<contour>
			<point x="51" y="-1" type="line"/>
			<point x="450" y="-1" type="line"/>
			<point x="461" y="78" type="line"/>
			<point x="144" y="78" type="line"/>
			<point x="229" y="686" type="line"/>
			<point x="147" y="686" type="line"/>
		</contour>
	</outline>
</glyph>
<glyph name="M" format="1">
  <advance width="1045"/>
  <unicode hex="004D"/>
  <outline>
    <contour>
      <point x="123" y="-7"/>
      <point x="165" y="27"/>
      <point x="180" y="69" type="curve" smooth="yes"/>
      <point x="345" y="553" type="line"/>
      <point x="345" y="554" type="line"/>
      <point x="339" y="538" type="line"/>
      <point x="338" y="552" type="line"/>
      <point x="339" y="551" type="line"/>
      <point x="461" y="-1" type="line"/>
      <point x="534" y="-1" type="line"/>
      <point x="810" y="552" type="line"/>
      <point x="811" y="553" type="line"/>
      <point x="806" y="540" type="line"/>
      <point x="805" y="555" type="line"/>
      <point x="839" y="-1" type="line"/>
      <point x="918" y="-1" type="line"/>
      <point x="873" y="686" type="line"/>
      <point x="799" y="686" type="line"/>
      <point x="514" y="125" type="line"/>
      <point x="516" y="126" type="line"/>
      <point x="514" y="124" type="line"/>
      <point x="513" y="125" type="line"/>
      <point x="387" y="686" type="line"/>
      <point x="313" y="686" type="line"/>
      <point x="104" y="85" type="line"/>
      <point x="98" y="75"/>
      <point x="93" y="70"/>
      <point x="82" y="70" type="curve" smooth="yes"/>
      <point x="71" y="70"/>
      <point x="70" y="73"/>
      <point x="63" y="91" type="curve"/>
      <point x="-9" y="66" type="line"/>
      <point x="-4" y="29"/>
      <point x="32" y="-7"/>
      <point x="79" y="-7" type="curve" smooth="yes"/>
    </contour>
  </outline>
</glyph>
<glyph name="N" format="1">
  <advance width="787"/>
  <unicode hex="004E"/>
  <outline>
    <contour>
      <point x="122" y="-4"/>
      <point x="189" y="26"/>
      <point x="198" y="92" type="curve" smooth="yes"/>
      <point x="256" y="539" type="line"/>
      <point x="250" y="550" type="line"/>
      <point x="635" y="-1" type="line"/>
      <point x="669" y="-1" type="line"/>
      <point x="765" y="685" type="line"/>
      <point x="684" y="685" type="line"/>
      <point x="617" y="177" type="line"/>
      <point x="622" y="164" type="line"/>
      <point x="345" y="561" type="line"/>
      <point x="252" y="686" type="line"/>
      <point x="199" y="686" type="line"/>
      <point x="116" y="96" type="line" smooth="yes"/>
      <point x="115" y="86"/>
      <point x="102" y="73"/>
      <point x="88" y="73" type="curve" smooth="yes"/>
      <point x="80" y="73"/>
      <point x="72" y="79"/>
      <point x="72" y="88" type="curve" smooth="yes"/>
      <point x="72" y="91" type="line" smooth="yes"/>
      <point x="72" y="96"/>
      <point x="75" y="100"/>
      <point x="77" y="104" type="curve"/>
      <point x="-3" y="108" type="line"/>
      <point x="-5" y="104"/>
      <point x="-4" y="100"/>
      <point x="-4" y="98" type="curve" smooth="yes"/>
      <point x="-5" y="94"/>
      <point x="-5" y="89"/>
      <point x="-5" y="85" type="curve" smooth="yes"/>
      <point x="-5" y="36"/>
      <point x="35" y="-4"/>
      <point x="82" y="-4" type="curve" smooth="yes"/>
    </contour>
    <contour>
      <point x="482" y="675" type="move" name="top"/>
    </contour>
    <contour>
      <point x="389" y="11" type="move" name="bottom"/>
    </contour>
  </outline>
</glyph>
<glyph name="O" format="2">
	<advance width="787"/>
	<unicode hex="004F"/>
	<anchor x="614" y="76" name="ogonek"/>
	<anchor x="452" y="708" name="top"/>
	<anchor x="712" y="525" name="horn"/>
	<anchor x="358" y="-15" name="bottom"/>
	<outline>
		<contour>
			<point x="361" y="-27" type="curve" smooth="yes"/>
			<point x="554" y="-27"/>
			<point x="726" y="128"/>
			<point x="757" y="348" type="curve" smooth="yes"/>
			<point x="759" y="364"/>
			<point x="760" y="380"/>
			<point x="760" y="396" type="curve" smooth="yes"/>
			<point x="760" y="567"/>
			<point x="631" y="708"/>
			<point x="452" y="708" type="curve" smooth="yes"/>
			<point x="258" y="708"/>
			<point x="83" y="541"/>
			<point x="56" y="352" type="curve" smooth="yes"/>
			<point x="54" y="333" type="line" smooth="yes"/>
			<point x="29" y="137"/>
			<point x="165" y="-27"/>
		</contour>
		<contour>
			<point x="361" y="44" type="curve" smooth="yes"/>
			<point x="213" y="44"/>
			<point x="109" y="175"/>
			<point x="131" y="329" type="curve" smooth="yes"/>
			<point x="134" y="348" type="line" smooth="yes"/>
			<point x="155" y="496"/>
			<point x="294" y="637"/>
			<point x="449" y="637" type="curve" smooth="yes"/>
			<point x="581" y="637"/>
			<point x="683" y="531"/>
			<point x="683" y="394" type="curve" smooth="yes"/>
			<point x="683" y="380"/>
			<point x="682" y="366"/>
			<point x="680" y="352" type="curve" smooth="yes"/>
			<point x="655" y="177"/>
			<point x="518" y="44"/>
		</contour>
	</outline>
</glyph>
<glyph name="P" format="1">
  <advance width="621"/>
  <unicode hex="0050"/>
  <outline>
    <contour>
      <point x="187" y="-1" type="line"/>
      <point x="272" y="609" type="line"/>
      <point x="390" y="609" type="line"/>
      <point x="459" y="606"/>
      <point x="502" y="576"/>
      <point x="502" y="504" type="curve" smooth="yes"/>
      <point x="502" y="494"/>
      <point x="502" y="483"/>
      <point x="500" y="472" type="curve" smooth="yes"/>
      <point x="485" y="366"/>
      <point x="418" y="327"/>
      <point x="326" y="327" type="curve" smooth="yes"/>
      <point x="311" y="327"/>
      <point x="283" y="329"/>
      <point x="247" y="331" type="curve"/>
      <point x="241" y="255" type="line"/>
      <point x="272" y="251"/>
      <point x="303" y="249"/>
      <point x="327" y="249" type="curve" smooth="yes"/>
      <point x="442" y="249"/>
      <point x="558" y="316"/>
      <point x="579" y="465" type="curve" smooth="yes"/>
      <point x="581" y="479"/>
      <point x="582" y="493"/>
      <point x="582" y="507" type="curve" smooth="yes"/>
      <point x="582" y="609"/>
      <point x="522" y="686"/>
      <point x="411" y="686" type="curve" smooth="yes"/>
      <point x="187" y="686" type="line" smooth="yes"/>
      <point x="155" y="686"/>
      <point x="127" y="672"/>
      <point x="104" y="655" type="curve"/>
      <point x="81" y="632"/>
      <point x="63" y="600"/>
      <point x="63" y="569" type="curve" smooth="yes"/>
      <point x="63" y="567"/>
      <point x="63" y="565"/>
      <point x="62" y="563" type="curve"/>
      <point x="138" y="559" type="line"/>
      <point x="139" y="579"/>
      <point x="146" y="588"/>
      <point x="157" y="595" type="curve"/>
      <point x="165" y="605"/>
      <point x="168" y="608"/>
      <point x="191" y="609" type="curve"/>
      <point x="104" y="-1" type="line"/>
    </contour>
  </outline>
</glyph>
<glyph name="Q" format="1">
  <advance width="788"/>
  <unicode hex="0051"/>
  <outline>
    <contour>
      <point x="219" y="-137" type="line"/>
      <point x="304" y="-165" type="line" smooth="yes"/>
      <point x="347" y="-180"/>
      <point x="382" y="-188"/>
      <point x="431" y="-188" type="curve" smooth="yes"/>
      <point x="467" y="-188"/>
      <point x="497" y="-184"/>
      <point x="563" y="-139" type="curve"/>
      <point x="531" y="-74" type="line"/>
      <point x="482" y="-107"/>
      <point x="461" y="-114"/>
      <point x="428" y="-114" type="curve" smooth="yes"/>
      <point x="399" y="-114"/>
      <point x="363" y="-109"/>
      <point x="328" y="-96" type="curve" smooth="yes"/>
      <point x="271" y="-74" type="line"/>
      <point x="325" y="-9" type="line"/>
      <point x="346" y="-10" type="line"/>
      <point x="545" y="-10"/>
      <point x="704" y="138"/>
      <point x="732" y="338" type="curve" smooth="yes"/>
      <point x="735" y="358"/>
      <point x="736" y="378"/>
      <point x="736" y="398" type="curve" smooth="yes"/>
      <point x="736" y="569"/>
      <point x="623" y="696"/>
      <point x="440" y="696" type="curve" smooth="yes"/>
      <point x="243" y="696"/>
      <point x="84" y="546"/>
      <point x="56" y="347" type="curve" smooth="yes"/>
      <point x="53" y="327"/>
      <point x="52" y="307"/>
      <point x="52" y="287" type="curve" smooth="yes"/>
      <point x="52" y="155"/>
      <point x="119" y="43"/>
      <point x="248" y="5" type="curve"/>
      <point x="113" y="-152" type="line"/>
      <point x="168" y="-199" type="line"/>
    </contour>
    <contour>
      <point x="211" y="66"/>
      <point x="134" y="159"/>
      <point x="134" y="289" type="curve" smooth="yes"/>
      <point x="134" y="305"/>
      <point x="136" y="322"/>
      <point x="138" y="340" type="curve" smooth="yes"/>
      <point x="160" y="501"/>
      <point x="278" y="619"/>
      <point x="438" y="619" type="curve" smooth="yes"/>
      <point x="576" y="619"/>
      <point x="657" y="527"/>
      <point x="657" y="397" type="curve" smooth="yes"/>
      <point x="657" y="381"/>
      <point x="655" y="365"/>
      <point x="653" y="348" type="curve" smooth="yes"/>
      <point x="630" y="187"/>
      <point x="512" y="66"/>
      <point x="351" y="66" type="curve" smooth="yes"/>
    </contour>
  </outline>
</glyph>
<glyph name="R" format="1">
  <advance width="728"/>
  <unicode hex="0052"/>
  <outline>
    <contour>
      <point x="603" y="-10"/>
      <point x="659" y="35"/>
      <point x="660" y="97" type="curve"/>
      <point x="578" y="103" type="line"/>
      <point x="582" y="99"/>
      <point x="582" y="96"/>
      <point x="582" y="94" type="curve" smooth="yes"/>
      <point x="580" y="80"/>
      <point x="564" y="66"/>
      <point x="551" y="66" type="curve" smooth="yes"/>
      <point x="547" y="66"/>
      <point x="545" y="66"/>
      <point x="540" y="75" type="curve"/>
      <point x="419" y="265" type="line" smooth="yes"/>
      <point x="412" y="278"/>
      <point x="392" y="293"/>
      <point x="382" y="297" type="curve"/>
      <point x="426" y="282" type="line"/>
      <point x="391" y="281" type="line"/>
      <point x="482" y="287"/>
      <point x="567" y="361"/>
      <point x="582" y="470" type="curve" smooth="yes"/>
      <point x="584" y="481"/>
      <point x="584" y="492"/>
      <point x="584" y="503" type="curve" smooth="yes"/>
      <point x="584" y="576"/>
      <point x="551" y="639"/>
      <point x="495" y="667" type="curve" smooth="yes"/>
      <point x="477" y="678"/>
      <point x="451" y="686"/>
      <point x="416" y="686" type="curve" smooth="yes"/>
      <point x="187" y="686" type="line" smooth="yes"/>
      <point x="158" y="686"/>
      <point x="130" y="676"/>
      <point x="104" y="655" type="curve" smooth="yes"/>
      <point x="78" y="629"/>
      <point x="63" y="599"/>
      <point x="61" y="563" type="curve"/>
      <point x="138" y="559" type="line"/>
      <point x="138" y="563"/>
      <point x="139" y="567"/>
      <point x="139" y="569" type="curve" smooth="yes"/>
      <point x="142" y="591"/>
      <point x="163" y="609"/>
      <point x="182" y="609" type="curve" smooth="yes"/>
      <point x="187" y="609" type="line"/>
      <point x="102" y="-1" type="line"/>
      <point x="185" y="-1" type="line"/>
      <point x="270" y="609" type="line"/>
      <point x="406" y="609" type="line" smooth="yes"/>
      <point x="467" y="609"/>
      <point x="504" y="566"/>
      <point x="504" y="503" type="curve" smooth="yes"/>
      <point x="504" y="411"/>
      <point x="443" y="345"/>
      <point x="354" y="345" type="curve" smooth="yes"/>
      <point x="260" y="345" type="line"/>
      <point x="252" y="268" type="line"/>
      <point x="321" y="264"/>
      <point x="344" y="242"/>
      <point x="372" y="193" type="curve" smooth="yes"/>
      <point x="473" y="34" type="line" smooth="yes"/>
      <point x="489" y="7"/>
      <point x="516" y="-10"/>
      <point x="549" y="-10" type="curve" smooth="yes"/>
    </contour>
    <contour>
      <point x="384" y="675" type="move" name="top"/>
    </contour>
    <contour>
      <point x="293" y="11" type="move" name="bottom"/>
    </contour>
  </outline>
</glyph>
<glyph name="S" format="1">
  <advance width="537"/>
  <unicode hex="0053"/>
  <outline>
    <contour>
      <point x="382" y="-25"/>
      <point x="494" y="96"/>
      <point x="494" y="203" type="curve" smooth="yes"/>
      <point x="494" y="283"/>
      <point x="460" y="337"/>
      <point x="386" y="377" type="curve" smooth="yes"/>
      <point x="322" y="417"/>
      <point x="207" y="452"/>
      <point x="207" y="525" type="curve" smooth="yes"/>
      <point x="207" y="581"/>
      <point x="270" y="637"/>
      <point x="338" y="637" type="curve" smooth="yes"/>
      <point x="373" y="637"/>
      <point x="414" y="616"/>
      <point x="414" y="590" type="curve" smooth="yes"/>
      <point x="414" y="572"/>
      <point x="400" y="560"/>
      <point x="393" y="558" type="curve" smooth="yes"/>
      <point x="384" y="555"/>
      <point x="374" y="559"/>
      <point x="369" y="561" type="curve"/>
      <point x="360" y="487" type="line"/>
      <point x="367" y="486"/>
      <point x="374" y="485"/>
      <point x="383" y="485" type="curve" smooth="yes"/>
      <point x="441" y="485"/>
      <point x="490" y="534"/>
      <point x="490" y="592" type="curve" smooth="yes"/>
      <point x="490" y="639"/>
      <point x="459" y="680"/>
      <point x="402" y="696" type="curve" smooth="yes"/>
      <point x="386" y="703"/>
      <point x="363" y="708"/>
      <point x="340" y="708" type="curve" smooth="yes"/>
      <point x="234" y="708"/>
      <point x="131" y="628"/>
      <point x="131" y="517" type="curve" smooth="yes"/>
      <point x="131" y="399"/>
      <point x="264" y="355"/>
      <point x="346" y="312" type="curve" smooth="yes"/>
      <point x="388" y="286"/>
      <point x="417" y="263"/>
      <point x="417" y="200" type="curve" smooth="yes"/>
      <point x="417" y="131"/>
      <point x="343" y="45"/>
      <point x="249" y="45" type="curve" smooth="yes"/>
      <point x="174" y="45"/>
      <point x="104" y="98"/>
      <point x="84" y="184" type="curve"/>
      <point x="11" y="159" type="line"/>
      <point x="30" y="53"/>
      <point x="137" y="-25"/>
      <point x="247" y="-25" type="curve" smooth="yes"/>
    </contour>
    <contour>
      <point x="343" y="696" type="move" name="top"/>
    </contour>
    <contour>
      <point x="247" y="-25" type="move" name="bottom"/>
    </contour>
  </outline>
</glyph>
<glyph name="T" format="2">
	<advance width="609"/>
	<unicode hex="0054"/>
	<anchor x="318" y="360" name="center"/>
	<anchor x="274" y="11" name="bottom"/>
	<anchor x="373" y="675" name="top"/>
	<outline>
		<contour>
			<point x="231" y="-1" type="line"/>
			<point x="314" y="-1" type="line"/>
			<point x="399" y="608" type="line"/>
			<point x="630" y="608" type="line"/>
			<point x="641" y="686" type="line"/>
			<point x="178" y="686" type="line" smooth="yes"/>
			<point x="152" y="686"/>
			<point x="127" y="676"/>
			<point x="106" y="660" type="curve" smooth="yes"/>
			<point x="83" y="638"/>
			<point x="69" y="607"/>
			<point x="68" y="578" type="curve"/>
			<point x="150" y="575" type="line"/>
			<point x="146" y="578"/>
			<point x="147" y="581"/>
			<point x="147" y="583" type="curve" smooth="yes"/>
			<point x="148" y="595"/>
			<point x="160" y="608"/>
			<point x="174" y="608" type="curve" smooth="yes"/>
			<point x="316" y="608" type="line"/>
		</contour>
	</outline>
</glyph>
<glyph name="U" format="1">
  <advance width="760"/>
  <unicode hex="0055"/>
  <outline>
    <contour>
      <point x="562" y="-9"/>
      <point x="663" y="135"/>
      <point x="682" y="269" type="curve" smooth="yes"/>
      <point x="740" y="687" type="line"/>
      <point x="657" y="687" type="line"/>
      <point x="599" y="273" type="line" smooth="yes"/>
      <point x="585" y="175"/>
      <point x="515" y="67"/>
      <point x="378" y="67" type="curve" smooth="yes"/>
      <point x="269" y="67"/>
      <point x="219" y="135"/>
      <point x="219" y="228" type="curve" smooth="yes"/>
      <point x="219" y="241"/>
      <point x="220" y="255"/>
      <point x="222" y="269" type="curve" smooth="yes"/>
      <point x="266" y="586" type="line" smooth="yes"/>
      <point x="267" y="593"/>
      <point x="268" y="600"/>
      <point x="268" y="606" type="curve" smooth="yes"/>
      <point x="268" y="661"/>
      <point x="230" y="695"/>
      <point x="172" y="695" type="curve" smooth="yes"/>
      <point x="137" y="695"/>
      <point x="92" y="673"/>
      <point x="72" y="640" type="curve"/>
      <point x="137" y="589" type="line"/>
      <point x="143" y="605"/>
      <point x="153" y="613"/>
      <point x="170" y="613" type="curve" smooth="yes"/>
      <point x="174" y="613"/>
      <point x="184" y="613"/>
      <point x="184" y="597" type="curve" smooth="yes"/>
      <point x="184" y="590" type="line"/>
      <point x="139" y="273" type="line" smooth="yes"/>
      <point x="137" y="258"/>
      <point x="136" y="242"/>
      <point x="136" y="227" type="curve" smooth="yes"/>
      <point x="136" y="99"/>
      <point x="217" y="-9"/>
      <point x="377" y="-9" type="curve" smooth="yes"/>
    </contour>
    <contour>
      <point x="540" y="53" type="move" name="ogonek"/>
    </contour>
    <contour>
      <point x="467" y="675" type="move" name="top"/>
    </contour>
    <contour>
      <point x="705" y="531" type="move" name="horn"/>
    </contour>
    <contour>
      <point x="374" y="2" type="move" name="bottom"/>
    </contour>
  </outline>
</glyph>
<glyph name="V" format="1">
  <advance width="629"/>
  <unicode hex="0056"/>
  <outline>
    <contour>
      <point x="375" y="-1" type="line"/>
      <point x="694" y="687" type="line"/>
      <point x="610" y="687" type="line"/>
      <point x="353" y="132" type="line"/>
      <point x="254" y="634" type="line" smooth="yes"/>
      <point x="248" y="665"/>
      <point x="218" y="692"/>
      <point x="175" y="692" type="curve" smooth="yes"/>
      <point x="130" y="692"/>
      <point x="82" y="661"/>
      <point x="65" y="609" type="curve"/>
      <point x="138" y="583" type="line"/>
      <point x="143" y="601"/>
      <point x="156" y="611"/>
      <point x="170" y="611" type="curve" smooth="yes"/>
      <point x="177" y="611"/>
      <point x="181" y="609"/>
      <point x="183" y="601" type="curve" smooth="yes"/>
      <point x="301" y="-1" type="line"/>
    </contour>
  </outline>
</glyph>
<glyph name="W" format="1">
  <advance width="1056"/>
  <unicode hex="0057"/>
  <outline>
    <contour>
      <point x="371" y="-1" type="line"/>
      <point x="626" y="547" type="line"/>
      <point x="727" y="-1" type="line"/>
      <point x="801" y="-1" type="line"/>
      <point x="1121" y="687" type="line"/>
      <point x="1037" y="687" type="line"/>
      <point x="770" y="111" type="line"/>
      <point x="766" y="90" type="line"/>
      <point x="765" y="85" type="line"/>
      <point x="780" y="191" type="line"/>
      <point x="784" y="111" type="line"/>
      <point x="680" y="687" type="line"/>
      <point x="606" y="687" type="line"/>
      <point x="342" y="112" type="line"/>
      <point x="341" y="111" type="line"/>
      <point x="353" y="142" type="line"/>
      <point x="356" y="100" type="line"/>
      <point x="354" y="111" type="line"/>
      <point x="259" y="625" type="line"/>
      <point x="254" y="664"/>
      <point x="218" y="696"/>
      <point x="173" y="696" type="curve" smooth="yes"/>
      <point x="133" y="696"/>
      <point x="82" y="667"/>
      <point x="66" y="614" type="curve"/>
      <point x="138" y="588" type="line"/>
      <point x="144" y="609"/>
      <point x="156" y="617"/>
      <point x="169" y="617" type="curve" smooth="yes"/>
      <point x="176" y="617"/>
      <point x="181" y="615"/>
      <point x="184" y="604" type="curve" smooth="yes"/>
      <point x="297" y="-1" type="line"/>
    </contour>
    <contour>
      <point x="643" y="675" type="move" name="top"/>
    </contour>
  </outline>
</glyph>
<glyph name="X" format="1">
  <advance width="678"/>
  <unicode hex="0058"/>
  <outline>
    <contour>
      <point x="547" y="-7"/>
      <point x="604" y="31"/>
      <point x="611" y="98" type="curve"/>
      <point x="533" y="106" type="line"/>
      <point x="532" y="89"/>
      <point x="518" y="72"/>
      <point x="502" y="72" type="curve" smooth="yes"/>
      <point x="496" y="72"/>
      <point x="493" y="73"/>
      <point x="491" y="78" type="curve" smooth="yes"/>
      <point x="369" y="351" type="line"/>
      <point x="628" y="686" type="line"/>
      <point x="529" y="686" type="line"/>
      <point x="321" y="416" type="line"/>
      <point x="190" y="686" type="line"/>
      <point x="98" y="686" type="line"/>
      <point x="262" y="351" type="line"/>
      <point x="2" y="-1" type="line"/>
      <point x="100" y="-1" type="line"/>
      <point x="310" y="285" type="line"/>
      <point x="406" y="70" type="line" smooth="yes"/>
      <point x="423" y="26"/>
      <point x="445" y="-7"/>
      <point x="495" y="-7" type="curve" smooth="yes"/>
    </contour>
  </outline>
</glyph>
<glyph name="Y" format="1">
  <advance width="643"/>
  <unicode hex="0059"/>
  <outline>
    <contour>
      <point x="354" y="-1" type="line"/>
      <point x="396" y="298" type="line"/>
      <point x="667" y="687" type="line"/>
      <point x="571" y="687" type="line"/>
      <point x="364" y="390" type="line"/>
      <point x="260" y="641" type="line" smooth="yes"/>
      <point x="243" y="679"/>
      <point x="210" y="696"/>
      <point x="179" y="696" type="curve" smooth="yes"/>
      <point x="133" y="696"/>
      <point x="74" y="661"/>
      <point x="65" y="595" type="curve"/>
      <point x="147" y="583" type="line"/>
      <point x="145" y="587"/>
      <point x="145" y="591"/>
      <point x="145" y="593" type="curve" smooth="yes"/>
      <point x="147" y="606"/>
      <point x="160" y="615"/>
      <point x="172" y="615" type="curve" smooth="yes"/>
      <point x="178" y="615"/>
      <point x="182" y="615"/>
      <point x="187" y="607" type="curve"/>
      <point x="312" y="296" type="line"/>
      <point x="267" y="-1" type="line"/>
    </contour>
    <contour>
      <point x="402" y="675" type="move" name="top"/>
    </contour>
    <contour>
      <point x="310" y="12" type="move" name="bottom"/>
    </contour>
  </outline>
</glyph>
<glyph name="Z" format="1">
  <advance width="601"/>
  <unicode hex="005A"/>
  <outline>
    <contour>
      <point x="100" y="43" type="line"/>
      <point x="185" y="25"/>
      <point x="248" y="-14"/>
      <point x="336" y="-14" type="curve" smooth="yes"/>
      <point x="395" y="-14"/>
      <point x="449" y="6"/>
      <point x="513" y="62" type="curve"/>
      <point x="463" y="118" type="line"/>
      <point x="426" y="83"/>
      <point x="386" y="61"/>
      <point x="338" y="61" type="curve" smooth="yes"/>
      <point x="285" y="61"/>
      <point x="221" y="91"/>
      <point x="158" y="104" type="curve" smooth="yes"/>
      <point x="146" y="107" type="line"/>
      <point x="571" y="683" type="line"/>
      <point x="144" y="683" type="line"/>
      <point x="133" y="609" type="line"/>
      <point x="427" y="609" type="line"/>
      <point x="-8" y="19" type="line"/>
      <point x="52" y="-19" type="line"/>
    </contour>
    <contour>
      <point x="361" y="674" type="move" name="top"/>
    </contour>
  </outline>
</glyph>
<glyph name="bracketleft" format="2">
	<advance width="369"/>
	<unicode hex="005B"/>
	<outline>
		<contour>
			<point x="24" y="-169" type="line"/>
			<point x="278" y="-169" type="line"/>
			<point x="289" y="-91" type="line"/>
			<point x="117" y="-91" type="line"/>
			<point x="224" y="672" type="line"/>
			<point x="396" y="672" type="line"/>
			<point x="407" y="750" type="line"/>
			<point x="153" y="750" type="line"/>
		</contour>
	</outline>
</glyph>
<glyph name="backslash" format="1">
  <advance width="362"/>
  <unicode hex="005C"/>
  <outline>
    <contour>
      <point x="273" y="-68" type="line"/>
      <point x="170" y="750" type="line"/>
      <point x="84" y="750" type="line"/>
      <point x="187" y="-68" type="line"/>
    </contour>
  </outline>
</glyph>
<glyph name="bracketright" format="2">
	<advance width="369"/>
	<unicode hex="005D"/>
	<outline>
		<contour>
			<point x="-27" y="-169" type="line"/>
			<point x="227" y="-169" type="line"/>
			<point x="356" y="750" type="line"/>
			<point x="102" y="750" type="line"/>
			<point x="91" y="672" type="line"/>
			<point x="263" y="672" type="line"/>
			<point x="156" y="-91" type="line"/>
			<point x="-16" y="-91" type="line"/>
		</contour>
	</outline>
</glyph>
<glyph name="asciicircum" format="1">
  <advance width="470"/>
  <unicode hex="005E"/>
  <outline>
    <contour>
      <point x="431" y="360" type="line"/>
      <point x="287" y="619" type="line"/>
      <point x="256" y="619" type="line"/>
      <point x="40" y="360" type="line"/>
      <point x="102" y="315" type="line"/>
      <point x="256" y="499" type="line"/>
      <point x="360" y="313" type="line"/>
    </contour>
  </outline>
</glyph>
<glyph name="underscore" format="1">
  <advance width="617"/>
  <unicode hex="005F"/>
  <outline>
    <contour>
      <point x="483" y="-130" type="line"/>
      <point x="493" y="-53" type="line"/>
      <point x="43" y="-53" type="line"/>
      <point x="33" y="-130" type="line"/>
    </contour>
  </outline>
</glyph>
<glyph name="grave" format="2">
	<advance width="282"/>
	<unicode hex="0060"/>
	<anchor x="245" y="500" name="_top"/>
	<outline>
		<contour>
			<point x="245" y="560" type="line"/>
			<point x="284" y="612" type="line"/>
			<point x="130" y="747" type="line"/>
			<point x="73" y="680" type="line"/>
		</contour>
	</outline>
</glyph>
<glyph name="a" format="1">
  <advance width="572"/>
  <unicode hex="0061"/>
  <outline>
    <contour>
      <point x="269" y="-10"/>
      <point x="323" y="7"/>
      <point x="364" y="51" type="curve"/>
      <point x="374" y="18"/>
      <point x="407" y="-10"/>
      <point x="449" y="-10" type="curve" smooth="yes"/>
      <point x="477" y="-10"/>
      <point x="516" y="3"/>
      <point x="540" y="42" type="curve"/>
      <point x="480" y="89" type="line"/>
      <point x="472" y="73"/>
      <point x="464" y="66"/>
      <point x="451" y="66" type="curve" smooth="yes"/>
      <point x="444" y="66"/>
      <point x="436" y="72"/>
      <point x="436" y="83" type="curve" smooth="yes"/>
      <point x="436" y="87" type="line"/>
      <point x="495" y="507" type="line"/>
      <point x="429" y="507" type="line"/>
      <point x="394" y="512"/>
      <point x="342" y="516"/>
      <point x="310" y="516" type="curve" smooth="yes"/>
      <point x="159" y="516"/>
      <point x="51" y="405"/>
      <point x="30" y="254" type="curve" smooth="yes"/>
      <point x="27" y="237"/>
      <point x="26" y="219"/>
      <point x="26" y="203" type="curve" smooth="yes"/>
      <point x="26" y="87"/>
      <point x="87" y="-10"/>
      <point x="215" y="-10" type="curve" smooth="yes"/>
    </contour>
    <contour>
      <point x="140" y="64"/>
      <point x="105" y="129"/>
      <point x="105" y="206" type="curve" smooth="yes"/>
      <point x="105" y="220"/>
      <point x="106" y="234"/>
      <point x="108" y="248" type="curve" smooth="yes"/>
      <point x="123" y="357"/>
      <point x="193" y="442"/>
      <point x="303" y="442" type="curve" smooth="yes"/>
      <point x="330" y="442"/>
      <point x="378" y="436"/>
      <point x="410" y="434" type="curve"/>
      <point x="374" y="195" type="line" smooth="yes"/>
      <point x="371" y="173"/>
      <point x="364" y="155"/>
      <point x="353" y="141" type="curve" smooth="yes"/>
      <point x="326" y="96"/>
      <point x="279" y="64"/>
      <point x="219" y="64" type="curve" smooth="yes"/>
    </contour>
    <contour>
      <point x="516" y="22" type="move" name="ogonek"/>
    </contour>
    <contour>
      <point x="213" y="4" type="move" name="bottom"/>
    </contour>
    <contour>
      <point x="310" y="516" type="move" name="top"/>
    </contour>
  </outline>
</glyph>
<glyph name="b" format="1">
  <advance width="556"/>
  <unicode hex="0062"/>
  <outline>
    <contour>
      <point x="377" y="-10"/>
      <point x="465" y="113"/>
      <point x="484" y="249" type="curve" smooth="yes"/>
      <point x="486" y="267"/>
      <point x="488" y="284"/>
      <point x="488" y="300" type="curve" smooth="yes"/>
      <point x="488" y="427"/>
      <point x="418" y="516"/>
      <point x="301" y="516" type="curve" smooth="yes"/>
      <point x="255" y="516"/>
      <point x="203" y="501"/>
      <point x="161" y="465" type="curve"/>
      <point x="199" y="727" type="line"/>
      <point x="123" y="727" type="line"/>
      <point x="25" y="14" type="line"/>
      <point x="39" y="7"/>
      <point x="81" y="-2"/>
      <point x="101" y="-4" type="curve" smooth="yes"/>
      <point x="129" y="-8"/>
      <point x="170" y="-10"/>
      <point x="195" y="-10" type="curve" smooth="yes"/>
    </contour>
    <contour>
      <point x="185" y="63"/>
      <point x="164" y="64"/>
      <point x="145" y="67" type="curve"/>
      <point x="107" y="71" type="line"/>
      <point x="143" y="326" type="line"/>
      <point x="151" y="361"/>
      <point x="169" y="388"/>
      <point x="207" y="411" type="curve" smooth="yes"/>
      <point x="232" y="430"/>
      <point x="263" y="442"/>
      <point x="296" y="442" type="curve" smooth="yes"/>
      <point x="361" y="442"/>
      <point x="410" y="392"/>
      <point x="410" y="299" type="curve" smooth="yes"/>
      <point x="410" y="286"/>
      <point x="409" y="271"/>
      <point x="407" y="256" type="curve" smooth="yes"/>
      <point x="392" y="153"/>
      <point x="336" y="64"/>
      <point x="197" y="64" type="curve"/>
    </contour>
  </outline>
</glyph>
<glyph name="c" format="1">
  <advance width="534"/>
  <unicode hex="0063"/>
  <outline>
    <contour>
      <point x="307" y="-6"/>
      <point x="376" y="13"/>
      <point x="443" y="57" type="curve"/>
      <point x="410" y="119" type="line"/>
      <point x="356" y="91"/>
      <point x="304" y="67"/>
      <point x="244" y="67" type="curve" smooth="yes"/>
      <point x="161" y="67"/>
      <point x="116" y="114"/>
      <point x="116" y="198" type="curve" smooth="yes"/>
      <point x="116" y="210"/>
      <point x="117" y="223"/>
      <point x="119" y="237" type="curve" smooth="yes"/>
      <point x="133" y="337"/>
      <point x="196" y="449"/>
      <point x="302" y="449" type="curve" smooth="yes"/>
      <point x="351" y="449"/>
      <point x="390" y="425"/>
      <point x="390" y="377" type="curve" smooth="yes"/>
      <point x="390" y="369"/>
      <point x="389" y="360"/>
      <point x="387" y="351" type="curve"/>
      <point x="466" y="347" type="line"/>
      <point x="468" y="358"/>
      <point x="469" y="369"/>
      <point x="469" y="379" type="curve" smooth="yes"/>
      <point x="469" y="465"/>
      <point x="390" y="519"/>
      <point x="300" y="519" type="curve" smooth="yes"/>
      <point x="164" y="519"/>
      <point x="64" y="396"/>
      <point x="42" y="246" type="curve" smooth="yes"/>
      <point x="40" y="229"/>
      <point x="39" y="212"/>
      <point x="39" y="196" type="curve" smooth="yes"/>
      <point x="39" y="75"/>
      <point x="106" y="-6"/>
      <point x="242" y="-6" type="curve" smooth="yes"/>
    </contour>
    <contour>
      <point x="300" y="496" type="move" name="top"/>
    </contour>
    <contour>
      <point x="233" y="11" type="move" name="bottom"/>
    </contour>
  </outline>
</glyph>
<glyph name="d" format="2">
	<advance width="572"/>
	<unicode hex="0064"/>
	<anchor x="265" y="11" name="center"/>
	<outline>
		<contour>
			<point x="216" y="-10" type="curve" smooth="yes"/>
			<point x="269" y="-10"/>
			<point x="323" y="7"/>
			<point x="364" y="51" type="curve"/>
			<point x="374" y="18"/>
			<point x="407" y="-10"/>
			<point x="449" y="-10" type="curve" smooth="yes"/>
			<point x="477" y="-10"/>
			<point x="516" y="3"/>
			<point x="540" y="42" type="curve"/>
			<point x="480" y="89" type="line"/>
			<point x="471" y="72"/>
			<point x="465" y="66"/>
			<point x="452" y="66" type="curve" smooth="yes"/>
			<point x="443" y="66"/>
			<point x="436" y="75"/>
			<point x="436" y="85" type="curve" smooth="yes"/>
			<point x="436" y="87" type="line"/>
			<point x="526" y="728" type="line"/>
			<point x="449" y="728" type="line"/>
			<point x="416" y="508" type="line"/>
			<point x="383" y="512"/>
			<point x="338" y="516"/>
			<point x="310" y="516" type="curve" smooth="yes"/>
			<point x="159" y="516"/>
			<point x="51" y="404"/>
			<point x="30" y="254" type="curve" smooth="yes"/>
			<point x="28" y="237"/>
			<point x="26" y="220"/>
			<point x="26" y="203" type="curve" smooth="yes"/>
			<point x="26" y="86"/>
			<point x="89" y="-10"/>
		</contour>
		<contour>
			<point x="222" y="64" type="curve" smooth="yes"/>
			<point x="141" y="64"/>
			<point x="105" y="125"/>
			<point x="105" y="209" type="curve" smooth="yes"/>
			<point x="105" y="223"/>
			<point x="106" y="238"/>
			<point x="108" y="253" type="curve" smooth="yes"/>
			<point x="124" y="362"/>
			<point x="185" y="442"/>
			<point x="329" y="442" type="curve" smooth="yes"/>
			<point x="364" y="442"/>
			<point x="390" y="436"/>
			<point x="410" y="433" type="curve"/>
			<point x="374" y="195" type="line" smooth="yes"/>
			<point x="371" y="173"/>
			<point x="364" y="155"/>
			<point x="353" y="141" type="curve" smooth="yes"/>
			<point x="324" y="93"/>
			<point x="278" y="64"/>
		</contour>
	</outline>
</glyph>
<glyph name="e" format="1">
  <advance width="536"/>
  <unicode hex="0065"/>
  <outline>
    <contour>
      <point x="313" y="-10"/>
      <point x="384" y="15"/>
      <point x="442" y="53" type="curve"/>
      <point x="409" y="115" type="line"/>
      <point x="354" y="87"/>
      <point x="305" y="64"/>
      <point x="242" y="64" type="curve" smooth="yes"/>
      <point x="158" y="64"/>
      <point x="120" y="107"/>
      <point x="118" y="191" type="curve"/>
      <point x="221" y="193" type="line" smooth="yes"/>
      <point x="364" y="193"/>
      <point x="468" y="257"/>
      <point x="468" y="374" type="curve" smooth="yes"/>
      <point x="468" y="461"/>
      <point x="394" y="516"/>
      <point x="301" y="516" type="curve" smooth="yes"/>
      <point x="143" y="516"/>
      <point x="59" y="364"/>
      <point x="41" y="238" type="curve" smooth="yes"/>
      <point x="39" y="222"/>
      <point x="38" y="206"/>
      <point x="38" y="190" type="curve" smooth="yes"/>
      <point x="38" y="76"/>
      <point x="100" y="-10"/>
      <point x="239" y="-10" type="curve" smooth="yes"/>
    </contour>
    <contour>
      <point x="139" y="339"/>
      <point x="199" y="445"/>
      <point x="302" y="445" type="curve" smooth="yes"/>
      <point x="349" y="445"/>
      <point x="391" y="422"/>
      <point x="391" y="374" type="curve" smooth="yes"/>
      <point x="391" y="297"/>
      <point x="321" y="267"/>
      <point x="227" y="267" type="curve" smooth="yes"/>
      <point x="124" y="265" type="line"/>
    </contour>
    <contour>
      <point x="425" y="58" type="move" name="ogonek"/>
    </contour>
    <contour>
      <point x="234" y="11" type="move" name="bottom"/>
    </contour>
    <contour>
      <point x="301" y="504" type="move" name="top"/>
    </contour>
  </outline>
</glyph>
<glyph name="f" format="2">
	<advance width="395"/>
	<unicode hex="0066"/>
	<outline>
		<contour>
			<point x="1" y="-253" type="line"/>
			<point x="77" y="-253" type="line"/>
			<point x="140" y="193" type="line"/>
			<point x="284" y="193" type="line"/>
			<point x="294" y="267" type="line"/>
			<point x="150" y="267" type="line"/>
			<point x="169" y="402" type="line"/>
			<point x="206" y="402" type="line" smooth="yes"/>
			<point x="327" y="402"/>
			<point x="419" y="465"/>
			<point x="436" y="581" type="curve" smooth="yes"/>
			<point x="437" y="592"/>
			<point x="438" y="602"/>
			<point x="438" y="612" type="curve" smooth="yes"/>
			<point x="438" y="694"/>
			<point x="387" y="743"/>
			<point x="304" y="743" type="curve" smooth="yes"/>
			<point x="173" y="743"/>
			<point x="125" y="627"/>
			<point x="107" y="500" type="curve" smooth="yes"/>
		</contour>
		<contour>
			<point x="180" y="476" type="line"/>
			<point x="183" y="499" type="line" smooth="yes"/>
			<point x="195" y="587"/>
			<point x="221" y="669"/>
			<point x="300" y="669" type="curve" smooth="yes"/>
			<point x="338" y="669"/>
			<point x="359" y="648"/>
			<point x="359" y="609" type="curve" smooth="yes"/>
			<point x="359" y="603"/>
			<point x="359" y="597"/>
			<point x="358" y="590" type="curve" smooth="yes"/>
			<point x="348" y="521"/>
			<point x="296" y="476"/>
			<point x="213" y="476" type="curve" smooth="yes"/>
		</contour>
	</outline>
</glyph>
<glyph name="g" format="1">
  <advance width="529"/>
  <unicode hex="0067"/>
  <outline>
    <contour>
      <point x="320" y="-273"/>
      <point x="395" y="-204"/>
      <point x="410" y="-100" type="curve" smooth="yes"/>
      <point x="495" y="507" type="line"/>
      <point x="432" y="507" type="line"/>
      <point x="373" y="514" type="line"/>
      <point x="349" y="515"/>
      <point x="325" y="516"/>
      <point x="309" y="516" type="curve" smooth="yes"/>
      <point x="160" y="516"/>
      <point x="49" y="392"/>
      <point x="31" y="264" type="curve" smooth="yes"/>
      <point x="29" y="251"/>
      <point x="28" y="236"/>
      <point x="28" y="221" type="curve" smooth="yes"/>
      <point x="28" y="156"/>
      <point x="47" y="76"/>
      <point x="103" y="30" type="curve" smooth="yes"/>
      <point x="115" y="17"/>
      <point x="132" y="7"/>
      <point x="149" y="2" type="curve"/>
      <point x="113" y="-35"/>
      <point x="95" y="-86"/>
      <point x="95" y="-128" type="curve" smooth="yes"/>
      <point x="95" y="-200"/>
      <point x="137" y="-273"/>
      <point x="231" y="-273" type="curve" smooth="yes"/>
    </contour>
    <contour>
      <point x="190" y="-198"/>
      <point x="169" y="-163"/>
      <point x="169" y="-126" type="curve" smooth="yes"/>
      <point x="169" y="-96"/>
      <point x="181" y="-56"/>
      <point x="234" y="-29" type="curve" smooth="yes"/>
      <point x="292" y="5"/>
      <point x="308" y="11"/>
      <point x="331" y="26" type="curve" smooth="yes"/>
      <point x="339" y="35"/>
      <point x="349" y="43"/>
      <point x="357" y="50" type="curve"/>
      <point x="335" y="-99" type="line"/>
      <point x="324" y="-154"/>
      <point x="293" y="-198"/>
      <point x="239" y="-198" type="curve" smooth="yes"/>
    </contour>
    <contour>
      <point x="142" y="64"/>
      <point x="102" y="136"/>
      <point x="102" y="215" type="curve" smooth="yes"/>
      <point x="102" y="226"/>
      <point x="102" y="237"/>
      <point x="104" y="248" type="curve" smooth="yes"/>
      <point x="117" y="345"/>
      <point x="193" y="442"/>
      <point x="301" y="442" type="curve" smooth="yes"/>
      <point x="330" y="442" type="line"/>
      <point x="410" y="437" type="line"/>
      <point x="375" y="187" type="line" smooth="yes"/>
      <point x="374" y="179"/>
      <point x="367" y="166"/>
      <point x="359" y="155" type="curve" smooth="yes"/>
      <point x="336" y="117"/>
      <point x="292" y="87"/>
      <point x="263" y="76" type="curve" smooth="yes"/>
      <point x="248" y="68"/>
      <point x="232" y="64"/>
      <point x="214" y="64" type="curve" smooth="yes"/>
    </contour>
    <contour>
      <point x="308" y="505" type="move" name="top"/>
    </contour>
  </outline>
</glyph>
<glyph name="h" format="1">
  <advance width="605"/>
  <unicode hex="0068"/>
  <outline>
    <contour>
      <point x="477" y="-7"/>
      <point x="512" y="10"/>
      <point x="535" y="44" type="curve"/>
      <point x="474" y="91" type="line"/>
      <point x="467" y="76"/>
      <point x="461" y="69"/>
      <point x="447" y="69" type="curve" smooth="yes"/>
      <point x="438" y="69"/>
      <point x="430" y="75"/>
      <point x="430" y="87" type="curve" smooth="yes"/>
      <point x="430" y="89" type="line"/>
      <point x="467" y="349" type="line" smooth="yes"/>
      <point x="469" y="361"/>
      <point x="470" y="373"/>
      <point x="470" y="384" type="curve" smooth="yes"/>
      <point x="470" y="469"/>
      <point x="418" y="518"/>
      <point x="318" y="518" type="curve" smooth="yes"/>
      <point x="259" y="518"/>
      <point x="206" y="499"/>
      <point x="160" y="456" type="curve"/>
      <point x="199" y="730" type="line"/>
      <point x="123" y="730" type="line"/>
      <point x="21" y="2" type="line"/>
      <point x="97" y="2" type="line"/>
      <point x="147" y="353" type="line"/>
      <point x="198" y="410"/>
      <point x="242" y="445"/>
      <point x="308" y="445" type="curve" smooth="yes"/>
      <point x="363" y="445"/>
      <point x="393" y="424"/>
      <point x="393" y="374" type="curve" smooth="yes"/>
      <point x="393" y="367"/>
      <point x="392" y="359"/>
      <point x="391" y="350" type="curve" smooth="yes"/>
      <point x="355" y="93" type="line" smooth="yes"/>
      <point x="354" y="88"/>
      <point x="354" y="84"/>
      <point x="354" y="79" type="curve" smooth="yes"/>
      <point x="354" y="31"/>
      <point x="391" y="-7"/>
      <point x="444" y="-7" type="curve" smooth="yes"/>
    </contour>
    <contour>
      <point x="269" y="11" type="move" name="center"/>
    </contour>
    <contour>
      <point x="338" y="496" type="move" name="top"/>
    </contour>
  </outline>
</glyph>
<glyph name="k" format="1">
  <advance width="569"/>
  <unicode hex="006B"/>
  <outline>
    <contour>
      <point x="109" y="0" type="line"/>
      <point x="136" y="194" type="line"/>
      <point x="284" y="194" type="line"/>
      <point x="355" y="49" type="line"/>
      <point x="366" y="20"/>
      <point x="401" y="0"/>
      <point x="433" y="0" type="curve" smooth="yes"/>
      <point x="487" y="0"/>
      <point x="538" y="52"/>
      <point x="542" y="105" type="curve"/>
      <point x="464" y="113" type="line"/>
      <point x="464" y="103" type="line" smooth="yes"/>
      <point x="462" y="87"/>
      <point x="450" y="79"/>
      <point x="432" y="79" type="curve" smooth="yes"/>
      <point x="429" y="79"/>
      <point x="426" y="79"/>
      <point x="425" y="83" type="curve" smooth="yes"/>
      <point x="362" y="216" type="line"/>
      <point x="411" y="243"/>
      <point x="455" y="282"/>
      <point x="466" y="354" type="curve" smooth="yes"/>
      <point x="467" y="363"/>
      <point x="468" y="371"/>
      <point x="468" y="380" type="curve" smooth="yes"/>
      <point x="468" y="461"/>
      <point x="411" y="518"/>
      <point x="324" y="518" type="curve" smooth="yes"/>
      <point x="269" y="518"/>
      <point x="213" y="495"/>
      <point x="171" y="450" type="curve"/>
      <point x="211" y="728" type="line"/>
      <point x="135" y="728" type="line"/>
      <point x="33" y="0" type="line"/>
    </contour>
    <contour>
      <point x="153" y="286"/>
      <point x="160" y="305"/>
      <point x="169" y="323" type="curve" smooth="yes"/>
      <point x="200" y="400"/>
      <point x="257" y="446"/>
      <point x="320" y="446" type="curve" smooth="yes"/>
      <point x="368" y="446"/>
      <point x="394" y="419"/>
      <point x="394" y="380" type="curve" smooth="yes"/>
      <point x="394" y="331"/>
      <point x="367" y="299"/>
      <point x="319" y="282" type="curve" smooth="yes"/>
      <point x="301" y="273"/>
      <point x="281" y="268"/>
      <point x="248" y="268" type="curve" smooth="yes"/>
      <point x="149" y="266" type="line"/>
    </contour>
    <contour>
      <point x="340" y="517" type="move" name="top"/>
    </contour>
    <contour>
      <point x="276" y="11" type="move" name="bottom"/>
    </contour>
  </outline>
</glyph>
<glyph name="l" format="1">
  <advance width="283"/>
  <unicode hex="006C"/>
  <outline>
    <contour>
      <point x="152" y="-9"/>
      <point x="192" y="10"/>
      <point x="213" y="43" type="curve"/>
      <point x="152" y="89" type="line"/>
      <point x="144" y="74"/>
      <point x="136" y="67"/>
      <point x="124" y="67" type="curve" smooth="yes"/>
      <point x="116" y="67"/>
      <point x="108" y="73"/>
      <point x="108" y="84" type="curve" smooth="yes"/>
      <point x="108" y="88" type="line"/>
      <point x="198" y="727" type="line"/>
      <point x="122" y="727" type="line"/>
      <point x="33" y="92" type="line" smooth="yes"/>
      <point x="32" y="88"/>
      <point x="32" y="83"/>
      <point x="32" y="79" type="curve" smooth="yes"/>
      <point x="32" y="31"/>
      <point x="71" y="-9"/>
      <point x="120" y="-9" type="curve" smooth="yes"/>
    </contour>
    <contour>
      <point x="160" y="715" type="move" name="top"/>
    </contour>
    <contour>
      <point x="108" y="11" type="move" name="bottom"/>
    </contour>
    <contour>
      <point x="185" y="715" type="move" name="topright"/>
    </contour>
  </outline>
</glyph>
<glyph name="m" format="1">
  <advance width="899"/>
  <unicode hex="006D"/>
  <outline>
    <contour>
      <point x="773" y="-11"/>
      <point x="806" y="7"/>
      <point x="829" y="41" type="curve"/>
      <point x="770" y="86" type="line"/>
      <point x="759" y="72"/>
      <point x="752" y="65"/>
      <point x="741" y="65" type="curve" smooth="yes"/>
      <point x="733" y="65"/>
      <point x="724" y="72"/>
      <point x="724" y="83" type="curve" smooth="yes"/>
      <point x="724" y="86" type="line"/>
      <point x="761" y="350" type="line" smooth="yes"/>
      <point x="762" y="360"/>
      <point x="763" y="369"/>
      <point x="763" y="378" type="curve" smooth="yes"/>
      <point x="763" y="459"/>
      <point x="707" y="516"/>
      <point x="619" y="516" type="curve" smooth="yes"/>
      <point x="559" y="516"/>
      <point x="505" y="489"/>
      <point x="459" y="438" type="curve"/>
      <point x="441" y="487"/>
      <point x="395" y="516"/>
      <point x="332" y="516" type="curve" smooth="yes"/>
      <point x="273" y="516"/>
      <point x="219" y="491"/>
      <point x="175" y="443" type="curve"/>
      <point x="170" y="470"/>
      <point x="155" y="496"/>
      <point x="127" y="515" type="curve"/>
      <point x="76" y="470" type="line"/>
      <point x="96" y="451"/>
      <point x="105" y="425"/>
      <point x="105" y="390" type="curve" smooth="yes"/>
      <point x="105" y="380"/>
      <point x="105" y="368"/>
      <point x="103" y="356" type="curve" smooth="yes"/>
      <point x="53" y="-1" type="line"/>
      <point x="129" y="-1" type="line"/>
      <point x="180" y="354" type="line"/>
      <point x="207" y="402"/>
      <point x="264" y="442"/>
      <point x="325" y="442" type="curve" smooth="yes"/>
      <point x="372" y="442"/>
      <point x="394" y="416"/>
      <point x="394" y="367" type="curve" smooth="yes"/>
      <point x="394" y="358"/>
      <point x="393" y="349"/>
      <point x="392" y="339" type="curve" smooth="yes"/>
      <point x="344" y="-1" type="line"/>
      <point x="420" y="-1" type="line"/>
      <point x="470" y="352" type="line"/>
      <point x="513" y="416"/>
      <point x="560" y="442"/>
      <point x="616" y="442" type="curve" smooth="yes"/>
      <point x="664" y="442"/>
      <point x="686" y="422"/>
      <point x="686" y="369" type="curve" smooth="yes"/>
      <point x="686" y="364"/>
      <point x="685" y="358"/>
      <point x="685" y="352" type="curve"/>
      <point x="649" y="90" type="line" smooth="yes"/>
      <point x="648" y="85"/>
      <point x="648" y="81"/>
      <point x="648" y="76" type="curve" smooth="yes"/>
      <point x="648" y="30"/>
      <point x="683" y="-11"/>
      <point x="737" y="-11" type="curve" smooth="yes"/>
    </contour>
  </outline>
</glyph>
<glyph name="n" format="1">
  <advance width="621"/>
  <unicode hex="006E"/>
  <outline>
    <contour>
      <point x="494" y="-13"/>
      <point x="527" y="5"/>
      <point x="550" y="39" type="curve"/>
      <point x="491" y="84" type="line"/>
      <point x="481" y="70"/>
      <point x="473" y="64"/>
      <point x="462" y="64" type="curve"/>
      <point x="455" y="63"/>
      <point x="446" y="70"/>
      <point x="446" y="81" type="curve" smooth="yes"/>
      <point x="446" y="84" type="line"/>
      <point x="485" y="361" type="line"/>
      <point x="485" y="367"/>
      <point x="486" y="373"/>
      <point x="486" y="379" type="curve" smooth="yes"/>
      <point x="486" y="469"/>
      <point x="429" y="516"/>
      <point x="334" y="516" type="curve" smooth="yes"/>
      <point x="273" y="516"/>
      <point x="215" y="495"/>
      <point x="160" y="438" type="curve"/>
      <point x="155" y="467"/>
      <point x="140" y="497"/>
      <point x="111" y="515" type="curve"/>
      <point x="59" y="470" type="line"/>
      <point x="80" y="451"/>
      <point x="89" y="426"/>
      <point x="89" y="391" type="curve" smooth="yes"/>
      <point x="89" y="381"/>
      <point x="88" y="369"/>
      <point x="86" y="356" type="curve" smooth="yes"/>
      <point x="36" y="-1" type="line"/>
      <point x="113" y="-1" type="line"/>
      <point x="163" y="350" type="line"/>
      <point x="213" y="405"/>
      <point x="258" y="442"/>
      <point x="327" y="442" type="curve" smooth="yes"/>
      <point x="382" y="442"/>
      <point x="407" y="420"/>
      <point x="407" y="369" type="curve" smooth="yes"/>
      <point x="407" y="360"/>
      <point x="406" y="350"/>
      <point x="405" y="339" type="curve" smooth="yes"/>
      <point x="369" y="88" type="line" smooth="yes"/>
      <point x="368" y="84"/>
      <point x="368" y="80"/>
      <point x="368" y="76" type="curve" smooth="yes"/>
      <point x="368" y="29"/>
      <point x="404" y="-13"/>
      <point x="458" y="-13" type="curve" smooth="yes"/>
    </contour>
    <contour>
      <point x="330" y="504" type="move" name="top"/>
    </contour>
    <contour>
      <point x="245" y="11" type="move" name="bottom"/>
    </contour>
  </outline>
</glyph>
<glyph name="o" format="2">
	<advance width="562"/>
	<unicode hex="006F"/>
	<anchor x="400" y="50" name="ogonek"/>
	<anchor x="318" y="504" name="top"/>
	<anchor x="520" y="343" name="horn"/>
	<anchor x="248" y="13" name="bottom"/>
	<outline>
		<contour>
			<point x="248" y="-10" type="curve" smooth="yes"/>
			<point x="393" y="-10"/>
			<point x="513" y="97"/>
			<point x="535" y="248" type="curve" smooth="yes"/>
			<point x="537" y="263"/>
			<point x="538" y="277"/>
			<point x="538" y="291" type="curve" smooth="yes"/>
			<point x="538" y="422"/>
			<point x="451" y="516"/>
			<point x="315" y="516" type="curve" smooth="yes"/>
			<point x="167" y="516"/>
			<point x="50" y="401"/>
			<point x="30" y="255" type="curve" smooth="yes"/>
			<point x="28" y="240"/>
			<point x="27" y="226"/>
			<point x="27" y="212" type="curve" smooth="yes"/>
			<point x="27" y="83"/>
			<point x="112" y="-10"/>
		</contour>
		<contour>
			<point x="252" y="64" type="curve" smooth="yes"/>
			<point x="159" y="64"/>
			<point x="105" y="122"/>
			<point x="105" y="212" type="curve" smooth="yes"/>
			<point x="105" y="223"/>
			<point x="106" y="235"/>
			<point x="108" y="248" type="curve" smooth="yes"/>
			<point x="123" y="356"/>
			<point x="198" y="442"/>
			<point x="313" y="442" type="curve" smooth="yes"/>
			<point x="405" y="442"/>
			<point x="460" y="386"/>
			<point x="460" y="296" type="curve" smooth="yes"/>
			<point x="460" y="285"/>
			<point x="459" y="273"/>
			<point x="457" y="260" type="curve" smooth="yes"/>
			<point x="442" y="148"/>
			<point x="365" y="64"/>
		</contour>
	</outline>
</glyph>
<glyph name="p" format="1">
  <advance width="571"/>
  <unicode hex="0070"/>
  <outline>
    <contour>
      <point x="77" y="-254" type="line"/>
      <point x="114" y="-3" type="line"/>
      <point x="148" y="-7"/>
      <point x="191" y="-10"/>
      <point x="219" y="-10" type="curve" smooth="yes"/>
      <point x="373" y="-10"/>
      <point x="479" y="101"/>
      <point x="500" y="252" type="curve" smooth="yes"/>
      <point x="502" y="269"/>
      <point x="504" y="286"/>
      <point x="504" y="303" type="curve" smooth="yes"/>
      <point x="504" y="420"/>
      <point x="442" y="516"/>
      <point x="313" y="516" type="curve" smooth="yes"/>
      <point x="258" y="516"/>
      <point x="201" y="498"/>
      <point x="158" y="448" type="curve"/>
      <point x="152" y="471"/>
      <point x="137" y="495"/>
      <point x="111" y="515" type="curve"/>
      <point x="59" y="470" type="line"/>
      <point x="80" y="451"/>
      <point x="89" y="426"/>
      <point x="89" y="391" type="curve" smooth="yes"/>
      <point x="89" y="381"/>
      <point x="88" y="369"/>
      <point x="86" y="356" type="curve" smooth="yes"/>
      <point x="0" y="-254" type="line"/>
    </contour>
    <contour>
      <point x="205" y="64"/>
      <point x="190" y="64"/>
      <point x="121" y="71" type="curve"/>
      <point x="159" y="326" type="line"/>
      <point x="173" y="394"/>
      <point x="246" y="442"/>
      <point x="313" y="442" type="curve" smooth="yes"/>
      <point x="387" y="442"/>
      <point x="425" y="379"/>
      <point x="425" y="295" type="curve" smooth="yes"/>
      <point x="425" y="282"/>
      <point x="424" y="268"/>
      <point x="422" y="254" type="curve" smooth="yes"/>
      <point x="406" y="141"/>
      <point x="337" y="64"/>
      <point x="217" y="64" type="curve" smooth="yes"/>
    </contour>
  </outline>
</glyph>
<glyph name="q" format="1">
  <advance width="557"/>
  <unicode hex="0071"/>
  <outline>
    <contour>
      <point x="400" y="-254" type="line"/>
      <point x="503" y="492" type="line"/>
      <point x="455" y="508"/>
      <point x="383" y="516"/>
      <point x="338" y="516" type="curve" smooth="yes"/>
      <point x="166" y="516"/>
      <point x="64" y="406"/>
      <point x="43" y="256" type="curve" smooth="yes"/>
      <point x="41" y="238"/>
      <point x="39" y="221"/>
      <point x="39" y="204" type="curve" smooth="yes"/>
      <point x="39" y="85"/>
      <point x="102" y="-10"/>
      <point x="227" y="-10" type="curve" smooth="yes"/>
      <point x="275" y="-10"/>
      <point x="327" y="5"/>
      <point x="365" y="39" type="curve"/>
      <point x="323" y="-254" type="line"/>
    </contour>
    <contour>
      <point x="154" y="64"/>
      <point x="118" y="121"/>
      <point x="118" y="205" type="curve" smooth="yes"/>
      <point x="118" y="220"/>
      <point x="119" y="237"/>
      <point x="122" y="254" type="curve" smooth="yes"/>
      <point x="137" y="364"/>
      <point x="196" y="441"/>
      <point x="340" y="441" type="curve" smooth="yes"/>
      <point x="367" y="441"/>
      <point x="396" y="438"/>
      <point x="422" y="434" type="curve"/>
      <point x="384" y="179" type="line"/>
      <point x="367" y="110"/>
      <point x="297" y="64"/>
      <point x="227" y="64" type="curve" smooth="yes"/>
    </contour>
  </outline>
</glyph>
<glyph name="r" format="1">
  <advance width="373"/>
  <unicode hex="0072"/>
  <outline>
    <contour>
      <point x="123" y="-1" type="line"/>
      <point x="173" y="352" type="line"/>
      <point x="192" y="380"/>
      <point x="218" y="405"/>
      <point x="236" y="416" type="curve"/>
      <point x="256" y="433"/>
      <point x="279" y="441"/>
      <point x="316" y="441" type="curve" smooth="yes"/>
      <point x="328" y="441"/>
      <point x="345" y="441"/>
      <point x="379" y="432" type="curve"/>
      <point x="385" y="506" type="line"/>
      <point x="341" y="514"/>
      <point x="332" y="516"/>
      <point x="316" y="516" type="curve" smooth="yes"/>
      <point x="286" y="516"/>
      <point x="254" y="510"/>
      <point x="223" y="494" type="curve"/>
      <point x="207" y="483"/>
      <point x="188" y="466"/>
      <point x="169" y="443" type="curve"/>
      <point x="163" y="471"/>
      <point x="148" y="496"/>
      <point x="121" y="515" type="curve"/>
      <point x="69" y="470" type="line"/>
      <point x="90" y="451"/>
      <point x="99" y="426"/>
      <point x="99" y="391" type="curve" smooth="yes"/>
      <point x="99" y="381"/>
      <point x="98" y="369"/>
      <point x="96" y="356" type="curve" smooth="yes"/>
      <point x="46" y="-1" type="line"/>
    </contour>
    <contour>
      <point x="257" y="497" type="move" name="top"/>
    </contour>
    <contour>
      <point x="85" y="11" type="move" name="bottom"/>
    </contour>
  </outline>
</glyph>
<glyph name="s" format="1">
  <advance width="461"/>
  <unicode hex="0073"/>
  <outline>
    <contour>
      <point x="268" y="-10"/>
      <point x="367" y="32"/>
      <point x="382" y="137" type="curve" smooth="yes"/>
      <point x="383" y="145"/>
      <point x="384" y="152"/>
      <point x="384" y="159" type="curve" smooth="yes"/>
      <point x="384" y="206"/>
      <point x="361" y="240"/>
      <point x="324" y="263" type="curve" smooth="yes"/>
      <point x="259" y="308"/>
      <point x="158" y="318"/>
      <point x="158" y="376" type="curve" smooth="yes"/>
      <point x="158" y="413"/>
      <point x="190" y="442"/>
      <point x="245" y="442" type="curve" smooth="yes"/>
      <point x="275" y="442"/>
      <point x="321" y="434"/>
      <point x="360" y="407" type="curve"/>
      <point x="382" y="478" type="line"/>
      <point x="354" y="501"/>
      <point x="294" y="516"/>
      <point x="248" y="516" type="curve" smooth="yes"/>
      <point x="161" y="516"/>
      <point x="79" y="461"/>
      <point x="79" y="365" type="curve" smooth="yes"/>
      <point x="79" y="268"/>
      <point x="185" y="254"/>
      <point x="258" y="218" type="curve" smooth="yes"/>
      <point x="291" y="200"/>
      <point x="305" y="184"/>
      <point x="305" y="157" type="curve" smooth="yes"/>
      <point x="305" y="90"/>
      <point x="247" y="64"/>
      <point x="186" y="64" type="curve" smooth="yes"/>
      <point x="135" y="64"/>
      <point x="88" y="81"/>
      <point x="48" y="114" type="curve"/>
      <point x="4" y="56" type="line"/>
      <point x="46" y="16"/>
      <point x="105" y="-10"/>
      <point x="178" y="-10" type="curve" smooth="yes"/>
    </contour>
    <contour>
      <point x="250" y="504" type="move" name="top"/>
    </contour>
    <contour>
      <point x="196" y="11" type="move" name="bottom"/>
    </contour>
  </outline>
</glyph>
<glyph name="t" format="1">
  <advance width="384"/>
  <unicode hex="0074"/>
  <outline>
    <contour>
      <point x="220" y="-10"/>
      <point x="273" y="23"/>
      <point x="311" y="81" type="curve"/>
      <point x="255" y="129" type="line"/>
      <point x="232" y="84"/>
      <point x="197" y="64"/>
      <point x="157" y="64" type="curve" smooth="yes"/>
      <point x="124" y="64"/>
      <point x="113" y="80"/>
      <point x="113" y="113" type="curve" smooth="yes"/>
      <point x="113" y="123"/>
      <point x="114" y="135"/>
      <point x="116" y="148" type="curve" smooth="yes"/>
      <point x="155" y="429" type="line"/>
      <point x="309" y="429" type="line"/>
      <point x="320" y="506" type="line"/>
      <point x="166" y="506" type="line"/>
      <point x="183" y="628" type="line"/>
      <point x="107" y="628" type="line"/>
      <point x="40" y="152" type="line" smooth="yes"/>
      <point x="38" y="138"/>
      <point x="37" y="125"/>
      <point x="37" y="113" type="curve" smooth="yes"/>
      <point x="37" y="41"/>
      <point x="70" y="-10"/>
      <point x="154" y="-10" type="curve" smooth="yes"/>
    </contour>
    <contour>
      <point x="203" y="323" type="move" name="center"/>
    </contour>
    <contour>
      <point x="159" y="11" type="move" name="bottom"/>
    </contour>
  </outline>
</glyph>
<glyph name="u" format="1">
  <advance width="635"/>
  <unicode hex="0075"/>
  <outline>
    <contour>
      <point x="508" y="-11"/>
      <point x="541" y="6"/>
      <point x="565" y="39" type="curve"/>
      <point x="504" y="87" type="line"/>
      <point x="496" y="72"/>
      <point x="488" y="65"/>
      <point x="476" y="65" type="curve" smooth="yes"/>
      <point x="468" y="65"/>
      <point x="460" y="72"/>
      <point x="460" y="82" type="curve" smooth="yes"/>
      <point x="460" y="86" type="line"/>
      <point x="520" y="508" type="line"/>
      <point x="443" y="508" type="line"/>
      <point x="392" y="157" type="line"/>
      <point x="338" y="97"/>
      <point x="297" y="65"/>
      <point x="229" y="65" type="curve" smooth="yes"/>
      <point x="174" y="65"/>
      <point x="148" y="87"/>
      <point x="148" y="140" type="curve" smooth="yes"/>
      <point x="148" y="148"/>
      <point x="149" y="158"/>
      <point x="150" y="168" type="curve" smooth="yes"/>
      <point x="181" y="386" type="line" smooth="yes"/>
      <point x="182" y="391"/>
      <point x="182" y="397"/>
      <point x="182" y="402" type="curve" smooth="yes"/>
      <point x="182" y="458"/>
      <point x="139" y="492"/>
      <point x="106" y="520" type="curve"/>
      <point x="58" y="458" type="line"/>
      <point x="70" y="447"/>
      <point x="110" y="423"/>
      <point x="106" y="390" type="curve" smooth="yes"/>
      <point x="71" y="146" type="line"/>
      <point x="71" y="140"/>
      <point x="70" y="134"/>
      <point x="70" y="128" type="curve" smooth="yes"/>
      <point x="70" y="38"/>
      <point x="126" y="-8"/>
      <point x="222" y="-8" type="curve" smooth="yes"/>
      <point x="283" y="-8"/>
      <point x="333" y="10"/>
      <point x="385" y="60" type="curve"/>
      <point x="392" y="21"/>
      <point x="426" y="-11"/>
      <point x="474" y="-11" type="curve" smooth="yes"/>
    </contour>
    <contour>
      <point x="528" y="21" type="move" name="ogonek"/>
    </contour>
    <contour>
      <point x="307" y="496" type="move" name="top"/>
    </contour>
    <contour>
      <point x="485" y="349" type="move" name="horn"/>
    </contour>
    <contour>
      <point x="228" y="3" type="move" name="bottom"/>
    </contour>
  </outline>
</glyph>
<glyph name="v" format="1">
  <advance width="508"/>
  <unicode hex="0076"/>
  <outline>
    <contour>
      <point x="253" y="-1" type="line"/>
      <point x="490" y="507" type="line"/>
      <point x="410" y="507" type="line"/>
      <point x="233" y="130" type="line"/>
      <point x="180" y="408" type="line" smooth="yes"/>
      <point x="173" y="455"/>
      <point x="148" y="500"/>
      <point x="106" y="526" type="curve"/>
      <point x="58" y="464" type="line"/>
      <point x="79" y="458"/>
      <point x="98" y="435"/>
      <point x="105" y="411" type="curve"/>
      <point x="103" y="410" type="line"/>
      <point x="182" y="-1" type="line"/>
    </contour>
  </outline>
</glyph>
<glyph name="w" format="1">
  <advance width="833"/>
  <unicode hex="0077"/>
  <outline>
    <contour>
      <point x="252" y="0" type="line"/>
      <point x="429" y="375" type="line"/>
      <point x="497" y="0" type="line"/>
      <point x="569" y="0" type="line"/>
      <point x="805" y="508" type="line"/>
      <point x="724" y="508" type="line"/>
      <point x="549" y="133" type="line"/>
      <point x="479" y="508" type="line"/>
      <point x="408" y="508" type="line"/>
      <point x="233" y="133" type="line"/>
      <point x="179" y="409" type="line" smooth="yes"/>
      <point x="170" y="460"/>
      <point x="145" y="502"/>
      <point x="106" y="528" type="curve"/>
      <point x="58" y="465" type="line"/>
      <point x="79" y="459"/>
      <point x="97" y="437"/>
      <point x="105" y="412" type="curve"/>
      <point x="180" y="0" type="line"/>
    </contour>
    <contour>
      <point x="444" y="496" type="move" name="top"/>
    </contour>
  </outline>
</glyph>
<glyph name="x" format="1">
  <advance width="571"/>
  <unicode hex="0078"/>
  <outline>
    <contour>
      <point x="445" y="-19"/>
      <point x="497" y="26"/>
      <point x="502" y="86" type="curve"/>
      <point x="421" y="94" type="line"/>
      <point x="425" y="91"/>
      <point x="424" y="87"/>
      <point x="424" y="84" type="curve" smooth="yes"/>
      <point x="422" y="73"/>
      <point x="410" y="60"/>
      <point x="395" y="60" type="curve" smooth="yes"/>
      <point x="387" y="60"/>
      <point x="384" y="60"/>
      <point x="381" y="67" type="curve"/>
      <point x="383" y="70" type="line"/>
      <point x="294" y="256" type="line"/>
      <point x="486" y="508" type="line"/>
      <point x="393" y="508" type="line"/>
      <point x="251" y="318" type="line"/>
      <point x="159" y="508" type="line"/>
      <point x="69" y="508" type="line"/>
      <point x="195" y="254" type="line"/>
      <point x="-2" y="-1" type="line"/>
      <point x="90" y="-1" type="line"/>
      <point x="236" y="189" type="line"/>
      <point x="313" y="30" type="line" smooth="yes"/>
      <point x="329" y="-2"/>
      <point x="360" y="-19"/>
      <point x="392" y="-19" type="curve" smooth="yes"/>
    </contour>
  </outline>
</glyph>
<glyph name="y" format="2">
	<advance width="541"/>
	<unicode hex="0079"/>
	<anchor x="306" y="496" name="top"/>
	<anchor x="491" y="0" name="bottom"/>
	<outline>
		<contour>
			<point x="244" y="-277" type="curve" smooth="yes"/>
			<point x="329" y="-277"/>
			<point x="405" y="-215"/>
			<point x="420" y="-104" type="curve" smooth="yes"/>
			<point x="455" y="144" type="line"/>
			<point x="507" y="508" type="line"/>
			<point x="430" y="508" type="line"/>
			<point x="383" y="179" type="line" smooth="yes"/>
			<point x="381" y="164"/>
			<point x="379" y="158"/>
			<point x="366" y="142" type="curve"/>
			<point x="367" y="143" type="line"/>
			<point x="320" y="95"/>
			<point x="279" y="65"/>
			<point x="215" y="65" type="curve" smooth="yes"/>
			<point x="160" y="65"/>
			<point x="135" y="88"/>
			<point x="135" y="140" type="curve" smooth="yes"/>
			<point x="135" y="148"/>
			<point x="136" y="158"/>
			<point x="137" y="168" type="curve" smooth="yes"/>
			<point x="168" y="386" type="line" smooth="yes"/>
			<point x="169" y="392"/>
			<point x="169" y="397"/>
			<point x="169" y="402" type="curve" smooth="yes"/>
			<point x="169" y="455"/>
			<point x="130" y="488"/>
			<point x="93" y="520" type="curve"/>
			<point x="45" y="455" type="line"/>
			<point x="51" y="456"/>
			<point x="96" y="415"/>
			<point x="93" y="390" type="curve" smooth="yes"/>
			<point x="59" y="147" type="line" smooth="yes"/>
			<point x="58" y="137"/>
			<point x="57" y="128"/>
			<point x="57" y="119" type="curve" smooth="yes"/>
			<point x="57" y="54"/>
			<point x="95" y="10"/>
			<point x="160" y="-2" type="curve"/>
			<point x="130" y="-31"/>
			<point x="113" y="-77"/>
			<point x="108" y="-110" type="curve" smooth="yes"/>
			<point x="107" y="-118"/>
			<point x="106" y="-126"/>
			<point x="106" y="-134" type="curve" smooth="yes"/>
			<point x="106" y="-208"/>
			<point x="152" y="-277"/>
		</contour>
		<contour>
			<point x="245" y="-202" type="curve" smooth="yes"/>
			<point x="202" y="-202"/>
			<point x="182" y="-175"/>
			<point x="182" y="-135" type="curve" smooth="yes"/>
			<point x="182" y="-129"/>
			<point x="182" y="-122"/>
			<point x="183" y="-116" type="curve" smooth="yes"/>
			<point x="190" y="-66"/>
			<point x="216" y="-40"/>
			<point x="266" y="-15" type="curve" smooth="yes"/>
			<point x="318" y="10" type="line" smooth="yes"/>
			<point x="338" y="20"/>
			<point x="359" y="33"/>
			<point x="378" y="49" type="curve"/>
			<point x="365" y="42" type="line"/>
			<point x="345" y="-104" type="line" smooth="yes"/>
			<point x="337" y="-162"/>
			<point x="298" y="-202"/>
		</contour>
	</outline>
</glyph>
<glyph name="z" format="1">
  <advance width="545"/>
  <unicode hex="007A"/>
  <outline>
    <contour>
      <point x="106" y="37" type="line"/>
      <point x="191" y="10" type="line" smooth="yes"/>
      <point x="229" y="-4"/>
      <point x="274" y="-13"/>
      <point x="314" y="-13" type="curve" smooth="yes"/>
      <point x="364" y="-13"/>
      <point x="402" y="2"/>
      <point x="451" y="36" type="curve"/>
      <point x="420" y="101" type="line"/>
      <point x="367" y="66"/>
      <point x="347" y="61"/>
      <point x="314" y="61" type="curve" smooth="yes"/>
      <point x="284" y="61"/>
      <point x="249" y="65"/>
      <point x="216" y="78" type="curve" smooth="yes"/>
      <point x="159" y="101" type="line"/>
      <point x="470" y="478" type="line"/>
      <point x="473" y="506" type="line"/>
      <point x="109" y="506" type="line"/>
      <point x="99" y="432" type="line"/>
      <point x="337" y="432" type="line"/>
      <point x="0" y="21" type="line"/>
      <point x="55" y="-25" type="line"/>
    </contour>
    <contour>
      <point x="307" y="493" type="move" name="top"/>
    </contour>
  </outline>
</glyph>
<glyph name="bar" format="2">
	<advance width="292"/>
	<unicode hex="007C"/>
	<outline>
		<contour>
			<point x="60" y="-68" type="line"/>
			<point x="142" y="-68" type="line"/>
			<point x="257" y="750" type="line"/>
			<point x="175" y="750" type="line"/>
		</contour>
	</outline>
</glyph>
<glyph name="braceright" format="1">
  <advance width="322"/>
  <unicode hex="007D"/>
  <outline>
    <contour>
      <point x="35" y="-161"/>
      <point x="128" y="-152"/>
      <point x="172" y="-91" type="curve" smooth="yes"/>
      <point x="188" y="-69"/>
      <point x="195" y="-43"/>
      <point x="198" y="-20" type="curve" smooth="yes"/>
      <point x="204" y="30"/>
      <point x="208" y="189"/>
      <point x="209" y="196" type="curve" smooth="yes"/>
      <point x="213" y="223"/>
      <point x="226" y="235"/>
      <point x="264" y="246" type="curve" smooth="yes"/>
      <point x="274" y="249"/>
      <point x="294" y="254"/>
      <point x="300" y="254" type="curve"/>
      <point x="306" y="329" type="line"/>
      <point x="296" y="329"/>
      <point x="282" y="330"/>
      <point x="271" y="332" type="curve" smooth="yes"/>
      <point x="250" y="336"/>
      <point x="233" y="347"/>
      <point x="233" y="363" type="curve" smooth="yes"/>
      <point x="233" y="367"/>
      <point x="234" y="372"/>
      <point x="235" y="378" type="curve" smooth="yes"/>
      <point x="240" y="402"/>
      <point x="236" y="382"/>
      <point x="243" y="416" type="curve"/>
      <point x="273" y="535" type="line" smooth="yes"/>
      <point x="278" y="555"/>
      <point x="286" y="597"/>
      <point x="286" y="620" type="curve" smooth="yes"/>
      <point x="286" y="652"/>
      <point x="272" y="687"/>
      <point x="237" y="710" type="curve" smooth="yes"/>
      <point x="205" y="731"/>
      <point x="152" y="746"/>
      <point x="119" y="752" type="curve"/>
      <point x="91" y="685" type="line"/>
      <point x="124" y="680"/>
      <point x="167" y="668"/>
      <point x="187" y="654" type="curve" smooth="yes"/>
      <point x="205" y="641"/>
      <point x="208" y="621"/>
      <point x="204" y="601" type="curve" smooth="yes"/>
      <point x="200" y="582"/>
      <point x="186" y="525"/>
      <point x="179" y="498" type="curve" smooth="yes"/>
      <point x="167" y="452"/>
      <point x="152" y="391"/>
      <point x="152" y="369" type="curve" smooth="yes"/>
      <point x="152" y="336"/>
      <point x="186" y="310"/>
      <point x="205" y="299" type="curve"/>
      <point x="170" y="278"/>
      <point x="134" y="247"/>
      <point x="127" y="202" type="curve" smooth="yes"/>
      <point x="121" y="163"/>
      <point x="124" y="31"/>
      <point x="117" y="-14" type="curve" smooth="yes"/>
      <point x="115" y="-29"/>
      <point x="111" y="-37"/>
      <point x="105" y="-45" type="curve" smooth="yes"/>
      <point x="78" y="-81"/>
      <point x="41" y="-91"/>
      <point x="-23" y="-103" type="curve"/>
      <point x="-6" y="-170" type="line"/>
    </contour>
  </outline>
</glyph>
<glyph name="asciitilde" format="1">
  <advance width="543"/>
  <unicode hex="007E"/>
  <outline>
    <contour>
      <point x="131" y="265"/>
      <point x="159" y="275"/>
      <point x="188" y="275" type="curve" smooth="yes"/>
      <point x="232" y="275"/>
      <point x="265" y="242"/>
      <point x="330" y="242" type="curve" smooth="yes"/>
      <point x="345" y="242" type="line"/>
      <point x="384" y="245"/>
      <point x="426" y="262"/>
      <point x="465" y="294" type="curve"/>
      <point x="421" y="354" type="line"/>
      <point x="389" y="328"/>
      <point x="365" y="317"/>
      <point x="332" y="317" type="curve" smooth="yes"/>
      <point x="286" y="317"/>
      <point x="269" y="349"/>
      <point x="189" y="349" type="curve" smooth="yes"/>
      <point x="139" y="349"/>
      <point x="102" y="333"/>
      <point x="56" y="298" type="curve"/>
      <point x="99" y="238" type="line"/>
    </contour>
  </outline>
</glyph>
<glyph name="cent" format="1">
  <advance width="548"/>
  <unicode hex="00A2"/>
  <outline>
    <contour>
      <point x="292" y="-1" type="line"/>
      <point x="303" y="62" type="line"/>
      <point x="334" y="65"/>
      <point x="362" y="72"/>
      <point x="387" y="79" type="curve" smooth="yes"/>
      <point x="432" y="96"/>
      <point x="464" y="118"/>
      <point x="475" y="126" type="curve"/>
      <point x="442" y="186" type="line"/>
      <point x="401" y="168"/>
      <point x="367" y="144"/>
      <point x="309" y="137" type="curve"/>
      <point x="366" y="513" type="line"/>
      <point x="386" y="507"/>
      <point x="401" y="497"/>
      <point x="411" y="489" type="curve" smooth="yes"/>
      <point x="420" y="477"/>
      <point x="423" y="463"/>
      <point x="423" y="448" type="curve" smooth="yes"/>
      <point x="423" y="439"/>
      <point x="422" y="429"/>
      <point x="420" y="419" type="curve"/>
      <point x="498" y="415" type="line"/>
      <point x="500" y="426"/>
      <point x="501" y="436"/>
      <point x="501" y="447" type="curve" smooth="yes"/>
      <point x="501" y="481"/>
      <point x="489" y="512"/>
      <point x="467" y="535" type="curve" smooth="yes"/>
      <point x="448" y="556"/>
      <point x="413" y="577"/>
      <point x="372" y="584" type="curve"/>
      <point x="388" y="685" type="line"/>
      <point x="305" y="685" type="line"/>
      <point x="289" y="582" type="line"/>
      <point x="235" y="571"/>
      <point x="187" y="540"/>
      <point x="149" y="497" type="curve" smooth="yes"/>
      <point x="110" y="448"/>
      <point x="86" y="390"/>
      <point x="76" y="321" type="curve" smooth="yes"/>
      <point x="73" y="302"/>
      <point x="72" y="283"/>
      <point x="72" y="266" type="curve" smooth="yes"/>
      <point x="72" y="219"/>
      <point x="82" y="179"/>
      <point x="99" y="149" type="curve" smooth="yes"/>
      <point x="121" y="105"/>
      <point x="164" y="76"/>
      <point x="220" y="65" type="curve"/>
      <point x="209" y="-1" type="line"/>
    </contour>
    <contour>
      <point x="200" y="151"/>
      <point x="182" y="165"/>
      <point x="165" y="188" type="curve" smooth="yes"/>
      <point x="153" y="210"/>
      <point x="147" y="234"/>
      <point x="147" y="264" type="curve" smooth="yes"/>
      <point x="147" y="275"/>
      <point x="148" y="287"/>
      <point x="150" y="301" type="curve" smooth="yes"/>
      <point x="157" y="350"/>
      <point x="174" y="397"/>
      <point x="201" y="434" type="curve" smooth="yes"/>
      <point x="219" y="465"/>
      <point x="247" y="494"/>
      <point x="282" y="507" type="curve"/>
      <point x="227" y="142" type="line"/>
    </contour>
  </outline>
</glyph>
<glyph name="sterling" format="2">
	<advance width="565"/>
	<unicode hex="00A3"/>
	<outline>
		<contour>
			<point x="355" y="-13" type="curve" smooth="yes"/>
			<point x="394" y="-13"/>
			<point x="440" y="3"/>
			<point x="486" y="36" type="curve"/>
			<point x="456" y="106" type="line"/>
			<point x="412" y="76"/>
			<point x="383" y="64"/>
			<point x="347" y="64" type="curve" smooth="yes"/>
			<point x="335" y="64"/>
			<point x="321" y="66"/>
			<point x="302" y="70" type="curve"/>
			<point x="284" y="73"/>
			<point x="277" y="74"/>
			<point x="193" y="104" type="curve"/>
			<point x="197" y="113" type="line"/>
			<point x="200" y="131" type="line"/>
			<point x="223" y="293" type="line"/>
			<point x="372" y="293" type="line"/>
			<point x="383" y="372" type="line"/>
			<point x="234" y="372" type="line"/>
			<point x="249" y="480" type="line" smooth="yes"/>
			<point x="254" y="516"/>
			<point x="268" y="543"/>
			<point x="292" y="561" type="curve" smooth="yes"/>
			<point x="313" y="581"/>
			<point x="343" y="592"/>
			<point x="385" y="592" type="curve" smooth="yes"/>
			<point x="425" y="592"/>
			<point x="457" y="588"/>
			<point x="509" y="572" type="curve"/>
			<point x="515" y="644" type="line"/>
			<point x="478" y="659"/>
			<point x="437" y="666"/>
			<point x="394" y="666" type="curve" smooth="yes"/>
			<point x="336" y="666"/>
			<point x="279" y="653"/>
			<point x="234" y="617" type="curve" smooth="yes"/>
			<point x="194" y="581"/>
			<point x="174" y="535"/>
			<point x="167" y="484" type="curve" smooth="yes"/>
			<point x="151" y="372" type="line"/>
			<point x="72" y="372" type="line"/>
			<point x="61" y="293" type="line"/>
			<point x="140" y="293" type="line"/>
			<point x="118" y="133" type="line" smooth="yes"/>
			<point x="114" y="106"/>
			<point x="108" y="86"/>
			<point x="99" y="73" type="curve" smooth="yes"/>
			<point x="88" y="49"/>
			<point x="79" y="33"/>
			<point x="67" y="17" type="curve"/>
			<point x="124" y="-12" type="line"/>
			<point x="138" y="-11" type="line"/>
			<point x="146" y="-5"/>
			<point x="157" y="12"/>
			<point x="166" y="27" type="curve"/>
			<point x="226" y="10" type="line"/>
			<point x="244" y="3"/>
			<point x="263" y="-3"/>
			<point x="286" y="-7" type="curve" smooth="yes"/>
			<point x="304" y="-11"/>
			<point x="328" y="-13"/>
		</contour>
	</outline>
</glyph>
<glyph name="currency" format="1">
  <advance width="704"/>
  <unicode hex="00A4"/>
  <outline>
    <contour>
      <point x="203" y="90" type="line"/>
      <point x="216" y="80"/>
      <point x="233" y="71"/>
      <point x="253" y="66" type="curve" smooth="yes"/>
      <point x="272" y="58"/>
      <point x="297" y="53"/>
      <point x="327" y="53" type="curve" smooth="yes"/>
      <point x="353" y="53"/>
      <point x="380" y="56"/>
      <point x="405" y="63" type="curve" smooth="yes"/>
      <point x="423" y="71"/>
      <point x="442" y="80"/>
      <point x="459" y="89" type="curve"/>
      <point x="551" y="-15" type="line"/>
      <point x="615" y="44" type="line"/>
      <point x="527" y="144" type="line"/>
      <point x="543" y="162"/>
      <point x="556" y="182"/>
      <point x="567" y="201" type="curve" smooth="yes"/>
      <point x="578" y="227"/>
      <point x="585" y="257"/>
      <point x="589" y="286" type="curve" smooth="yes"/>
      <point x="591" y="301"/>
      <point x="592" y="316"/>
      <point x="592" y="330" type="curve" smooth="yes"/>
      <point x="592" y="370"/>
      <point x="584" y="405"/>
      <point x="568" y="433" type="curve"/>
      <point x="684" y="537" type="line"/>
      <point x="633" y="596" type="line"/>
      <point x="512" y="490" type="line"/>
      <point x="498" y="500"/>
      <point x="480" y="509"/>
      <point x="461" y="514" type="curve" smooth="yes"/>
      <point x="441" y="523"/>
      <point x="416" y="528"/>
      <point x="386" y="528" type="curve" smooth="yes"/>
      <point x="360" y="528"/>
      <point x="334" y="525"/>
      <point x="309" y="518" type="curve" smooth="yes"/>
      <point x="292" y="511"/>
      <point x="272" y="502"/>
      <point x="255" y="492" type="curve"/>
      <point x="165" y="596" type="line"/>
      <point x="100" y="537" type="line"/>
      <point x="187" y="437" type="line"/>
      <point x="171" y="419"/>
      <point x="158" y="399"/>
      <point x="147" y="380" type="curve" smooth="yes"/>
      <point x="135" y="353"/>
      <point x="128" y="323"/>
      <point x="124" y="294" type="curve" smooth="yes"/>
      <point x="122" y="279"/>
      <point x="121" y="264"/>
      <point x="121" y="250" type="curve" smooth="yes"/>
      <point x="121" y="210"/>
      <point x="130" y="175"/>
      <point x="146" y="146" type="curve"/>
      <point x="31" y="44" type="line"/>
      <point x="83" y="-15" type="line"/>
    </contour>
    <contour>
      <point x="309" y="128"/>
      <point x="290" y="130"/>
      <point x="270" y="137" type="curve" smooth="yes"/>
      <point x="254" y="146"/>
      <point x="243" y="155"/>
      <point x="230" y="168" type="curve" smooth="yes"/>
      <point x="221" y="184"/>
      <point x="213" y="200"/>
      <point x="207" y="219" type="curve" smooth="yes"/>
      <point x="206" y="228"/>
      <point x="205" y="237"/>
      <point x="205" y="247" type="curve" smooth="yes"/>
      <point x="205" y="260"/>
      <point x="206" y="273"/>
      <point x="208" y="286" type="curve" smooth="yes"/>
      <point x="212" y="313"/>
      <point x="219" y="335"/>
      <point x="230" y="354" type="curve" smooth="yes"/>
      <point x="239" y="377"/>
      <point x="251" y="393"/>
      <point x="267" y="405" type="curve" smooth="yes"/>
      <point x="281" y="421"/>
      <point x="299" y="432"/>
      <point x="321" y="439" type="curve" smooth="yes"/>
      <point x="340" y="448"/>
      <point x="347" y="452"/>
      <point x="384" y="452" type="curve" smooth="yes"/>
      <point x="429" y="452"/>
      <point x="461" y="440"/>
      <point x="486" y="413" type="curve"/>
      <point x="502" y="390"/>
      <point x="510" y="364"/>
      <point x="510" y="332" type="curve" smooth="yes"/>
      <point x="510" y="321"/>
      <point x="509" y="309"/>
      <point x="507" y="296" type="curve" smooth="yes"/>
      <point x="504" y="269"/>
      <point x="497" y="248"/>
      <point x="486" y="229" type="curve" smooth="yes"/>
      <point x="477" y="206"/>
      <point x="465" y="190"/>
      <point x="449" y="177" type="curve"/>
      <point x="433" y="161"/>
      <point x="416" y="149"/>
      <point x="395" y="142" type="curve" smooth="yes"/>
      <point x="376" y="132"/>
      <point x="356" y="128"/>
      <point x="331" y="128" type="curve" smooth="yes"/>
    </contour>
  </outline>
</glyph>
<glyph name="yen" format="1">
  <advance width="641"/>
  <unicode hex="00A5"/>
  <outline>
    <contour>
      <point x="314" y="-1" type="line"/>
      <point x="337" y="163" type="line"/>
      <point x="522" y="163" type="line"/>
      <point x="532" y="238" type="line"/>
      <point x="347" y="238" type="line"/>
      <point x="357" y="300" type="line"/>
      <point x="362" y="308" type="line"/>
      <point x="541" y="308" type="line"/>
      <point x="552" y="384" type="line"/>
      <point x="417" y="384" type="line"/>
      <point x="631" y="663" type="line"/>
      <point x="534" y="663" type="line"/>
      <point x="325" y="390" type="line"/>
      <point x="191" y="663" type="line"/>
      <point x="98" y="663" type="line"/>
      <point x="237" y="384" type="line"/>
      <point x="97" y="384" type="line"/>
      <point x="86" y="308" type="line"/>
      <point x="270" y="308" type="line"/>
      <point x="273" y="300" type="line"/>
      <point x="263" y="238" type="line"/>
      <point x="77" y="238" type="line"/>
      <point x="67" y="163" type="line"/>
      <point x="255" y="163" type="line"/>
      <point x="232" y="-1" type="line"/>
    </contour>
  </outline>
</glyph>
<glyph name="brokenbar" format="1">
  <advance width="220"/>
  <unicode hex="00A6"/>
  <outline>
    <contour>
      <point x="92" y="-68" type="line"/>
      <point x="146" y="314" type="line"/>
      <point x="64" y="314" type="line"/>
      <point x="10" y="-68" type="line"/>
    </contour>
    <contour>
      <point x="154" y="368" type="line"/>
      <point x="207" y="750" type="line"/>
      <point x="125" y="750" type="line"/>
      <point x="72" y="368" type="line"/>
    </contour>
  </outline>
</glyph>
<glyph name="section" format="1">
  <advance width="429"/>
  <unicode hex="00A7"/>
  <outline>
    <contour>
      <point x="131" y="-57"/>
      <point x="190" y="-39"/>
      <point x="230" y="-17" type="curve" smooth="yes"/>
      <point x="271" y="10"/>
      <point x="299" y="49"/>
      <point x="299" y="101" type="curve" smooth="yes"/>
      <point x="299" y="125"/>
      <point x="293" y="146"/>
      <point x="284" y="164" type="curve"/>
      <point x="299" y="174"/>
      <point x="307" y="180"/>
      <point x="315" y="186" type="curve" smooth="yes"/>
      <point x="343" y="220"/>
      <point x="356" y="270"/>
      <point x="356" y="300" type="curve" smooth="yes"/>
      <point x="356" y="336"/>
      <point x="340" y="364"/>
      <point x="314" y="388" type="curve" smooth="yes"/>
      <point x="290" y="418"/>
      <point x="262" y="432"/>
      <point x="233" y="454" type="curve" smooth="yes"/>
      <point x="215" y="472"/>
      <point x="202" y="488"/>
      <point x="202" y="510" type="curve" smooth="yes"/>
      <point x="202" y="535"/>
      <point x="214" y="555"/>
      <point x="242" y="566" type="curve"/>
      <point x="260" y="577"/>
      <point x="305" y="592"/>
      <point x="366" y="603" type="curve"/>
      <point x="353" y="677" type="line"/>
      <point x="283" y="668"/>
      <point x="225" y="649"/>
      <point x="185" y="627" type="curve" smooth="yes"/>
      <point x="139" y="597"/>
      <point x="116" y="556"/>
      <point x="116" y="505" type="curve" smooth="yes"/>
      <point x="116" y="483"/>
      <point x="122" y="463"/>
      <point x="130" y="447" type="curve"/>
      <point x="120" y="439"/>
      <point x="110" y="432"/>
      <point x="99" y="424" type="curve"/>
      <point x="78" y="396"/>
      <point x="60" y="357"/>
      <point x="60" y="311" type="curve" smooth="yes"/>
      <point x="60" y="275"/>
      <point x="74" y="247"/>
      <point x="100" y="222" type="curve" smooth="yes"/>
      <point x="125" y="193"/>
      <point x="154" y="178"/>
      <point x="182" y="156" type="curve" smooth="yes"/>
      <point x="200" y="138"/>
      <point x="213" y="123"/>
      <point x="213" y="100" type="curve" smooth="yes"/>
      <point x="213" y="97"/>
      <point x="212" y="94"/>
      <point x="212" y="91" type="curve" smooth="yes"/>
      <point x="208" y="66"/>
      <point x="195" y="53"/>
      <point x="172" y="44" type="curve" smooth="yes"/>
      <point x="148" y="30"/>
      <point x="101" y="17"/>
      <point x="49" y="7" type="curve"/>
      <point x="61" y="-67" type="line"/>
    </contour>
    <contour>
      <point x="210" y="239"/>
      <point x="187" y="252"/>
      <point x="167" y="269" type="curve" smooth="yes"/>
      <point x="153" y="285"/>
      <point x="143" y="298"/>
      <point x="143" y="316" type="curve" smooth="yes"/>
      <point x="143" y="348"/>
      <point x="159" y="371"/>
      <point x="186" y="387" type="curve"/>
      <point x="204" y="371"/>
      <point x="227" y="357"/>
      <point x="249" y="341" type="curve"/>
      <point x="261" y="325"/>
      <point x="271" y="311"/>
      <point x="271" y="292" type="curve" smooth="yes"/>
      <point x="271" y="270"/>
      <point x="259" y="240"/>
      <point x="229" y="223" type="curve"/>
    </contour>
  </outline>
</glyph>
<glyph name="copyright" format="1">
  <advance width="746"/>
  <unicode hex="00A9"/>
  <outline>
    <contour>
      <point x="496" y="-59"/>
      <point x="640" y="68"/>
      <point x="663" y="245" type="curve" smooth="yes"/>
      <point x="665" y="261"/>
      <point x="666" y="278"/>
      <point x="666" y="293" type="curve" smooth="yes"/>
      <point x="666" y="443"/>
      <point x="563" y="555"/>
      <point x="398" y="555" type="curve" smooth="yes"/>
      <point x="219" y="555"/>
      <point x="78" y="431"/>
      <point x="53" y="251" type="curve" smooth="yes"/>
      <point x="51" y="234"/>
      <point x="50" y="218"/>
      <point x="50" y="202" type="curve" smooth="yes"/>
      <point x="50" y="51"/>
      <point x="151" y="-59"/>
      <point x="318" y="-59" type="curve" smooth="yes"/>
    </contour>
    <contour>
      <point x="395" y="87"/>
      <point x="436" y="106"/>
      <point x="470" y="130" type="curve"/>
      <point x="440" y="189" type="line"/>
      <point x="413" y="170"/>
      <point x="389" y="155"/>
      <point x="358" y="155" type="curve" smooth="yes"/>
      <point x="321" y="155"/>
      <point x="298" y="181"/>
      <point x="298" y="226" type="curve" smooth="yes"/>
      <point x="298" y="274"/>
      <point x="326" y="347"/>
      <point x="384" y="347" type="curve" smooth="yes"/>
      <point x="406" y="347"/>
      <point x="432" y="336"/>
      <point x="441" y="332" type="curve"/>
      <point x="457" y="341" type="line"/>
      <point x="463" y="390" type="line"/>
      <point x="452" y="405"/>
      <point x="407" y="415"/>
      <point x="379" y="415" type="curve" smooth="yes"/>
      <point x="285" y="415"/>
      <point x="224" y="314"/>
      <point x="224" y="224" type="curve" smooth="yes"/>
      <point x="224" y="149"/>
      <point x="266" y="87"/>
      <point x="350" y="87" type="curve" smooth="yes"/>
    </contour>
    <contour>
      <point x="197" y="10"/>
      <point x="124" y="85"/>
      <point x="124" y="201" type="curve" smooth="yes"/>
      <point x="124" y="215"/>
      <point x="125" y="230"/>
      <point x="127" y="245" type="curve" smooth="yes"/>
      <point x="146" y="385"/>
      <point x="258" y="485"/>
      <point x="396" y="485" type="curve" smooth="yes"/>
      <point x="519" y="485"/>
      <point x="592" y="418"/>
      <point x="592" y="296" type="curve" smooth="yes"/>
      <point x="592" y="283"/>
      <point x="591" y="270"/>
      <point x="589" y="256" type="curve" smooth="yes"/>
      <point x="570" y="119"/>
      <point x="461" y="10"/>
      <point x="320" y="10" type="curve" smooth="yes"/>
    </contour>
  </outline>
</glyph>
<glyph name="ordfeminine" format="2">
	<advance width="388"/>
	<unicode hex="00AA"/>
	<outline>
		<contour>
			<point x="193" y="386" type="curve" smooth="yes"/>
			<point x="217" y="386"/>
			<point x="242" y="394"/>
			<point x="262" y="410" type="curve"/>
			<point x="270" y="397"/>
			<point x="286" y="386"/>
			<point x="309" y="386" type="curve" smooth="yes"/>
			<point x="336" y="386"/>
			<point x="354" y="401"/>
			<point x="371" y="423" type="curve"/>
			<point x="327" y="454" type="line"/>
			<point x="311" y="451" type="line"/>
			<point x="309" y="449"/>
			<point x="315" y="451"/>
			<point x="314" y="451" type="curve" smooth="yes"/>
			<point x="313" y="451"/>
			<point x="317" y="450"/>
			<point x="317" y="450" type="curve"/>
			<point x="348" y="672" type="line"/>
			<point x="296" y="672" type="line" smooth="yes"/>
			<point x="283" y="672"/>
			<point x="256" y="676"/>
			<point x="237" y="676" type="curve" smooth="yes"/>
			<point x="221" y="676"/>
			<point x="201" y="672"/>
			<point x="182" y="666" type="curve" smooth="yes"/>
			<point x="134" y="642"/>
			<point x="88" y="588"/>
			<point x="88" y="514" type="curve" smooth="yes"/>
			<point x="88" y="454"/>
			<point x="118" y="386"/>
		</contour>
		<contour>
			<point x="194" y="455" type="curve" smooth="yes"/>
			<point x="168" y="455"/>
			<point x="155" y="483"/>
			<point x="155" y="513" type="curve" smooth="yes"/>
			<point x="155" y="570"/>
			<point x="195" y="606"/>
			<point x="242" y="606" type="curve" smooth="yes"/>
			<point x="245" y="606"/>
			<point x="248" y="605"/>
			<point x="258" y="604" type="curve" smooth="yes"/>
			<point x="271" y="603" type="line"/>
			<point x="255" y="502" type="line"/>
			<point x="248" y="492" type="line"/>
			<point x="240" y="477"/>
			<point x="221" y="455"/>
		</contour>
	</outline>
</glyph>
<glyph name="guillemetleft" format="2">
	<advance width="553"/>
	<unicode hex="00AB"/>
	<outline>
		<contour>
			<point x="439" y="13" type="line"/>
			<point x="497" y="70" type="line"/>
			<point x="314" y="255" type="line"/>
			<point x="549" y="439" type="line"/>
			<point x="503" y="496" type="line"/>
			<point x="269" y="311" type="line" smooth="yes"/>
			<point x="245" y="291"/>
			<point x="230" y="272"/>
			<point x="228" y="259" type="curve" smooth="yes"/>
			<point x="225" y="239"/>
			<point x="238" y="219"/>
			<point x="257" y="200" type="curve" smooth="yes"/>
		</contour>
		<contour>
			<point x="235" y="13" type="line"/>
			<point x="293" y="70" type="line"/>
			<point x="110" y="255" type="line"/>
			<point x="345" y="439" type="line"/>
			<point x="299" y="496" type="line"/>
			<point x="65" y="311" type="line" smooth="yes"/>
			<point x="41" y="291"/>
			<point x="26" y="272"/>
			<point x="24" y="259" type="curve" smooth="yes"/>
			<point x="21" y="239"/>
			<point x="34" y="219"/>
			<point x="53" y="200" type="curve" smooth="yes"/>
		</contour>
	</outline>
</glyph>
<glyph name="logicalnot" format="1">
  <advance width="501"/>
  <unicode hex="00AC"/>
  <outline>
    <contour>
      <point x="403" y="142" type="line"/>
      <point x="430" y="335" type="line"/>
      <point x="57" y="335" type="line"/>
      <point x="46" y="256" type="line"/>
      <point x="335" y="256" type="line"/>
      <point x="319" y="142" type="line"/>
    </contour>
  </outline>
</glyph>
<glyph name="registered" format="1">
  <advance width="746"/>
  <unicode hex="00AE"/>
  <outline>
    <contour>
      <point x="522" y="113"/>
      <point x="663" y="237"/>
      <point x="687" y="416" type="curve" smooth="yes"/>
      <point x="689" y="433"/>
      <point x="691" y="450"/>
      <point x="691" y="466" type="curve" smooth="yes"/>
      <point x="691" y="614"/>
      <point x="585" y="727"/>
      <point x="422" y="727" type="curve" smooth="yes"/>
      <point x="247" y="727"/>
      <point x="103" y="605"/>
      <point x="77" y="423" type="curve" smooth="yes"/>
      <point x="75" y="406"/>
      <point x="74" y="390"/>
      <point x="74" y="374" type="curve" smooth="yes"/>
      <point x="74" y="223"/>
      <point x="175" y="113"/>
      <point x="343" y="113" type="curve" smooth="yes"/>
    </contour>
    <contour>
      <point x="219" y="182"/>
      <point x="148" y="255"/>
      <point x="148" y="373" type="curve" smooth="yes"/>
      <point x="148" y="387"/>
      <point x="149" y="401"/>
      <point x="151" y="416" type="curve" smooth="yes"/>
      <point x="170" y="554"/>
      <point x="278" y="657"/>
      <point x="420" y="657" type="curve" smooth="yes"/>
      <point x="543" y="657"/>
      <point x="616" y="591"/>
      <point x="616" y="469" type="curve" smooth="yes"/>
      <point x="616" y="455"/>
      <point x="615" y="441"/>
      <point x="613" y="427" type="curve" smooth="yes"/>
      <point x="593" y="290"/>
      <point x="485" y="182"/>
      <point x="344" y="182" type="curve" smooth="yes"/>
    </contour>
    <contour>
      <point x="324" y="232" type="line"/>
      <point x="345" y="377" type="line"/>
      <point x="357" y="377" type="line" smooth="yes"/>
      <point x="393" y="377"/>
      <point x="412" y="363"/>
      <point x="420" y="330" type="curve" smooth="yes"/>
      <point x="442" y="234" type="line"/>
      <point x="511" y="263" type="line"/>
      <point x="483" y="361" type="line" smooth="yes"/>
      <point x="479" y="374"/>
      <point x="472" y="389"/>
      <point x="463" y="398" type="curve"/>
      <point x="497" y="420"/>
      <point x="521" y="456"/>
      <point x="521" y="499" type="curve" smooth="yes"/>
      <point x="521" y="557"/>
      <point x="475" y="598"/>
      <point x="408" y="598" type="curve" smooth="yes"/>
      <point x="386" y="598"/>
      <point x="370" y="593"/>
      <point x="351" y="593" type="curve" smooth="yes"/>
      <point x="306" y="593" type="line"/>
      <point x="291" y="495" type="line"/>
      <point x="268" y="331" type="line"/>
      <point x="255" y="232" type="line"/>
    </contour>
    <contour>
      <point x="368" y="527" type="line"/>
      <point x="384" y="530"/>
      <point x="397" y="530"/>
      <point x="400" y="530" type="curve" smooth="yes"/>
      <point x="433" y="530"/>
      <point x="452" y="518"/>
      <point x="452" y="495" type="curve" smooth="yes"/>
      <point x="452" y="464"/>
      <point x="429" y="439"/>
      <point x="397" y="439" type="curve" smooth="yes"/>
      <point x="354" y="439" type="line"/>
    </contour>
  </outline>
</glyph>
<glyph name="macron" format="1">
  <advance width="459"/>
  <unicode hex="00AF"/>
  <outline>
    <contour>
      <point x="435" y="588" type="line"/>
      <point x="446" y="666" type="line"/>
      <point x="106" y="666" type="line"/>
      <point x="95" y="588" type="line"/>
    </contour>
    <contour>
      <point x="250" y="496" type="move" name="_top"/>
    </contour>
  </outline>
</glyph>
<glyph name="degree" format="1">
  <advance width="415"/>
  <unicode hex="00B0"/>
  <outline>
    <contour>
      <point x="285" y="384"/>
      <point x="373" y="432"/>
      <point x="373" y="545" type="curve" smooth="yes"/>
      <point x="373" y="619"/>
      <point x="324" y="667"/>
      <point x="249" y="667" type="curve" smooth="yes"/>
      <point x="183" y="667"/>
      <point x="106" y="626"/>
      <point x="92" y="530" type="curve" smooth="yes"/>
      <point x="91" y="522"/>
      <point x="90" y="514"/>
      <point x="90" y="506" type="curve" smooth="yes"/>
      <point x="90" y="432"/>
      <point x="140" y="384"/>
      <point x="214" y="384" type="curve" smooth="yes"/>
    </contour>
    <contour>
      <point x="184" y="454"/>
      <point x="165" y="475"/>
      <point x="165" y="506" type="curve" smooth="yes"/>
      <point x="165" y="556"/>
      <point x="199" y="596"/>
      <point x="246" y="596" type="curve" smooth="yes"/>
      <point x="280" y="596"/>
      <point x="298" y="576"/>
      <point x="298" y="544" type="curve" smooth="yes"/>
      <point x="298" y="492"/>
      <point x="265" y="454"/>
      <point x="218" y="454" type="curve" smooth="yes"/>
    </contour>
  </outline>
</glyph>
<glyph name="plusminus" format="2">
	<advance width="521"/>
	<unicode hex="00B1"/>
	<outline>
		<contour>
			<point x="201" y="103" type="line"/>
			<point x="279" y="103" type="line"/>
			<point x="301" y="259" type="line"/>
			<point x="454" y="259" type="line"/>
			<point x="465" y="332" type="line"/>
			<point x="312" y="332" type="line"/>
			<point x="333" y="487" type="line"/>
			<point x="255" y="487" type="line"/>
			<point x="234" y="332" type="line"/>
			<point x="81" y="332" type="line"/>
			<point x="70" y="259" type="line"/>
			<point x="223" y="259" type="line"/>
		</contour>
		<contour>
			<point x="34" y="-1" type="line"/>
			<point x="418" y="-1" type="line"/>
			<point x="428" y="73" type="line"/>
			<point x="44" y="73" type="line"/>
		</contour>
	</outline>
</glyph>
<glyph name="acute" format="1">
  <advance width="334"/>
  <unicode hex="00B4"/>
  <outline>
    <contour>
      <point x="322" y="665" type="line"/>
      <point x="280" y="732" type="line"/>
      <point x="92" y="597" type="line"/>
      <point x="120" y="545" type="line"/>
    </contour>
    <contour>
      <point x="121" y="496" type="move" name="_top"/>
    </contour>
  </outline>
</glyph>
<glyph name="micro" format="1">
  <advance width="540"/>
  <unicode hex="00B5"/>
  <outline>
    <contour>
      <point x="53" y="-243" type="line"/>
      <point x="90" y="9" type="line"/>
      <point x="99" y="5"/>
      <point x="108" y="1"/>
      <point x="121" y="-1" type="curve" smooth="yes"/>
      <point x="136" y="-7"/>
      <point x="157" y="-10"/>
      <point x="183" y="-10" type="curve" smooth="yes"/>
      <point x="242" y="-10"/>
      <point x="298" y="15"/>
      <point x="347" y="68" type="curve"/>
      <point x="348" y="60"/>
      <point x="351" y="50"/>
      <point x="355" y="43" type="curve"/>
      <point x="362" y="22"/>
      <point x="377" y="2"/>
      <point x="396" y="-11" type="curve"/>
      <point x="448" y="34" type="line"/>
      <point x="428" y="53"/>
      <point x="419" y="78"/>
      <point x="419" y="112" type="curve" smooth="yes"/>
      <point x="419" y="123"/>
      <point x="420" y="135"/>
      <point x="422" y="149" type="curve" smooth="yes"/>
      <point x="472" y="506" type="line"/>
      <point x="395" y="506" type="line"/>
      <point x="345" y="158" type="line"/>
      <point x="320" y="129"/>
      <point x="295" y="105"/>
      <point x="269" y="90" type="curve" smooth="yes"/>
      <point x="247" y="73"/>
      <point x="223" y="64"/>
      <point x="191" y="64" type="curve" smooth="yes"/>
      <point x="155" y="64"/>
      <point x="133" y="68"/>
      <point x="119" y="83" type="curve" smooth="yes"/>
      <point x="111" y="95"/>
      <point x="107" y="110"/>
      <point x="107" y="130" type="curve" smooth="yes"/>
      <point x="107" y="143"/>
      <point x="109" y="159"/>
      <point x="113" y="178" type="curve"/>
      <point x="111" y="180" type="line"/>
      <point x="158" y="506" type="line"/>
      <point x="81" y="506" type="line"/>
      <point x="-24" y="-243" type="line"/>
    </contour>
  </outline>
</glyph>
<glyph name="paragraph" format="1">
  <advance width="524"/>
  <unicode hex="00B6"/>
  <outline>
    <contour>
      <point x="269" y="0" type="line"/>
      <point x="345" y="540" type="line"/>
      <point x="401" y="540" type="line"/>
      <point x="325" y="0" type="line"/>
      <point x="405" y="0" type="line"/>
      <point x="492" y="618" type="line"/>
      <point x="402" y="621" type="line"/>
      <point x="356" y="621" type="line" smooth="yes"/>
      <point x="251" y="621"/>
      <point x="174" y="608"/>
      <point x="127" y="580" type="curve" smooth="yes"/>
      <point x="82" y="550"/>
      <point x="55" y="500"/>
      <point x="46" y="433" type="curve" smooth="yes"/>
      <point x="44" y="420"/>
      <point x="43" y="408"/>
      <point x="43" y="396" type="curve" smooth="yes"/>
      <point x="43" y="355"/>
      <point x="54" y="322"/>
      <point x="75" y="299" type="curve" smooth="yes"/>
      <point x="100" y="270"/>
      <point x="152" y="251"/>
      <point x="225" y="243" type="curve"/>
      <point x="189" y="0" type="line"/>
    </contour>
  </outline>
</glyph>
<glyph name="periodcentered" format="2">
	<advance width="265"/>
	<unicode hex="00B7"/>
	<outline>
		<contour>
			<point x="137" y="258" type="curve" smooth="yes"/>
			<point x="174" y="258"/>
			<point x="212" y="295"/>
			<point x="212" y="334" type="curve" smooth="yes"/>
			<point x="212" y="369"/>
			<point x="184" y="397"/>
			<point x="149" y="397" type="curve" smooth="yes"/>
			<point x="114" y="397"/>
			<point x="78" y="367"/>
			<point x="74" y="332" type="curve" smooth="yes"/>
			<point x="73" y="329"/>
			<point x="73" y="325"/>
			<point x="73" y="322" type="curve" smooth="yes"/>
			<point x="73" y="287"/>
			<point x="101" y="258"/>
		</contour>
	</outline>
</glyph>
<glyph name="cedilla" format="1">
  <advance width="281"/>
  <unicode hex="00B8"/>
  <outline>
    <contour>
      <point x="100" y="-233"/>
      <point x="152" y="-157"/>
      <point x="152" y="-102" type="curve" smooth="yes"/>
      <point x="152" y="-65"/>
      <point x="135" y="-29"/>
      <point x="95" y="-18" type="curve"/>
      <point x="116" y="33" type="line"/>
      <point x="32" y="33" type="line"/>
      <point x="3" y="-83" type="line"/>
      <point x="48" y="-83" type="line" smooth="yes"/>
      <point x="70" y="-83"/>
      <point x="78" y="-90"/>
      <point x="78" y="-103" type="curve" smooth="yes"/>
      <point x="78" y="-126"/>
      <point x="58" y="-151"/>
      <point x="33" y="-151" type="curve" smooth="yes"/>
      <point x="31" y="-151"/>
      <point x="27" y="-151"/>
      <point x="23" y="-150" type="curve"/>
      <point x="16" y="-225" type="line"/>
    </contour>
    <contour>
      <point x="68" y="11" type="move" name="_bottom"/>
    </contour>
  </outline>
</glyph>
<glyph name="ordmasculine" format="1">
  <advance width="429"/>
  <unicode hex="00BA"/>
  <outline>
    <contour>
      <point x="266" y="397"/>
      <point x="302" y="410"/>
      <point x="335" y="438" type="curve" smooth="yes"/>
      <point x="362" y="466"/>
      <point x="391" y="510"/>
      <point x="391" y="571" type="curve" smooth="yes"/>
      <point x="391" y="605"/>
      <point x="381" y="635"/>
      <point x="362" y="655" type="curve" smooth="yes"/>
      <point x="340" y="684"/>
      <point x="303" y="701"/>
      <point x="259" y="701" type="curve" smooth="yes"/>
      <point x="218" y="701"/>
      <point x="180" y="686"/>
      <point x="149" y="660" type="curve" smooth="yes"/>
      <point x="112" y="624"/>
      <point x="94" y="568"/>
      <point x="94" y="528" type="curve" smooth="yes"/>
      <point x="94" y="496"/>
      <point x="104" y="466"/>
      <point x="122" y="445" type="curve" smooth="yes"/>
      <point x="143" y="415"/>
      <point x="181" y="397"/>
      <point x="226" y="397" type="curve" smooth="yes"/>
    </contour>
    <contour>
      <point x="206" y="464"/>
      <point x="188" y="467"/>
      <point x="175" y="483" type="curve" smooth="yes"/>
      <point x="168" y="496"/>
      <point x="165" y="510"/>
      <point x="165" y="527" type="curve" smooth="yes"/>
      <point x="165" y="535"/>
      <point x="166" y="544"/>
      <point x="167" y="554" type="curve" smooth="yes"/>
      <point x="173" y="602"/>
      <point x="210" y="634"/>
      <point x="258" y="634" type="curve" smooth="yes"/>
      <point x="277" y="634"/>
      <point x="295" y="630"/>
      <point x="309" y="616" type="curve" smooth="yes"/>
      <point x="317" y="604"/>
      <point x="321" y="591"/>
      <point x="321" y="573" type="curve" smooth="yes"/>
      <point x="321" y="537"/>
      <point x="308" y="510"/>
      <point x="288" y="492" type="curve" smooth="yes"/>
      <point x="271" y="472"/>
      <point x="249" y="464"/>
      <point x="224" y="464" type="curve" smooth="yes"/>
    </contour>
  </outline>
</glyph>
<glyph name="guillemetright" format="1">
  <advance width="626"/>
  <unicode hex="00BB"/>
  <outline>
    <contour>
      <point x="508" y="198" type="line" smooth="yes"/>
      <point x="534" y="221"/>
      <point x="548" y="242"/>
      <point x="548" y="256" type="curve" smooth="yes"/>
      <point x="548" y="272"/>
      <point x="536" y="291"/>
      <point x="520" y="309" type="curve" smooth="yes"/>
      <point x="337" y="496" type="line"/>
      <point x="280" y="439" type="line"/>
      <point x="462" y="255" type="line"/>
      <point x="228" y="70" type="line"/>
      <point x="273" y="13" type="line"/>
    </contour>
    <contour>
      <point x="304" y="198" type="line" smooth="yes"/>
      <point x="332" y="221"/>
      <point x="344" y="243"/>
      <point x="344" y="257" type="curve" smooth="yes"/>
      <point x="344" y="274"/>
      <point x="333" y="293"/>
      <point x="315" y="309" type="curve"/>
      <point x="133" y="496" type="line"/>
      <point x="76" y="439" type="line"/>
      <point x="258" y="255" type="line"/>
      <point x="24" y="70" type="line"/>
      <point x="69" y="13" type="line"/>
    </contour>
  </outline>
</glyph>
<glyph name="AE" format="2">
	<advance width="917"/>
	<unicode hex="00C6"/>
	<anchor x="533" y="673" name="top"/>
	<outline>
		<contour>
			<point x="-11" y="-1" type="line"/>
			<point x="88" y="-1" type="line"/>
			<point x="233" y="220" type="line"/>
			<point x="399" y="220" type="line"/>
			<point x="368" y="-1" type="line"/>
			<point x="846" y="-1" type="line"/>
			<point x="857" y="78" type="line"/>
			<point x="462" y="78" type="line"/>
			<point x="496" y="322" type="line"/>
			<point x="803" y="322" type="line"/>
			<point x="814" y="401" type="line"/>
			<point x="507" y="401" type="line"/>
			<point x="536" y="608" type="line"/>
			<point x="911" y="608" type="line"/>
			<point x="922" y="686" type="line"/>
			<point x="446" y="686" type="line"/>
		</contour>
		<contour>
			<point x="282" y="298" type="line"/>
			<point x="461" y="576" type="line"/>
			<point x="442" y="538" type="line"/>
			<point x="410" y="298" type="line"/>
		</contour>
	</outline>
</glyph>
<glyph name="multiply" format="1">
  <advance width="530"/>
  <unicode hex="00D7"/>
  <outline>
    <contour>
      <point x="247" y="213" type="line"/>
      <point x="370" y="68" type="line"/>
      <point x="435" y="127" type="line"/>
      <point x="311" y="271" type="line"/>
      <point x="468" y="409" type="line"/>
      <point x="417" y="465" type="line"/>
      <point x="261" y="326" type="line"/>
      <point x="142" y="465" type="line"/>
      <point x="78" y="407" type="line"/>
      <point x="197" y="268" type="line"/>
      <point x="31" y="124" type="line"/>
      <point x="81" y="67" type="line"/>
    </contour>
  </outline>
</glyph>
<glyph name="Oslash" format="1">
  <advance width="786"/>
  <unicode hex="00D8"/>
  <outline>
    <component base="O"/>
    <component base="slash" xOffset="239"/>
    <contour>
      <point x="452" y="708" type="move" name="top"/>
    </contour>
  </outline>
</glyph>
<glyph name="Thorn" format="2">
	<advance width="543"/>
	<unicode hex="00DE"/>
	<outline>
		<contour>
			<point x="51" y="-1" type="line"/>
			<point x="133" y="-1" type="line"/>
			<point x="202" y="493" type="line"/>
			<point x="325" y="493" type="line" smooth="yes"/>
			<point x="399" y="493"/>
			<point x="442" y="458"/>
			<point x="442" y="389" type="curve" smooth="yes"/>
			<point x="442" y="380"/>
			<point x="442" y="370"/>
			<point x="440" y="360" type="curve" smooth="yes"/>
			<point x="426" y="255"/>
			<point x="348" y="208"/>
			<point x="253" y="208" type="curve" smooth="yes"/>
			<point x="232" y="208"/>
			<point x="212" y="211"/>
			<point x="187" y="215" type="curve"/>
			<point x="180" y="138" type="line"/>
			<point x="192" y="136"/>
			<point x="214" y="132"/>
			<point x="247" y="132" type="curve" smooth="yes"/>
			<point x="380" y="132"/>
			<point x="499" y="198"/>
			<point x="520" y="349" type="curve" smooth="yes"/>
			<point x="522" y="363"/>
			<point x="523" y="376"/>
			<point x="523" y="389" type="curve" smooth="yes"/>
			<point x="523" y="494"/>
			<point x="458" y="563"/>
			<point x="352" y="569" type="curve"/>
			<point x="213" y="569" type="line"/>
			<point x="229" y="686" type="line"/>
			<point x="147" y="686" type="line"/>
		</contour>
	</outline>
</glyph>
<glyph name="germandbls" format="1">
  <advance width="493"/>
  <unicode hex="00DF"/>
  <outline>
    <contour>
      <point x="78" y="-243" type="line"/>
      <point x="112" y="-2" type="line"/>
      <point x="106" y="-2" type="line"/>
      <point x="187" y="-9"/>
      <point x="210" y="-10"/>
      <point x="229" y="-10" type="curve" smooth="yes"/>
      <point x="339" y="-10"/>
      <point x="444" y="33"/>
      <point x="461" y="160" type="curve" smooth="yes"/>
      <point x="463" y="171"/>
      <point x="464" y="183"/>
      <point x="464" y="196" type="curve" smooth="yes"/>
      <point x="464" y="230"/>
      <point x="455" y="268"/>
      <point x="429" y="297" type="curve" smooth="yes"/>
      <point x="387" y="347"/>
      <point x="317" y="346"/>
      <point x="317" y="399" type="curve" smooth="yes"/>
      <point x="317" y="473"/>
      <point x="438" y="547"/>
      <point x="438" y="618" type="curve" smooth="yes"/>
      <point x="438" y="685"/>
      <point x="389" y="735"/>
      <point x="304" y="735" type="curve" smooth="yes"/>
      <point x="171" y="735"/>
      <point x="123" y="619"/>
      <point x="105" y="492" type="curve" smooth="yes"/>
      <point x="2" y="-243" type="line"/>
    </contour>
    <contour>
      <point x="184" y="64"/>
      <point x="144" y="67"/>
      <point x="120" y="70" type="curve"/>
      <point x="181" y="491" type="line" smooth="yes"/>
      <point x="194" y="581"/>
      <point x="219" y="661"/>
      <point x="300" y="661" type="curve" smooth="yes"/>
      <point x="335" y="661"/>
      <point x="359" y="645"/>
      <point x="359" y="612" type="curve" smooth="yes"/>
      <point x="359" y="565"/>
      <point x="251" y="473"/>
      <point x="242" y="403" type="curve" smooth="yes"/>
      <point x="241" y="399"/>
      <point x="241" y="394"/>
      <point x="241" y="390" type="curve" smooth="yes"/>
      <point x="241" y="318"/>
      <point x="320" y="303"/>
      <point x="361" y="263" type="curve" smooth="yes"/>
      <point x="383" y="237"/>
      <point x="389" y="217"/>
      <point x="389" y="194" type="curve" smooth="yes"/>
      <point x="389" y="185"/>
      <point x="388" y="177"/>
      <point x="387" y="167" type="curve" smooth="yes"/>
      <point x="377" y="93"/>
      <point x="330" y="64"/>
      <point x="223" y="64" type="curve" smooth="yes"/>
    </contour>
  </outline>
</glyph>
<glyph name="aacute" format="1">
  <advance width="625"/>
  <unicode hex="00E1"/>
  <outline>
    <component base="a"/>
    <component base="acutecomb" xOffset="350" yOffset="8"/>
    <contour>
      <point x="59" y="497" type="move" name="_top"/>
    </contour>
  </outline>
</glyph>
<glyph name="ae" format="1">
  <advance width="831"/>
  <unicode hex="00E6"/>
  <outline>
    <contour>
      <point x="223" y="-10"/>
      <point x="269" y="2"/>
      <point x="305" y="23" type="curve" smooth="yes"/>
      <point x="334" y="43"/>
      <point x="350" y="66"/>
      <point x="362" y="87" type="curve"/>
      <point x="374" y="59"/>
      <point x="392" y="39"/>
      <point x="415" y="25" type="curve" smooth="yes"/>
      <point x="444" y="2"/>
      <point x="479" y="-10"/>
      <point x="537" y="-10" type="curve" smooth="yes"/>
      <point x="573" y="-10"/>
      <point x="605" y="-6"/>
      <point x="643" y="5" type="curve" smooth="yes"/>
      <point x="679" y="19"/>
      <point x="708" y="33"/>
      <point x="738" y="53" type="curve"/>
      <point x="705" y="115" type="line"/>
      <point x="681" y="102"/>
      <point x="648" y="87"/>
      <point x="617" y="78" type="curve" smooth="yes"/>
      <point x="591" y="68"/>
      <point x="570" y="64"/>
      <point x="541" y="64" type="curve" smooth="yes"/>
      <point x="491" y="64"/>
      <point x="463" y="75"/>
      <point x="441" y="96" type="curve" smooth="yes"/>
      <point x="422" y="121"/>
      <point x="414" y="151"/>
      <point x="414" y="191" type="curve"/>
      <point x="517" y="193" type="line" smooth="yes"/>
      <point x="544" y="193"/>
      <point x="576" y="197"/>
      <point x="602" y="201" type="curve"/>
      <point x="655" y="213"/>
      <point x="703" y="237"/>
      <point x="734" y="275" type="curve"/>
      <point x="753" y="303"/>
      <point x="764" y="336"/>
      <point x="764" y="373" type="curve" smooth="yes"/>
      <point x="764" y="414"/>
      <point x="747" y="448"/>
      <point x="720" y="471" type="curve" smooth="yes"/>
      <point x="691" y="501"/>
      <point x="643" y="516"/>
      <point x="593" y="516" type="curve" smooth="yes"/>
      <point x="550" y="516"/>
      <point x="518" y="505"/>
      <point x="485" y="486" type="curve" smooth="yes"/>
      <point x="464" y="471"/>
      <point x="444" y="454"/>
      <point x="421" y="427" type="curve"/>
      <point x="416" y="447"/>
      <point x="403" y="467"/>
      <point x="386" y="482" type="curve"/>
      <point x="366" y="502"/>
      <point x="337" y="516"/>
      <point x="285" y="516" type="curve" smooth="yes"/>
      <point x="244" y="516"/>
      <point x="214" y="508"/>
      <point x="183" y="498" type="curve" smooth="yes"/>
      <point x="146" y="483"/>
      <point x="117" y="465"/>
      <point x="93" y="445" type="curve"/>
      <point x="127" y="383" type="line"/>
      <point x="149" y="401"/>
      <point x="180" y="417"/>
      <point x="207" y="425" type="curve" smooth="yes"/>
      <point x="223" y="433"/>
      <point x="254" y="442"/>
      <point x="286" y="442" type="curve" smooth="yes"/>
      <point x="310" y="442"/>
      <point x="330" y="438"/>
      <point x="345" y="422" type="curve" smooth="yes"/>
      <point x="353" y="409"/>
      <point x="357" y="395"/>
      <point x="357" y="375" type="curve" smooth="yes"/>
      <point x="357" y="364"/>
      <point x="356" y="353"/>
      <point x="354" y="339" type="curve" smooth="yes"/>
      <point x="347" y="294" type="line"/>
      <point x="262" y="294" type="line" smooth="yes"/>
      <point x="201" y="294"/>
      <point x="104" y="281"/>
      <point x="55" y="218" type="curve" smooth="yes"/>
      <point x="40" y="196"/>
      <point x="25" y="161"/>
      <point x="25" y="118" type="curve" smooth="yes"/>
      <point x="25" y="79"/>
      <point x="40" y="48"/>
      <point x="63" y="29" type="curve" smooth="yes"/>
      <point x="87" y="4"/>
      <point x="131" y="-10"/>
      <point x="178" y="-10" type="curve" smooth="yes"/>
    </contour>
    <contour>
      <point x="137" y="64"/>
      <point x="103" y="71"/>
      <point x="103" y="117" type="curve" smooth="yes"/>
      <point x="103" y="121"/>
      <point x="103" y="126"/>
      <point x="104" y="132" type="curve" smooth="yes"/>
      <point x="109" y="168"/>
      <point x="125" y="191"/>
      <point x="159" y="204" type="curve" smooth="yes"/>
      <point x="184" y="217"/>
      <point x="221" y="222"/>
      <point x="256" y="222" type="curve" smooth="yes"/>
      <point x="337" y="222" type="line"/>
      <point x="332" y="185" type="line" smooth="yes"/>
      <point x="327" y="149"/>
      <point x="307" y="117"/>
      <point x="278" y="97" type="curve" smooth="yes"/>
      <point x="251" y="73"/>
      <point x="214" y="64"/>
      <point x="175" y="64" type="curve" smooth="yes"/>
    </contour>
    <contour>
      <point x="428" y="307"/>
      <point x="448" y="351"/>
      <point x="479" y="384" type="curve" smooth="yes"/>
      <point x="506" y="418"/>
      <point x="543" y="445"/>
      <point x="597" y="445" type="curve" smooth="yes"/>
      <point x="644" y="445"/>
      <point x="686" y="424"/>
      <point x="686" y="374" type="curve" smooth="yes"/>
      <point x="686" y="344"/>
      <point x="675" y="317"/>
      <point x="649" y="299" type="curve"/>
      <point x="620" y="275"/>
      <point x="570" y="267"/>
      <point x="523" y="267" type="curve" smooth="yes"/>
      <point x="420" y="265" type="line"/>
    </contour>
    <contour>
      <point x="436" y="498" type="move" name="top"/>
    </contour>
  </outline>
</glyph>
<glyph name="eth" format="1">
  <advance width="538"/>
  <unicode hex="00F0"/>
  <outline>
    <contour>
      <point x="382" y="-10"/>
      <point x="482" y="90"/>
      <point x="505" y="255" type="curve" smooth="yes"/>
      <point x="507" y="271"/>
      <point x="508" y="286"/>
      <point x="508" y="301" type="curve" smooth="yes"/>
      <point x="508" y="351"/>
      <point x="496" y="412"/>
      <point x="464" y="573" type="curve"/>
      <point x="560" y="604" type="line"/>
      <point x="550" y="680" type="line"/>
      <point x="449" y="650" type="line"/>
      <point x="426" y="751" type="line"/>
      <point x="346" y="727" type="line"/>
      <point x="371" y="626" type="line"/>
      <point x="280" y="597" type="line"/>
      <point x="289" y="521" type="line"/>
      <point x="386" y="550" type="line"/>
      <point x="393" y="508" type="line"/>
      <point x="364" y="512"/>
      <point x="331" y="516"/>
      <point x="304" y="516" type="curve" smooth="yes"/>
      <point x="157" y="516"/>
      <point x="50" y="400"/>
      <point x="30" y="254" type="curve" smooth="yes"/>
      <point x="28" y="238"/>
      <point x="27" y="221"/>
      <point x="27" y="206" type="curve" smooth="yes"/>
      <point x="27" y="82"/>
      <point x="100" y="-10"/>
      <point x="239" y="-10" type="curve" smooth="yes"/>
    </contour>
    <contour>
      <point x="151" y="64"/>
      <point x="104" y="120"/>
      <point x="104" y="210" type="curve" smooth="yes"/>
      <point x="104" y="223"/>
      <point x="105" y="237"/>
      <point x="107" y="252" type="curve" smooth="yes"/>
      <point x="124" y="369"/>
      <point x="195" y="441"/>
      <point x="323" y="441" type="curve" smooth="yes"/>
      <point x="356" y="441"/>
      <point x="373" y="435"/>
      <point x="413" y="430" type="curve"/>
      <point x="424" y="377"/>
      <point x="429" y="337"/>
      <point x="429" y="301" type="curve" smooth="yes"/>
      <point x="429" y="284"/>
      <point x="427" y="267"/>
      <point x="425" y="251" type="curve" smooth="yes"/>
      <point x="409" y="139"/>
      <point x="347" y="64"/>
      <point x="241" y="64" type="curve" smooth="yes"/>
    </contour>
  </outline>
</glyph>
<glyph name="divide" format="1">
  <advance width="505"/>
  <unicode hex="00F7"/>
  <outline>
    <contour>
      <point x="431" y="259" type="line"/>
      <point x="442" y="332" type="line"/>
      <point x="58" y="332" type="line"/>
      <point x="47" y="259" type="line"/>
    </contour>
    <component base="period" xOffset="132" yOffset="113"/>
    <component base="period" xOffset="173" yOffset="403"/>
  </outline>
</glyph>
<glyph name="oslash" format="1">
  <advance width="562"/>
  <unicode hex="00F8"/>
  <outline>
    <contour>
      <point x="141" y="13" type="line"/>
      <point x="172" y="-2"/>
      <point x="208" y="-11"/>
      <point x="247" y="-11" type="curve" smooth="yes"/>
      <point x="369" y="-11"/>
      <point x="511" y="78"/>
      <point x="535" y="251" type="curve" smooth="yes"/>
      <point x="537" y="266"/>
      <point x="538" y="280"/>
      <point x="538" y="295" type="curve" smooth="yes"/>
      <point x="538" y="355"/>
      <point x="519" y="409"/>
      <point x="481" y="449" type="curve"/>
      <point x="517" y="489" type="line"/>
      <point x="452" y="531" type="line"/>
      <point x="422" y="492" type="line"/>
      <point x="393" y="507"/>
      <point x="353" y="516"/>
      <point x="314" y="516" type="curve" smooth="yes"/>
      <point x="166" y="516"/>
      <point x="50" y="400"/>
      <point x="30" y="254" type="curve" smooth="yes"/>
      <point x="28" y="239"/>
      <point x="27" y="224"/>
      <point x="27" y="209" type="curve" smooth="yes"/>
      <point x="27" y="150"/>
      <point x="45" y="93"/>
      <point x="83" y="55" type="curve"/>
      <point x="47" y="16" type="line"/>
      <point x="112" y="-25" type="line"/>
    </contour>
    <contour>
      <point x="112" y="140"/>
      <point x="104" y="171"/>
      <point x="104" y="206" type="curve" smooth="yes"/>
      <point x="104" y="219"/>
      <point x="105" y="232"/>
      <point x="107" y="245" type="curve" smooth="yes"/>
      <point x="124" y="366"/>
      <point x="208" y="442"/>
      <point x="321" y="442" type="curve" smooth="yes"/>
      <point x="349" y="442"/>
      <point x="366" y="438"/>
      <point x="379" y="430" type="curve"/>
      <point x="127" y="116" type="line"/>
    </contour>
    <contour>
      <point x="231" y="63"/>
      <point x="208" y="65"/>
      <point x="187" y="73" type="curve"/>
      <point x="438" y="389" type="line"/>
      <point x="453" y="366"/>
      <point x="461" y="337"/>
      <point x="461" y="303" type="curve" smooth="yes"/>
      <point x="461" y="291"/>
      <point x="460" y="278"/>
      <point x="458" y="264" type="curve" smooth="yes"/>
      <point x="440" y="133"/>
      <point x="346" y="63"/>
      <point x="251" y="63" type="curve" smooth="yes"/>
    </contour>
    <contour>
      <point x="311" y="496" type="move" name="top"/>
    </contour>
  </outline>
</glyph>
<glyph name="thorn" format="1">
  <advance width="556"/>
  <unicode hex="00FE"/>
  <outline>
    <contour>
      <point x="62" y="-242" type="line"/>
      <point x="98" y="-2" type="line"/>
      <point x="132" y="-6"/>
      <point x="175" y="-9"/>
      <point x="203" y="-9" type="curve" smooth="yes"/>
      <point x="358" y="-9"/>
      <point x="463" y="104"/>
      <point x="484" y="252" type="curve" smooth="yes"/>
      <point x="486" y="269"/>
      <point x="488" y="286"/>
      <point x="488" y="303" type="curve" smooth="yes"/>
      <point x="488" y="419"/>
      <point x="426" y="516"/>
      <point x="298" y="516" type="curve" smooth="yes"/>
      <point x="253" y="516"/>
      <point x="201" y="503"/>
      <point x="157" y="461" type="curve"/>
      <point x="169" y="524"/>
      <point x="181" y="605"/>
      <point x="191" y="675" type="curve" smooth="yes"/>
      <point x="193" y="694"/>
      <point x="196" y="710"/>
      <point x="198" y="725" type="curve"/>
      <point x="122" y="727" type="line"/>
      <point x="-14" y="-242" type="line"/>
    </contour>
    <contour>
      <point x="189" y="64"/>
      <point x="174" y="65"/>
      <point x="104" y="72" type="curve"/>
      <point x="142" y="328" type="line"/>
      <point x="161" y="398"/>
      <point x="231" y="443"/>
      <point x="296" y="443" type="curve" smooth="yes"/>
      <point x="373" y="443"/>
      <point x="409" y="376"/>
      <point x="409" y="295" type="curve" smooth="yes"/>
      <point x="409" y="281"/>
      <point x="408" y="268"/>
      <point x="406" y="254" type="curve" smooth="yes"/>
      <point x="390" y="143"/>
      <point x="322" y="64"/>
      <point x="200" y="64" type="curve" smooth="yes"/>
    </contour>
  </outline>
</glyph>
<glyph name="Hbar" format="1">
  <advance width="729"/>
  <unicode hex="0126"/>
  <outline>
    <contour>
      <point x="691" y="485" type="line"/>
      <point x="701" y="559" type="line"/>
      <point x="165" y="559" type="line"/>
      <point x="155" y="485" type="line"/>
    </contour>
    <component base="H" xOffset="1" yOffset="11"/>
  </outline>
</glyph>
<glyph name="idotless" format="2">
	<advance width="249"/>
	<unicode hex="0131"/>
	<anchor x="173" y="18" name="ogonek"/>
	<anchor x="132" y="496" name="top"/>
	<outline>
		<contour>
			<point x="124" y="-10" type="curve" smooth="yes"/>
			<point x="159" y="-10"/>
			<point x="195" y="10"/>
			<point x="217" y="42" type="curve"/>
			<point x="155" y="89" type="line"/>
			<point x="149" y="72"/>
			<point x="139" y="66"/>
			<point x="127" y="66" type="curve" smooth="yes"/>
			<point x="120" y="66"/>
			<point x="112" y="73"/>
			<point x="112" y="83" type="curve" smooth="yes"/>
			<point x="112" y="87" type="line"/>
			<point x="171" y="508" type="line"/>
			<point x="94" y="508" type="line"/>
			<point x="36" y="91" type="line" smooth="yes"/>
			<point x="35" y="86"/>
			<point x="35" y="82"/>
			<point x="35" y="77" type="curve" smooth="yes"/>
			<point x="35" y="29"/>
			<point x="73" y="-10"/>
		</contour>
	</outline>
</glyph>
<glyph name="kgreenlandic" format="1">
  <advance width="567"/>
  <unicode hex="0138"/>
  <outline>
    <contour>
      <point x="107" y="0" type="line"/>
      <point x="134" y="194" type="line"/>
      <point x="282" y="194" type="line"/>
      <point x="353" y="49" type="line" smooth="yes"/>
      <point x="365" y="20"/>
      <point x="396" y="0"/>
      <point x="431" y="0" type="curve" smooth="yes"/>
      <point x="482" y="0"/>
      <point x="535" y="46"/>
      <point x="540" y="105" type="curve"/>
      <point x="474" y="110" type="line"/>
      <point x="461" y="100" type="line"/>
      <point x="461" y="91"/>
      <point x="449" y="79"/>
      <point x="434" y="79" type="curve" smooth="yes"/>
      <point x="429" y="79"/>
      <point x="425" y="80"/>
      <point x="421" y="84" type="curve"/>
      <point x="360" y="216" type="line"/>
      <point x="372" y="221"/>
      <point x="383" y="228"/>
      <point x="393" y="233" type="curve"/>
      <point x="452" y="277"/>
      <point x="468" y="345"/>
      <point x="468" y="384" type="curve" smooth="yes"/>
      <point x="468" y="462"/>
      <point x="411" y="516"/>
      <point x="319" y="516" type="curve" smooth="yes"/>
      <point x="260" y="516"/>
      <point x="210" y="495"/>
      <point x="169" y="451" type="curve"/>
      <point x="180" y="518" type="line"/>
      <point x="104" y="518" type="line"/>
      <point x="31" y="0" type="line"/>
    </contour>
    <contour>
      <point x="150" y="286"/>
      <point x="157" y="305"/>
      <point x="167" y="324" type="curve"/>
      <point x="197" y="396"/>
      <point x="252" y="446"/>
      <point x="316" y="446" type="curve" smooth="yes"/>
      <point x="359" y="446"/>
      <point x="394" y="424"/>
      <point x="394" y="380" type="curve" smooth="yes"/>
      <point x="394" y="316"/>
      <point x="339" y="268"/>
      <point x="246" y="268" type="curve" smooth="yes"/>
      <point x="147" y="266" type="line"/>
    </contour>
  </outline>
</glyph>
<glyph name="Lslash" format="2">
	<advance width="524"/>
	<unicode hex="0141"/>
	<outline>
		<contour>
			<point x="39" y="249" type="line"/>
			<point x="300" y="419" type="line"/>
			<point x="311" y="510" type="line"/>
			<point x="50" y="339" type="line"/>
		</contour>
		<component base="L" xOffset="55"/>
	</outline>
</glyph>
<glyph name="lslash" format="1">
  <advance width="283"/>
  <unicode hex="0142"/>
  <outline>
    <contour>
      <point x="229" y="445" type="line"/>
      <point x="242" y="534" type="line"/>
      <point x="17" y="404" type="line"/>
      <point x="4" y="316" type="line"/>
    </contour>
    <component base="l" xOffset="-40"/>
  </outline>
</glyph>
<glyph name="Eng" format="1">
  <advance width="788"/>
  <unicode hex="014A"/>
  <outline>
    <contour>
      <point x="598" y="-205"/>
      <point x="646" y="-162"/>
      <point x="653" y="-111" type="curve" smooth="yes"/>
      <point x="699" y="205" type="line"/>
      <point x="624" y="205" type="line"/>
      <point x="579" y="-107" type="line" smooth="yes"/>
      <point x="577" y="-119"/>
      <point x="564" y="-130"/>
      <point x="550" y="-130" type="curve" smooth="yes"/>
      <point x="540" y="-130"/>
      <point x="538" y="-128"/>
      <point x="532" y="-114" type="curve"/>
      <point x="465" y="-150" type="line"/>
      <point x="480" y="-184"/>
      <point x="510" y="-205"/>
      <point x="547" y="-205" type="curve" smooth="yes"/>
    </contour>
    <component base="N"/>
  </outline>
</glyph>
<glyph name="eng" format="1">
  <advance width="486"/>
  <unicode hex="014B"/>
  <outline>
    <contour>
      <point x="376" y="-205"/>
      <point x="424" y="-162"/>
      <point x="431" y="-111" type="curve" smooth="yes"/>
      <point x="477" y="205" type="line"/>
      <point x="402" y="205" type="line"/>
      <point x="357" y="-107" type="line" smooth="yes"/>
      <point x="355" y="-119"/>
      <point x="342" y="-130"/>
      <point x="328" y="-130" type="curve" smooth="yes"/>
      <point x="318" y="-130"/>
      <point x="316" y="-128"/>
      <point x="310" y="-114" type="curve"/>
      <point x="243" y="-150" type="line"/>
      <point x="258" y="-184"/>
      <point x="288" y="-205"/>
      <point x="325" y="-205" type="curve" smooth="yes"/>
    </contour>
    <component base="n.ss02" xOffset="1"/>
    <contour>
      <point x="729" y="496" type="move" name="top"/>
    </contour>
  </outline>
</glyph>
<glyph name="OE" format="1">
  <advance width="1419"/>
  <unicode hex="0152"/>
  <outline>
    <component base="O"/>
    <component base="E.ss02" xOffset="815"/>
    <contour>
      <point x="641" y="11" type="move" name="top"/>
    </contour>
  </outline>
</glyph>
<glyph name="oe" format="1">
  <advance width="963"/>
  <unicode hex="0153"/>
  <outline>
    <contour>
      <point x="345" y="-10"/>
      <point x="425" y="23"/>
      <point x="482" y="101" type="curve"/>
      <point x="505" y="34"/>
      <point x="564" y="-10"/>
      <point x="662" y="-10" type="curve" smooth="yes"/>
      <point x="729" y="-10"/>
      <point x="799" y="10"/>
      <point x="863" y="54" type="curve"/>
      <point x="830" y="115" type="line"/>
      <point x="774" y="86"/>
      <point x="727" y="64"/>
      <point x="663" y="64" type="curve" smooth="yes"/>
      <point x="582" y="64"/>
      <point x="541" y="103"/>
      <point x="540" y="191" type="curve"/>
      <point x="642" y="193" type="line" smooth="yes"/>
      <point x="760" y="193"/>
      <point x="889" y="240"/>
      <point x="889" y="376" type="curve" smooth="yes"/>
      <point x="889" y="465"/>
      <point x="814" y="516"/>
      <point x="723" y="516" type="curve" smooth="yes"/>
      <point x="636" y="516"/>
      <point x="569" y="469"/>
      <point x="524" y="397" type="curve"/>
      <point x="493" y="470"/>
      <point x="424" y="516"/>
      <point x="330" y="516" type="curve" smooth="yes"/>
      <point x="182" y="516"/>
      <point x="65" y="403"/>
      <point x="44" y="255" type="curve" smooth="yes"/>
      <point x="42" y="240"/>
      <point x="41" y="225"/>
      <point x="41" y="210" type="curve" smooth="yes"/>
      <point x="41" y="81"/>
      <point x="127" y="-10"/>
      <point x="263" y="-10" type="curve" smooth="yes"/>
    </contour>
    <contour>
      <point x="172" y="64"/>
      <point x="119" y="125"/>
      <point x="119" y="215" type="curve" smooth="yes"/>
      <point x="119" y="226"/>
      <point x="120" y="238"/>
      <point x="122" y="250" type="curve" smooth="yes"/>
      <point x="138" y="362"/>
      <point x="217" y="442"/>
      <point x="327" y="442" type="curve" smooth="yes"/>
      <point x="419" y="442"/>
      <point x="474" y="385"/>
      <point x="474" y="296" type="curve" smooth="yes"/>
      <point x="474" y="284"/>
      <point x="473" y="272"/>
      <point x="471" y="260" type="curve" smooth="yes"/>
      <point x="456" y="148"/>
      <point x="377" y="64"/>
      <point x="265" y="64" type="curve" smooth="yes"/>
    </contour>
    <contour>
      <point x="562" y="352"/>
      <point x="629" y="445"/>
      <point x="724" y="445" type="curve" smooth="yes"/>
      <point x="768" y="445"/>
      <point x="811" y="425"/>
      <point x="811" y="375" type="curve" smooth="yes"/>
      <point x="811" y="298"/>
      <point x="745" y="267"/>
      <point x="648" y="267" type="curve" smooth="yes"/>
      <point x="546" y="265" type="line"/>
    </contour>
    <contour>
      <point x="445" y="11" type="move" name="top"/>
    </contour>
  </outline>
</glyph>
<glyph name="longs" format="2">
	<advance width="222"/>
	<unicode hex="017F"/>
	<outline>
		<contour>
			<point x="1" y="-253" type="line"/>
			<point x="77" y="-253" type="line"/>
			<point x="182" y="493" type="line" smooth="yes"/>
			<point x="194" y="574"/>
			<point x="220" y="630"/>
			<point x="292" y="630" type="curve" smooth="yes"/>
			<point x="322" y="630"/>
			<point x="343" y="624"/>
			<point x="354" y="589" type="curve"/>
			<point x="418" y="643" type="line"/>
			<point x="395" y="684"/>
			<point x="351" y="704"/>
			<point x="293" y="704" type="curve" smooth="yes"/>
			<point x="162" y="704"/>
			<point x="123" y="611"/>
			<point x="102" y="461" type="curve" smooth="yes"/>
		</contour>
	</outline>
</glyph>
<glyph name="florin" format="1">
  <advance width="511"/>
  <unicode hex="0192"/>
  <outline>
    <contour>
      <point x="69" y="-238"/>
      <point x="91" y="-236"/>
      <point x="111" y="-231" type="curve" smooth="yes"/>
      <point x="129" y="-224"/>
      <point x="147" y="-213"/>
      <point x="161" y="-202" type="curve" smooth="yes"/>
      <point x="176" y="-185"/>
      <point x="189" y="-165"/>
      <point x="199" y="-143" type="curve" smooth="yes"/>
      <point x="207" y="-118"/>
      <point x="214" y="-89"/>
      <point x="219" y="-55" type="curve" smooth="yes"/>
      <point x="276" y="347" type="line"/>
      <point x="443" y="347" type="line"/>
      <point x="453" y="423" type="line"/>
      <point x="286" y="423" type="line"/>
      <point x="296" y="495" type="line" smooth="yes"/>
      <point x="302" y="537"/>
      <point x="313" y="564"/>
      <point x="329" y="580" type="curve" smooth="yes"/>
      <point x="343" y="599"/>
      <point x="359" y="608"/>
      <point x="381" y="608" type="curve" smooth="yes"/>
      <point x="429" y="607" type="line" smooth="yes"/>
      <point x="452" y="606"/>
      <point x="475" y="606"/>
      <point x="497" y="606" type="curve"/>
      <point x="504" y="666" type="line"/>
      <point x="496" y="676" type="line"/>
      <point x="494" y="677"/>
      <point x="487" y="679"/>
      <point x="479" y="680" type="curve"/>
      <point x="452" y="682" type="line"/>
      <point x="415" y="684" type="line"/>
      <point x="380" y="684" type="line" smooth="yes"/>
      <point x="356" y="684"/>
      <point x="334" y="682"/>
      <point x="314" y="676" type="curve" smooth="yes"/>
      <point x="297" y="668"/>
      <point x="280" y="655"/>
      <point x="266" y="640" type="curve" smooth="yes"/>
      <point x="253" y="622"/>
      <point x="243" y="599"/>
      <point x="235" y="574" type="curve" smooth="yes"/>
      <point x="225" y="545"/>
      <point x="219" y="512"/>
      <point x="213" y="473" type="curve" smooth="yes"/>
      <point x="206" y="423" type="line"/>
      <point x="96" y="423" type="line"/>
      <point x="86" y="347" type="line"/>
      <point x="196" y="347" type="line"/>
      <point x="140" y="-51" type="line" smooth="yes"/>
      <point x="134" y="-95"/>
      <point x="122" y="-123"/>
      <point x="106" y="-138" type="curve"/>
      <point x="92" y="-155"/>
      <point x="75" y="-163"/>
      <point x="54" y="-163" type="curve" smooth="yes"/>
      <point x="14" y="-163" type="line"/>
      <point x="-21" y="-160" type="line"/>
      <point x="-30" y="-229" type="line"/>
      <point x="0" y="-235" type="line"/>
      <point x="13" y="-237"/>
      <point x="28" y="-238"/>
      <point x="49" y="-238" type="curve" smooth="yes"/>
    </contour>
  </outline>
</glyph>
<glyph name="jdotless" format="2">
	<advance width="216"/>
	<unicode hex="0237"/>
	<anchor x="143" y="496" name="top"/>
	<outline>
		<contour>
			<point x="-19" y="-253" type="curve" smooth="yes"/>
			<point x="34" y="-253"/>
			<point x="82" y="-209"/>
			<point x="90" y="-156" type="curve" smooth="yes"/>
			<point x="183" y="509" type="line"/>
			<point x="106" y="509" type="line"/>
			<point x="14" y="-152" type="line" smooth="yes"/>
			<point x="12" y="-164"/>
			<point x="-1" y="-176"/>
			<point x="-16" y="-176" type="curve" smooth="yes"/>
			<point x="-26" y="-176"/>
			<point x="-28" y="-174"/>
			<point x="-34" y="-159" type="curve"/>
			<point x="-103" y="-197" type="line"/>
			<point x="-88" y="-232"/>
			<point x="-57" y="-253"/>
		</contour>
	</outline>
</glyph>
<glyph name="apostrophemod" format="1">
  <advance width="234"/>
  <unicode hex="02BC"/>
  <outline>
    <contour>
      <point x="142" y="451"/>
      <point x="167" y="477"/>
      <point x="184" y="506" type="curve" smooth="yes"/>
      <point x="198" y="536"/>
      <point x="206" y="565"/>
      <point x="210" y="593" type="curve" smooth="yes"/>
      <point x="218" y="651" type="line" smooth="yes"/>
      <point x="222" y="673"/>
      <point x="201" y="697"/>
      <point x="179" y="697" type="curve" smooth="yes"/>
      <point x="152" y="697"/>
      <point x="136" y="679"/>
      <point x="134" y="655" type="curve" smooth="yes"/>
      <point x="126" y="597" type="line" smooth="yes"/>
      <point x="118" y="542"/>
      <point x="97" y="505"/>
      <point x="63" y="481" type="curve"/>
      <point x="111" y="432" type="line"/>
    </contour>
  </outline>
</glyph>
<glyph name="circumflex" format="1">
  <advance width="437"/>
  <unicode hex="02C6"/>
  <outline>
    <contour>
      <point x="178" y="556" type="line"/>
      <point x="264" y="637" type="line"/>
      <point x="324" y="556" type="line"/>
      <point x="418" y="556" type="line"/>
      <point x="301" y="717" type="line"/>
      <point x="243" y="717" type="line"/>
      <point x="80" y="556" type="line"/>
    </contour>
    <contour>
      <point x="238" y="496" type="move" name="_top"/>
    </contour>
  </outline>
</glyph>
<glyph name="caron" format="1">
  <advance width="418"/>
  <unicode hex="02C7"/>
  <outline>
    <contour>
      <point x="270" y="567" type="line"/>
      <point x="434" y="728" type="line"/>
      <point x="335" y="728" type="line"/>
      <point x="249" y="647" type="line"/>
      <point x="189" y="728" type="line"/>
      <point x="95" y="728" type="line"/>
      <point x="212" y="567" type="line"/>
    </contour>
    <contour>
      <point x="229" y="496" type="move" name="_top"/>
    </contour>
  </outline>
</glyph>
<glyph name="breve" format="1">
  <advance width="432"/>
  <unicode hex="02D8"/>
  <outline>
    <contour>
      <point x="343" y="574"/>
      <point x="405" y="629"/>
      <point x="418" y="728" type="curve"/>
      <point x="336" y="732" type="line"/>
      <point x="330" y="678"/>
      <point x="306" y="649"/>
      <point x="255" y="649" type="curve" smooth="yes"/>
      <point x="214" y="649"/>
      <point x="199" y="668"/>
      <point x="199" y="704" type="curve" smooth="yes"/>
      <point x="199" y="711"/>
      <point x="200" y="719"/>
      <point x="201" y="728" type="curve"/>
      <point x="120" y="732" type="line"/>
      <point x="118" y="721"/>
      <point x="117" y="710"/>
      <point x="117" y="700" type="curve" smooth="yes"/>
      <point x="117" y="627"/>
      <point x="163" y="574"/>
      <point x="252" y="574" type="curve" smooth="yes"/>
    </contour>
    <contour>
      <point x="237" y="496" type="move" name="_top"/>
    </contour>
  </outline>
</glyph>
<glyph name="dotaccent" format="1">
  <advance width="202"/>
  <unicode hex="02D9"/>
  <outline>
    <component base="period" xOffset="48" yOffset="609"/>
    <contour>
      <point x="93" y="500" type="move" name="_top"/>
    </contour>
  </outline>
</glyph>
<glyph name="ring" format="1">
  <advance width="335"/>
  <unicode hex="02DA"/>
  <outline>
    <contour>
      <point x="262" y="530"/>
      <point x="318" y="583"/>
      <point x="318" y="658" type="curve" smooth="yes"/>
      <point x="318" y="713"/>
      <point x="281" y="753"/>
      <point x="220" y="753" type="curve" smooth="yes"/>
      <point x="148" y="753"/>
      <point x="97" y="697"/>
      <point x="97" y="624" type="curve" smooth="yes"/>
      <point x="97" y="569"/>
      <point x="133" y="530"/>
      <point x="194" y="530" type="curve" smooth="yes"/>
    </contour>
    <contour>
      <point x="179" y="595"/>
      <point x="167" y="606"/>
      <point x="167" y="627" type="curve" smooth="yes"/>
      <point x="167" y="630"/>
      <point x="167" y="633"/>
      <point x="168" y="637" type="curve" smooth="yes"/>
      <point x="173" y="667"/>
      <point x="191" y="687"/>
      <point x="218" y="687" type="curve" smooth="yes"/>
      <point x="238" y="687"/>
      <point x="249" y="675"/>
      <point x="249" y="654" type="curve" smooth="yes"/>
      <point x="249" y="621"/>
      <point x="224" y="595"/>
      <point x="196" y="595" type="curve" smooth="yes"/>
    </contour>
    <contour>
      <point x="188" y="496" type="move" name="_top"/>
    </contour>
  </outline>
</glyph>
